<svg xmlns="http://www.w3.org/2000/svg" xmlns:xlink="http://www.w3.org/1999/xlink" width="636.278" height="300.552" viewBox="0 0 636.278 300.552"><defs><clipPath id="a"><path d="M6.852,0A17.906,17.906,0,0,0,0,13.976H0A18,18,0,0,0,7.723,28.618h23.5a18,18,0,0,0,7.723-14.641h0A17.907,17.907,0,0,0,32.09,0H6.852Z" fill="none"/></clipPath><linearGradient id="b" x1="0.611" y1="1.668" x2="0.437" y2="-0.18" gradientUnits="objectBoundingBox"><stop offset="0" stop-color="#f20000"/><stop offset="1" stop-color="#ff9000"/></linearGradient><clipPath id="c"><path d="M0,300.552H636.278V0H0Z" fill="none"/></clipPath><linearGradient id="d" y1="0.5" x2="1" y2="0.5" gradientUnits="objectBoundingBox"><stop offset="0" stop-color="#d34149"/><stop offset="1" stop-color="#ac4491"/></linearGradient><clipPath id="e"><path d="M284.765,111.478H0V5.74H30.672V0H51.484V5.74H198.175V.008H220.95V5.74h20.535V0h21.853V5.74h21.427V111.477ZM125.056,11.282v94.653H278.819V11.282Zm-119.11,0v94.653H120.263V11.282Z" transform="translate(0 0)" fill="none"/></clipPath><linearGradient id="f" x1="-0.001" y1="0.584" x2="2.076" y2="0.27" gradientUnits="objectBoundingBox"><stop offset="0" stop-color="#690252"/><stop offset="1" stop-color="#b8004b"/></linearGradient><linearGradient id="g" x1="0" y1="0.5" x2="1" y2="0.5" xlink:href="#f"/></defs><g transform="translate(0 -1)"><g transform="translate(64.955 22.718)"><path d="M0,2.085A6.842,6.842,0,0,0,5.115,3.8,6.844,6.844,0,0,0,10.092,1.72,6.836,6.836,0,0,0,4.978.006,6.834,6.834,0,0,0,0,2.085" transform="translate(87.624 89.12)" fill="#f66d75"/><path d="M15.892,116.457a183.665,183.665,0,0,0,1.931-29.642c-.04-4.95-.312-9.894-.7-14.825-.377-4.933-.979-9.843-1.665-14.738A272.019,272.019,0,0,0,9.611,28.205Q7.762,21.033,5.524,13.968C4.028,9.262,2.428,4.595.582,0L0,.239C1.773,4.817,3.316,9.5,4.748,14.209s2.727,9.46,3.9,14.24A270.967,270.967,0,0,1,14.1,57.44c.623,4.876,1.159,9.764,1.472,14.668.329,4.9.537,9.811.516,14.72a181.7,181.7,0,0,1-2.274,29.3Z" transform="translate(48.418 19.678)" fill="#ac4492"/><path d="M2.912,0c2.8,1.686,5.025,5.258,5.645,9.627s-.527,8.42-2.745,10.818C3.016,18.76.787,15.187.167,10.817S.695,2.4,2.912,0" transform="translate(43.205 0)" fill="#ac4492"/><path d="M11.092.016a10.439,10.439,0,0,1-3.1,8.149A10.437,10.437,0,0,1,.062,11.787a10.438,10.438,0,0,1,3.1-8.149A10.437,10.437,0,0,1,11.092.016" transform="translate(51.504 15.041)" fill="#ac4492"/><path d="M15.347,6.258a10.442,10.442,0,0,1-8.694.665A10.441,10.441,0,0,1,0,1.288,10.44,10.44,0,0,1,8.693.624a10.439,10.439,0,0,1,6.654,5.634" transform="translate(35.623 20.636)" fill="#ac4492"/><path d="M15.347,6.257a10.434,10.434,0,0,1-8.693.665A10.438,10.438,0,0,1,0,1.289,10.437,10.437,0,0,1,8.693.624a10.441,10.441,0,0,1,6.654,5.633" transform="translate(38.948 31.283)" fill="#ac4492"/><path d="M15.347,6.258a10.44,10.44,0,0,1-8.693.665A10.442,10.442,0,0,1,0,1.289,10.437,10.437,0,0,1,8.694.624a10.434,10.434,0,0,1,6.654,5.633" transform="translate(42.297 42.389)" fill="#ac4492"/><path d="M15.347,6.258a10.441,10.441,0,0,1-8.694.665A10.441,10.441,0,0,1,0,1.288,10.442,10.442,0,0,1,8.694.624a10.437,10.437,0,0,1,6.654,5.634" transform="translate(44.544 52.732)" fill="#ac4492"/><path d="M0,6.257a10.437,10.437,0,0,0,8.693.666,10.447,10.447,0,0,0,6.654-5.634A10.436,10.436,0,0,0,6.653.624,10.439,10.439,0,0,0,0,6.257" transform="translate(58.957 50.638)" fill="#ac4492"/><path d="M11.091.016a10.434,10.434,0,0,1-3.1,8.149A10.44,10.44,0,0,1,.062,11.788a10.442,10.442,0,0,1,3.1-8.15A10.438,10.438,0,0,1,11.091.016" transform="translate(54.511 24.881)" fill="#ac4492"/><path d="M11.092.016a10.441,10.441,0,0,1-3.1,8.15A10.443,10.443,0,0,1,.062,11.788a10.441,10.441,0,0,1,3.1-8.15A10.438,10.438,0,0,1,11.092.016" transform="translate(57.955 36.061)" fill="#ac4492"/><path d="M.1,0A73.119,73.119,0,0,1,8.764,5.746a97.315,97.315,0,0,1,7.929,6.737,102.809,102.809,0,0,1,7.2,7.523,102.248,102.248,0,0,1,6.366,8.25A97.188,97.188,0,0,1,40.2,46.572a101.266,101.266,0,0,1,5.753,20.066l-1.473.246A99.955,99.955,0,0,0,39.11,47.007a96.155,96.155,0,0,0-9.556-18.272,101.482,101.482,0,0,0-6.189-8.283,102.491,102.491,0,0,0-7.038-7.587A96.989,96.989,0,0,0,8.539,6.038,72.853,72.853,0,0,0,0,.184Z" transform="translate(11.136 67.62)" fill="#ac4492"/><path d="M0,.244A9.486,9.486,0,0,0,4.262,6.921a9.487,9.487,0,0,0,7.724,1.757A9.487,9.487,0,0,0,7.725,2,9.49,9.49,0,0,0,0,.244" transform="translate(0 59.536)" fill="#ac4492"/><path d="M2.6,0A9.486,9.486,0,0,0,.02,7.489a9.483,9.483,0,0,0,3.423,7.144A9.48,9.48,0,0,0,6.026,7.144,9.483,9.483,0,0,0,2.6,0" transform="translate(14.647 57.82)" fill="#ac4492"/><path d="M4.748,0A9.486,9.486,0,0,0,.265,6.532a9.485,9.485,0,0,0,1.4,7.8A9.48,9.48,0,0,0,6.145,7.8,9.482,9.482,0,0,0,4.748,0" transform="translate(22.684 62.931)" fill="#ac4492"/><path d="M4.749,0A9.483,9.483,0,0,0,.266,6.531a9.483,9.483,0,0,0,1.4,7.8A9.484,9.484,0,0,0,6.146,7.8,9.487,9.487,0,0,0,4.749,0" transform="translate(29.552 69.251)" fill="#ac4492"/><path d="M7.237,0a9.485,9.485,0,0,0-6,5.166,9.487,9.487,0,0,0-.644,7.9A9.484,9.484,0,0,0,6.594,7.9,9.484,9.484,0,0,0,7.237,0" transform="translate(34.97 75.746)" fill="#ac4492"/><path d="M8.762,0A8.469,8.469,0,0,0,2.408,3.117,8.468,8.468,0,0,0,.073,9.8,8.469,8.469,0,0,0,6.427,6.684,8.473,8.473,0,0,0,8.762,0" transform="translate(39.015 83.873)" fill="#ac4492"/><path d="M8.762,0A8.471,8.471,0,0,0,2.408,3.117,8.471,8.471,0,0,0,.073,9.8,8.469,8.469,0,0,0,6.427,6.683,8.471,8.471,0,0,0,8.762,0" transform="translate(43.055 88.986)" fill="#ac4492"/><path d="M7.511,0A7.261,7.261,0,0,0,2.064,2.672a7.257,7.257,0,0,0-2,5.724A7.256,7.256,0,0,0,5.508,5.729,7.263,7.263,0,0,0,7.511,0" transform="translate(46.615 96.527)" fill="#ac4492"/><path d="M8.8.593A6.132,6.132,0,0,0,3.71.5,6.126,6.126,0,0,0,0,3.986a6.136,6.136,0,0,0,5.088.09A6.135,6.135,0,0,0,8.8.593" transform="translate(47.566 103.802)" fill="#ac4492"/><path d="M7.549,1.375A4.914,4.914,0,0,0,3.708.006,4.917,4.917,0,0,0,0,1.7,4.917,4.917,0,0,0,3.841,3.073a4.917,4.917,0,0,0,3.708-1.7" transform="translate(49.72 109.5)" fill="#ac4492"/><path d="M0,5.876a9.484,9.484,0,0,0,7.909.447,9.485,9.485,0,0,0,5.943-5.238A9.482,9.482,0,0,0,5.942.639,9.483,9.483,0,0,0,0,5.876" transform="translate(4.258 71.123)" fill="#ac4492"/><path d="M0,5.876a9.484,9.484,0,0,0,7.909.447,9.482,9.482,0,0,0,5.942-5.238A9.483,9.483,0,0,0,5.942.638,9.487,9.487,0,0,0,0,5.876" transform="translate(10.51 76.268)" fill="#ac4492"/><path d="M0,5.876a9.484,9.484,0,0,0,7.909.447,9.485,9.485,0,0,0,5.943-5.238A9.482,9.482,0,0,0,5.942.639,9.483,9.483,0,0,0,0,5.876" transform="translate(17.175 82.612)" fill="#ac4492"/><path d="M0,4.779a7.71,7.71,0,0,0,6.433.364A7.714,7.714,0,0,0,11.266.883,7.708,7.708,0,0,0,4.833.52,7.71,7.71,0,0,0,0,4.779" transform="translate(24.698 87.929)" fill="#ac4492"/><path d="M0,3.922a6.114,6.114,0,0,0,5.222.369A6.118,6.118,0,0,0,9.1.774,6.119,6.119,0,0,0,3.878.4,6.117,6.117,0,0,0,0,3.922" transform="translate(30.331 92.817)" fill="#ac4492"/><path d="M0,3.923a6.121,6.121,0,0,0,5.222.369A6.124,6.124,0,0,0,9.1.774,6.114,6.114,0,0,0,3.878.405,6.113,6.113,0,0,0,0,3.923" transform="translate(33.696 98)" fill="#ac4492"/><path d="M0,2.578A5.979,5.979,0,0,0,4.75,3.609,5.986,5.986,0,0,0,8.933,1.13,5.984,5.984,0,0,0,4.182.1,5.982,5.982,0,0,0,0,2.578" transform="translate(37.385 104.035)" fill="#ac4492"/><path d="M0,4.629A5.215,5.215,0,0,0,4.193,3.7,5.219,5.219,0,0,0,6.584.134a5.217,5.217,0,0,0-4.193.928A5.216,5.216,0,0,0,0,4.629" transform="translate(40.949 107.891)" fill="#ac4492"/><path d="M.01,4.325a3.991,3.991,0,0,0,3.02-1.292A3.994,3.994,0,0,0,4.32.01,3.993,3.993,0,0,0,1.3,1.3,3.992,3.992,0,0,0,.01,4.325" transform="translate(44.909 111.722)" fill="#ac4492"/><path d="M.02,2.659A2.306,2.306,0,0,0,1.939,1.94,2.3,2.3,0,0,0,2.655.02,2.307,2.307,0,0,0,.736.739,2.3,2.3,0,0,0,.02,2.659" transform="translate(47.533 114.312)" fill="#ac4492"/><path d="M.02,2.658A2.306,2.306,0,0,0,1.939,1.94,2.306,2.306,0,0,0,2.655.02,2.309,2.309,0,0,0,.736.738,2.306,2.306,0,0,0,.02,2.658" transform="translate(48.382 116.057)" fill="#ac4492"/><path d="M30.264,0a95.487,95.487,0,0,0-8.311,10.75A127.51,127.51,0,0,0,14.97,22.416,134.832,134.832,0,0,0,9.223,34.749,134.07,134.07,0,0,0,4.81,47.632,126.992,126.992,0,0,0,.2,74.473a132.341,132.341,0,0,0,1.308,27.248l1.927-.314A130.63,130.63,0,0,1,1.732,74.553,125.627,125.627,0,0,1,5.882,47.93a132.45,132.45,0,0,1,4.18-12.849,133.726,133.726,0,0,1,5.522-12.345,126.643,126.643,0,0,1,6.77-11.718A95.191,95.191,0,0,1,30.462.185Z" transform="translate(66.279 37.348)" fill="#f66d75"/><path d="M11.569,0c.77,2.929-.058,6.746-2.47,10.052S3.3,15.312.279,15.471c-.77-2.929.057-6.746,2.47-10.052S8.544.16,11.569,0" transform="translate(95.582 22.927)" fill="#f66d75"/><path d="M1.79,0C4.564,1.217,7.04,4.238,8.132,8.182S8.651,15.991,6.9,18.461c-2.774-1.218-5.25-4.238-6.342-8.183S.036,2.47,1.79,0" transform="translate(83.192 27.747)" fill="#f66d75"/><path d="M.525,0c3,.434,6.189,2.686,8.291,6.2s2.58,7.39,1.546,10.237c-3-.435-6.188-2.687-8.291-6.2S-.507,2.847.525,0" transform="translate(74.003 38.349)" fill="#f66d75"/><path d="M.526,0c3,.436,6.189,2.686,8.291,6.2s2.58,7.388,1.546,10.235c-3-.434-6.189-2.686-8.291-6.2S-.508,2.848.526,0" transform="translate(68.158 49.054)" fill="#f66d75"/><path d="M.032.053c3.009-.347,6.67,1.014,9.6,3.871s4.383,6.482,4.113,9.5c-3.009.346-6.67-1.015-9.6-3.871S-.239,3.07.032.053" transform="translate(61.595 60.359)" fill="#f66d75"/><path d="M0,.534C2.523-.445,5.993-.093,9.17,1.716S14.419,6.331,14.864,9c-2.522.977-5.993.626-9.169-1.183S.447,3.2,0,.534" transform="translate(58.151 72.281)" fill="#f66d75"/><path d="M0,.533C2.523-.444,5.993-.093,9.169,1.716s5.25,4.616,5.7,7.284c-2.522.977-5.993.627-9.169-1.183S.446,3.2,0,.533" transform="translate(55.299 80.305)" fill="#f66d75"/><path d="M0,.457A9.488,9.488,0,0,1,7.86,1.471a9.489,9.489,0,0,1,4.881,6.244A9.5,9.5,0,0,1,4.881,6.7,9.49,9.49,0,0,1,0,.457" transform="translate(55.611 90.682)" fill="#f66d75"/><path d="M0,2.257A8.011,8.011,0,0,1,6.258.009,8.011,8.011,0,0,1,12.312,2.76,8.013,8.013,0,0,1,6.054,5.009,8.009,8.009,0,0,1,0,2.257" transform="translate(56.143 99.552)" fill="#f66d75"/><path d="M0,3.627A6.422,6.422,0,0,1,4.177.319a6.424,6.424,0,0,1,5.3.542A6.424,6.424,0,0,1,5.3,4.169,6.421,6.421,0,0,1,0,3.627" transform="translate(57.746 106.583)" fill="#f66d75"/><path d="M19.153,3.986c-1.927,2.337-5.507,3.9-9.6,3.875S1.9,6.235,0,3.875C1.926,1.537,5.506-.024,9.6,0s7.655,1.625,9.554,3.985" transform="translate(89.961 42.038)" fill="#f66d75"/><path d="M19.153,3.986c-1.926,2.337-5.506,3.9-9.6,3.875S1.9,6.235,0,3.875C1.927,1.537,5.506-.024,9.6,0s7.655,1.625,9.554,3.985" transform="translate(84.385 51.031)" fill="#f66d75"/><path d="M19.153,3.986c-1.927,2.338-5.507,3.9-9.6,3.875S1.9,6.235,0,3.875C1.926,1.538,5.506-.024,9.6,0s7.654,1.626,9.554,3.985" transform="translate(78.803 61.681)" fill="#f66d75"/><path d="M15.578,3.243A10.082,10.082,0,0,1,7.771,6.394,10.08,10.08,0,0,1,0,3.153,10.081,10.081,0,0,1,7.808,0a10.078,10.078,0,0,1,7.77,3.243" transform="translate(74.842 70.806)" fill="#f66d75"/><path d="M12.584,2.723A7.994,7.994,0,0,1,6.277,5.375,7.994,7.994,0,0,1,0,2.651,7.992,7.992,0,0,1,6.308,0a7.991,7.991,0,0,1,6.276,2.723" transform="translate(72.558 78.679)" fill="#f66d75"/><path d="M12.584,2.724A8,8,0,0,1,6.276,5.375,8,8,0,0,1,0,2.65,7.987,7.987,0,0,1,6.308,0a7.989,7.989,0,0,1,6.276,2.724" transform="translate(70.571 86.506)" fill="#f66d75"/><path d="M11.662,1.45A7.816,7.816,0,0,1,6.217,4.721,7.816,7.816,0,0,1,0,3.411,7.817,7.817,0,0,1,5.445.139,7.822,7.822,0,0,1,11.662,1.45" transform="translate(68.899 95.133)" fill="#f66d75"/><path d="M10.035,3.725a6.82,6.82,0,0,1-5.579.614A6.822,6.822,0,0,1,0,.927,6.817,6.817,0,0,1,5.579.313a6.815,6.815,0,0,1,4.457,3.412" transform="translate(68.595 101.666)" fill="#f66d75"/><path d="M7.145,3.848a5.223,5.223,0,0,1-4.28-.332A5.214,5.214,0,0,1,0,.319,5.212,5.212,0,0,1,4.28.651a5.211,5.211,0,0,1,2.865,3.2" transform="translate(68.054 107.574)" fill="#f66d75"/><path d="M4.369,2.432a3.011,3.011,0,0,1-2.676-.082A3.013,3.013,0,0,1,0,.274,3.017,3.017,0,0,1,2.676.357,3.011,3.011,0,0,1,4.369,2.432" transform="translate(67.959 111.239)" fill="#f66d75"/><path d="M4.369,2.432a3.016,3.016,0,0,1-2.676-.083A3.015,3.015,0,0,1,0,.275,3.01,3.01,0,0,1,2.676.358,3.006,3.006,0,0,1,4.369,2.432" transform="translate(67.641 113.754)" fill="#f66d75"/><path d="M.223,0A102.911,102.911,0,0,1,8.609,12.014a137.094,137.094,0,0,1,6.906,12.927,144.96,144.96,0,0,1,5.543,13.582,144.051,144.051,0,0,1,4.076,14.1A136.883,136.883,0,0,1,28.69,81.771a142.767,142.767,0,0,1-2.838,29.271l-2.058-.44a140.821,140.821,0,0,0,3.244-28.826,135.485,135.485,0,0,0-3.073-28.886,142.708,142.708,0,0,0-3.827-14.056,144.149,144.149,0,0,0-5.3-13.583A136.274,136.274,0,0,0,8.163,12.279,102.509,102.509,0,0,0,0,.191Z" transform="translate(31.417 27.381)" fill="#f794ac"/><path d="M.431,0C-.552,3.114.14,7.268,2.565,10.955s5.965,5.966,9.214,6.3c.983-3.115.292-7.268-2.133-10.955S3.68.332.431,0" transform="translate(20.543 11.297)" fill="#f794ac"/><path d="M8.083,0C5.033,1.165,2.208,4.288.826,8.478s-.969,8.382.79,11.132c3.052-1.166,5.876-4.287,7.258-8.478S9.842,2.751,8.083,0" transform="translate(36.509 17.649)" fill="#f794ac"/><path d="M11.868,0c-3.251.311-6.8,2.568-9.253,6.24S-.55,14.062.413,17.181c3.251-.311,6.8-2.568,9.253-6.239S12.831,3.121,11.868,0" transform="translate(43.425 29.614)" fill="#f794ac"/><path d="M11.867,0c-3.251.311-6.8,2.568-9.253,6.24S-.55,14.06.413,17.181c3.251-.311,6.8-2.568,9.253-6.239S12.831,3.121,11.867,0" transform="translate(49.159 41.447)" fill="#f794ac"/><path d="M15.476.117C12.253-.413,8.24.86,4.934,3.783S-.125,10.532.007,13.8c3.222.53,7.236-.743,10.542-3.665S15.609,3.38,15.476.117" transform="translate(52.553 53.93)" fill="#f794ac"/><path d="M16.451.747c-2.665-1.185-6.42-.988-9.937.793S.62,6.235,0,9.084c2.665,1.186,6.42.989,9.936-.792S15.83,3.6,16.451.747" transform="translate(54.671 66.837)" fill="#f794ac"/><path d="M16.45.748c-2.665-1.186-6.42-.989-9.936.792S.62,6.235,0,9.085c2.665,1.185,6.42.988,9.936-.793S15.83,3.6,16.45.748" transform="translate(57.322 75.627)" fill="#f794ac"/><path d="M14.1.64a10.229,10.229,0,0,0-8.516.68A10.225,10.225,0,0,0,0,7.786a10.228,10.228,0,0,0,8.517-.679A10.227,10.227,0,0,0,14.1.64" transform="translate(58.796 86.809)" fill="#f794ac"/><path d="M13.286,2.75A8.642,8.642,0,0,0,6.665,0,8.644,8.644,0,0,0,0,2.646,8.644,8.644,0,0,0,6.622,5.4,8.641,8.641,0,0,0,13.286,2.75" transform="translate(58.479 96.162)" fill="#f794ac"/><path d="M10.062,4.249A6.926,6.926,0,0,0,5.737.467,6.923,6.923,0,0,0,0,.772,6.919,6.919,0,0,0,4.325,4.553a6.926,6.926,0,0,0,5.737-.3" transform="translate(59.536 103.626)" fill="#f794ac"/><path d="M0,3.807C1.952,6.425,5.726,8.294,10.134,8.483s8.328-1.35,10.5-3.791C18.679,2.074,14.906.2,10.5.016S2.169,1.366,0,3.807" transform="translate(17.649 32.258)" fill="#f794ac"/><path d="M0,3.807C1.952,6.426,5.725,8.294,10.134,8.484s8.328-1.351,10.5-3.791C18.679,2.074,14.905.205,10.5.016S2.169,1.366,0,3.807" transform="translate(23.181 42.233)" fill="#f794ac"/><path d="M0,3.807C1.952,6.425,5.725,8.294,10.134,8.483s8.328-1.349,10.5-3.791C18.679,2.072,14.905.2,10.5.016S2.168,1.365,0,3.807" transform="translate(28.634 53.994)" fill="#f794ac"/><path d="M0,3.1C1.588,5.226,4.657,6.745,8.242,6.9s6.774-1.1,8.537-3.084C15.192,1.685,12.123.166,8.537.013S1.764,1.11,0,3.1" transform="translate(36.309 64.126)" fill="#f794ac"/><path d="M0,2.614A8.623,8.623,0,0,0,6.652,5.8a8.621,8.621,0,0,0,6.9-2.6A8.613,8.613,0,0,0,6.9.01,8.61,8.61,0,0,0,0,2.614" transform="translate(41.607 72.804)" fill="#f794ac"/><path d="M0,2.614A8.619,8.619,0,0,0,6.653,5.8a8.62,8.62,0,0,0,6.9-2.6A8.617,8.617,0,0,0,6.9.01,8.613,8.613,0,0,0,0,2.614" transform="translate(43.337 81.336)" fill="#f794ac"/><path d="M0,1.333A8.425,8.425,0,0,0,5.692,5.142a8.424,8.424,0,0,0,6.762-1.086A8.436,8.436,0,0,0,6.762.247,8.43,8.43,0,0,0,0,1.333" transform="translate(45.745 90.671)" fill="#f794ac"/><path d="M0,3.669a7.348,7.348,0,0,0,5.975.954,7.348,7.348,0,0,0,4.977-3.439A7.349,7.349,0,0,0,4.978.229,7.348,7.348,0,0,0,0,3.669" transform="translate(47.361 97.92)" fill="#f794ac"/><path d="M0,3.86a5.621,5.621,0,0,0,4.626-.133A5.616,5.616,0,0,0,7.878.436,5.617,5.617,0,0,0,3.252.568,5.622,5.622,0,0,0,0,3.86" transform="translate(50.74 104.404)" fill="#f794ac"/><path d="M0,2.456a3.245,3.245,0,0,0,2.886.052A3.248,3.248,0,0,0,4.818.362,3.25,3.25,0,0,0,1.932.311,3.249,3.249,0,0,0,0,2.456" transform="translate(53.713 108.38)" fill="#f794ac"/><path d="M0,2.455a3.245,3.245,0,0,0,2.886.052A3.245,3.245,0,0,0,4.817.362,3.246,3.246,0,0,0,1.932.311,3.246,3.246,0,0,0,0,2.455" transform="translate(53.924 111.105)" fill="#f794ac"/><path d="M16.581,19.765C21.192,13.008,26.049,6.409,31.232.073L31.147,0C25.832,6.236,20.837,12.741,16.08,19.416A234.444,234.444,0,0,0,2.83,40.149Q1.374,42.753,0,45.41c.358.2.716.4,1.07.608Q2.389,43.325,3.8,40.681A233.406,233.406,0,0,1,16.581,19.765" transform="translate(60.422 86.274)" fill="#f66d75"/><path d="M5.588,0A6.237,6.237,0,0,0,1.011,3.14,6.237,6.237,0,0,0,.386,8.655a6.234,6.234,0,0,0,4.578-3.14A6.236,6.236,0,0,0,5.588,0" transform="translate(91.189 77.729)" fill="#f66d75"/><path d="M.527,0A6.838,6.838,0,0,0,.577,5.394,6.836,6.836,0,0,0,4.167,9.42a6.843,6.843,0,0,0-.049-5.395A6.839,6.839,0,0,0,.527,0" transform="translate(83.571 81.675)" fill="#f66d75"/><path d="M0,2.653A6.844,6.844,0,0,0,5.261,3.845,6.836,6.836,0,0,0,10,1.274,6.84,6.84,0,0,0,4.743.084,6.834,6.834,0,0,0,0,2.653" transform="translate(83.671 93.886)" fill="#f66d75"/><path d="M0,2.654A6.841,6.841,0,0,0,5.261,3.845,6.837,6.837,0,0,0,10,1.275,6.838,6.838,0,0,0,4.742.084,6.837,6.837,0,0,0,0,2.654" transform="translate(78.569 100.472)" fill="#f66d75"/><path d="M0,2.653A6.84,6.84,0,0,0,5.26,3.845,6.839,6.839,0,0,0,10,1.275,6.835,6.835,0,0,0,4.742.084,6.836,6.836,0,0,0,0,2.653" transform="translate(75.104 105.718)" fill="#f66d75"/><path d="M0,2.653A6.84,6.84,0,0,0,5.262,3.845,6.837,6.837,0,0,0,10,1.274,6.841,6.841,0,0,0,4.743.084,6.839,6.839,0,0,0,0,2.653" transform="translate(71.261 111.509)" fill="#f66d75"/><path d="M.527,0A6.84,6.84,0,0,0,.577,5.395,6.837,6.837,0,0,0,4.167,9.42a6.841,6.841,0,0,0-.049-5.394A6.841,6.841,0,0,0,.527,0" transform="translate(79.13 87.326)" fill="#f66d75"/><path d="M.527,0A6.838,6.838,0,0,0,.577,5.394a6.838,6.838,0,0,0,3.59,4.025,6.838,6.838,0,0,0-.049-5.394A6.837,6.837,0,0,0,.527,0" transform="translate(74.885 93.142)" fill="#f66d75"/><path d="M.527,0A6.84,6.84,0,0,0,.577,5.395,6.841,6.841,0,0,0,4.167,9.42a6.841,6.841,0,0,0-.049-5.394A6.841,6.841,0,0,0,.527,0" transform="translate(70.845 99.005)" fill="#f66d75"/><path d="M.527,0A6.836,6.836,0,0,0,.577,5.393a6.836,6.836,0,0,0,3.59,4.026,6.841,6.841,0,0,0-.049-5.394A6.839,6.839,0,0,0,.527,0" transform="translate(66.93 104.75)" fill="#f66d75"/></g><g transform="translate(106.821 153.73)"><path d="M6.852,0A17.906,17.906,0,0,0,0,13.976H0A18,18,0,0,0,7.723,28.618h23.5a18,18,0,0,0,7.723-14.641h0A17.907,17.907,0,0,0,32.09,0H6.852Z" transform="translate(0 0)" fill="none"/><g transform="translate(0 0)" clip-path="url(#a)"><path d="M6.852,0A17.906,17.906,0,0,0,0,13.976H0A18,18,0,0,0,7.723,28.618h23.5a18,18,0,0,0,7.723-14.641h0A17.907,17.907,0,0,0,32.09,0H6.852Z" fill="url(#b)"/></g></g><g transform="translate(0 1)"><path d="M6.806.046C4.318-.41.985,2.54.124,8.47-1.05,20.174,6.4,23.611,10.469,20.64c-3.544-1.4-7.419-3.956-7.533-9.718A16.187,16.187,0,0,1,3.9,4.911a17.876,17.876,0,0,1,1.068-2.25A14.711,14.711,0,0,1,6.806.046" transform="translate(109.241 155.821)" fill="#f8e000"/><path d="M0,300.552H636.278V0H0Z" fill="none"/><g clip-path="url(#c)"><path d="M0,2.753H27.878V0H0Z" transform="translate(112.496 151.013)" fill="#0072c5"/><path d="M625.766,18.442c0,10.185-140.082,18.441-312.883,18.441S0,28.626,0,18.442,140.082,0,312.883,0,625.766,8.256,625.766,18.442" transform="translate(0 263.669)" fill="#5db9f4"/><path d="M38.743,0S28.605,20.037,29.276,25.958s2.841,10.7,1.019,18.79S13.934,82.216,13.6,87.578c-.139,2.261.532,2.47.532,2.47-.017,3.9-1.3,7.275-2.081,8.084-1.007,1.035-2.018,6.969-2.976,6.969s-9.063.919-9.063.919c-.216-1.9,2.269-.382,3.708-4.33s2.3-9.868,4.126-17.861,9.288-44.47,9.288-52.858-.75-8.427.5-13.955S23.579,1.128,23.579,1.128Z" transform="translate(430.175 175.946)" fill="#fd5e5a"/><path d="M20.023.656s-1.686,28.181-3.007,34.9S8.174,89.86,8.174,89.86L0,153.014l8.654,1.049,15.328-44.126L22.91,93.876,38.094,47.263,31.047.311,24.845,0Z" transform="translate(438.021 106.76)" fill="#6d3461"/><path d="M.577.074S1.872,14.55,3.6,18.843,3.936,79.98,2.5,84.569a14.252,14.252,0,0,1-1.2,2.725c-1.577,2.8-1.936,3.369.191,3.369,2.734,0,5.126-.543,5.654-1.7.91-1.992,1.7-8.846,3.569-8.846,0,0,1.268-2.557.945-3.9-.486-2.022-1.818-.977-1.818-3.789s8.921-45.594,7.482-51.811-2.446-6.956-2.446-14.358S.577.074.577.074" transform="translate(472.901 190.832)" fill="#fc7575"/><path d="M18.84,0S27.38,14.248,29.348,22.087s.945,68.662.945,68.662,3.395,12.5,3.395,18.52-4.951,46.047-4.951,46.047H18.071l-3.214-60.45-9.5-60.49L0,1.908Z" transform="translate(458.044 105.508)" fill="#9c638d"/><path d="M10.706,108.127C10.043,92,10.479,66.178,9.479,47.648,6.225,27.022,3.471,21.065,0,0,.233,1.553,3.05,20.816,5.4,35.793L7.251,47.717l0-.028c.692,13.817,2.444,44.9,3.458,60.437" transform="translate(465.409 152.698)" fill="#e09cd2"/><path d="M23.184,0s-5.409,25.017-8.126,27.969S5.927,45.5,5.927,45.5,0,48.635,0,52.069L1.415,54.5l2.729,1.14,1.364.8H6.977a19.6,19.6,0,0,1,2.308-7.2c1.889-3.056,9.748-10.465,13.9-20.493s9.251-25.5,9.251-25.5Z" transform="translate(425.61 84.087)" fill="#fd5e5a"/><path d="M4.813,13.459c-1.9,1.828-4.98,1.465-4.806,2.988,0,0,10.494-.462,11.453-.462s1.775-6.07,2.782-7.106.385,7.106.385,7.106h1.034S16.353,7.6,17.312,4.34c.763-2.594-.322-3.684-1.1-4.34-3.15,6.2-3.46,14.91-11.4,13.459" transform="translate(428.096 265.995)" fill="#332f44"/><path d="M10.885,14.705A47.308,47.308,0,0,1,19.237,0s1.953,16.744.769,22.762C19.269,26.5,11.79,54.926,8.9,61.335,7.028,60.279,2.052,55.9,0,55.253c.934-7.491,9.518-36.328,10.885-40.548" transform="translate(441.918 50.255)" fill="#b93100"/><path d="M.115,1.265,0,10.469l1,.025L2.246,0Z" transform="translate(482.179 270.629)" fill="#1a1722"/><path d="M6.914,1.7s4.52-3.6,19.749-.313c.745.161,1.871,18.181,1.871,18.181s-7.328,29.927-5.892,37.385A19.945,19.945,0,0,1,.454,59.5S3.065,34.491,1.9,29.264s-3.482-9.961-.238-15.4A62.541,62.541,0,0,0,6.914,1.7" transform="translate(454.241 48.557)" fill="#ffda88"/><path d="M6.847.141s5.166-.911,5.613,1.907-1.34,7.147-3.381,8.525C7.5,11.638,2.034,15.1.518,11.753S.725-.384,6.847.141" transform="translate(471.396 29.969)" fill="#000086"/><path d="M1.732,0C2.8,2.788,2.74,5.744,0,7.742L.591,8.6C3.3,6.133,3.284,2.991,1.732,0" transform="translate(479.445 31.191)" fill="#000065"/><path d="M6.413,5.188S6.1,9.939,6.145,13.812c.024,2.1-.793,3.494-1.3,5.066-.529,1.648-6.214,8.981-4.541,9.507,1.022.321,8.179-4.727,9.384-5.286,1.918-.892,3.817-2.536,5.535-3.455L12.534,0Z" transform="translate(462.099 30.419)" fill="#fc7575"/><path d="M6.369.229.248,5.417S.067,8.173,0,11.2A13.151,13.151,0,0,0,6.731,2.875C6.041-1.155,6.369.229,6.369.229" transform="translate(468.264 30.19)" fill="#fd5e5a"/><path d="M5.546,0A7.528,7.528,0,0,0,1.677,3.354C.274,5.905,1.016,9.593.2,11.873S1.021,25.609,6.036,25.9c6.277.366,8.782-9.067,9.446-10.918s.364-9.2-2.274-11.83S5.546,0,5.546,0" transform="translate(460.555 13.016)" fill="#fc7575"/><path d="M1.17,0A39.415,39.415,0,0,1,.292,4.822,2.935,2.935,0,0,0,2.01,5.2,2.755,2.755,0,0,1,0,4.958,40.89,40.89,0,0,1,1.17,0" transform="translate(463.635 25.964)" fill="#4f005e"/><path d="M0,.374A5.811,5.811,0,0,1,2.686.049C4.03.26,5.419,2.237,5.419,2.237S3.754.58,2.85.475A5.2,5.2,0,0,0,.94.7Z" transform="translate(468.244 23.131)" fill="#4f005e"/><path d="M4.7,1.68A4.835,4.835,0,0,0,2.9.113C1.841-.344,0,.729,0,.729S1.9.07,2.6.407A4.315,4.315,0,0,1,3.882,1.516Z" transform="translate(460.403 20.994)" fill="#4f005e"/><path d="M4.354,0C1.9,1.305.921,1.388,0,1.341,1.428,2.116,3.548,1.218,4.354,0" transform="translate(463.646 32.978)" fill="#fff"/><path d="M.008.962a.819.819,0,0,0,.876.753A.82.82,0,0,0,1.532.76.818.818,0,0,0,.657.006.822.822,0,0,0,.008.962" transform="translate(468.555 24.829)" fill="#4f005e"/><path d="M4.888,1.585C2.136-1.383.95.7,0,.828.768.895,1.67.1,2.506.337A12.407,12.407,0,0,1,4.888,1.585" transform="translate(467.126 24.715)" fill="#42004a"/><path d="M.016.974c.076.47.4.8.728.734s.531-.5.455-.966S.8-.056.47.008-.06.5.016.974" transform="translate(462.253 24.26)" fill="#4f005e"/><path d="M4.1,1.341C1.815-1.351.8.808,0,1.01c.644,0,1.409-.863,2.111-.7A8.743,8.743,0,0,1,4.1,1.341" transform="translate(460.579 24.179)" fill="#42004a"/><path d="M.047,2.12a1.769,1.769,0,0,0,2.319.827c1.047-.325,1.706-1.22,1.471-2A1.769,1.769,0,0,0,1.519.117C.472.442-.187,1.339.047,2.12" transform="translate(468.676 27.912)" fill="#fd5e5a"/><path d="M6.092,5.876C2.785,2.27.224,2.756,0,2.668a1.007,1.007,0,0,1,.179-.277C.755,1.583,2.766-.666,6.827.192c4.166.779,6.524,1.394,8.874,4.785,1.055,1.521,1.182,4.226.893,5.97-.527,3.188-1.948,3.61-1.722,6.889.217,3.14-6.629,5.113-6.629,5.113.137-.383.823-3.423,1.167-4.192a6.247,6.247,0,0,0,.14-4.838,2.35,2.35,0,0,1-1.666-.764C6.369,11.6,7.878,10.179,6.092,5.876" transform="translate(465.646 10.489)" fill="#0000bf"/><path d="M12.824.391a8.675,8.675,0,0,0-6,.324c-2.995,1.391-4.694,8.9-3.6,10.734s-5.636,2.665-2.271,3.6C5.721,16.385,15.657,1.749,12.824.391" transform="translate(455.188 11.015)" fill="#000086"/><path d="M7.691.2C3.127-.836-.452,2.273.046,6.306a2.282,2.282,0,0,0,.9,1.753l.437-.865C1.14,7.118.942,6.43.894,6.182.16,2.616,3.286-.455,7.691.2" transform="translate(459.173 12.077)" fill="blue"/><path d="M.205,1.5.91.534S2.152-.5,2.648.306C3.869,2.281,1.466,7.085.522,5.571S.205,1.5.205,1.5" transform="translate(474.285 23.873)" fill="#fc7575"/><path d="M.806.139S-.438,2.6.165,3.2,1.8-.851.806.139" transform="translate(474.829 24.711)" fill="#fd5e5a"/><path d="M10.961,0c-.825,5.148-4.1,15.326-6.015,15.334C2.356,15.343,2.2,15.2,2.217,13.4.64,16.2-1.154,17.636.975,17.636c2.732,0,7,.17,7.525-.983.911-1.992,1.408-9.526,3.278-9.526L11.2,16.4l.992.027S13.662,3.658,13.34,2.383A3.577,3.577,0,0,0,10.961,0" transform="translate(471.978 264.721)" fill="#332f44"/><path d="M0,0V20.832c0,.407,2.364.737,5.282.737s5.281-.331,5.281-.737V0Z" transform="translate(431.775 79.672)" fill="red"/><path d="M1.276,14.59h0A1.275,1.275,0,0,1,0,13.314V1.276a1.276,1.276,0,1,1,2.551,0V13.314A1.275,1.275,0,0,1,1.276,14.59" transform="translate(438.022 82.823)" fill="#bf0000"/><path d="M33.309,13.872c-.516,2.256-.857,7.586-3.1,7.448-6-.366-21.564-5.5-25.936-9.841C-1.369,5.883.2,4.512.2,4.512A2.445,2.445,0,0,0,1.607,2.9C2.079,1.559,3.908.518,4.885.047S8.169,2.78,8.355,3.19,8.966,10.4,12.6,10.662s14.938-.432,19.063.532a1.98,1.98,0,0,1,1.647,2.678" transform="translate(436.033 84.748)" fill="#ff6262"/><path d="M10.563.82c0,.454-2.364.821-5.281.821S0,1.274,0,.82,2.365,0,5.282,0s5.281.367,5.281.82" transform="translate(431.775 78.852)" fill="#720000"/><path d="M9.723.756c0,.417-2.176.756-4.861.756S0,1.173,0,.756,2.177,0,4.862,0,9.723.339,9.723.756" transform="translate(432.196 78.916)" fill="#5db9f4"/><path d="M14.7,0S5.855,8.5,7.486,21.259a130.751,130.751,0,0,1,1.2,21.076L.78,45.265,0,56.648s11.629,1.034,16.575-4.054S27.855,0,14.7,0" transform="translate(466.202 49.942)" fill="#f15900"/></g></g><path d="M0,85.486H67.507V0H0Z" transform="translate(99.274 182.934)" fill="url(#d)"/><g transform="translate(99.273 82.549)"><path d="M0,85.486H13.044V0H0Z" transform="translate(67.508 100.385)" fill="#901019"/><path d="M0,21.352H54.859V0L53.386,20.381Z" transform="translate(9.496 104.257)" fill="#901019"/><path d="M0,21.352H54.859V0L53.386,20.381Z" transform="translate(8.362 131.281)" fill="#901019"/><path d="M9.035,1.9c0,1.05-2.023,1.9-4.518,1.9S0,2.951,0,1.9,2.023,0,4.518,0,9.035.852,9.035,1.9" transform="translate(30.223 107.913)" fill="#901019"/><path d="M10.142,2.032c0,1.123-2.27,2.033-5.07,2.033S0,3.155,0,2.032,2.27,0,5.071,0s5.07.91,5.07,2.032" transform="translate(30.575 139.063)" fill="#901019"/><path d="M0,21.352H54.859V0L53.387,20.381Z" transform="translate(8.216 158.089)" fill="#901019"/><path d="M10.141,2.033c0,1.123-2.27,2.032-5.07,2.032S0,3.156,0,2.033,2.27,0,5.07,0s5.07.911,5.07,2.033" transform="translate(30.43 165.87)" fill="#901019"/><path d="M0,4.59H67.508V0H0Z" transform="translate(0 100.386)" fill="#a6393f"/><path d="M0,4.59H13V0H0Z" transform="translate(67.551 100.386)" fill="#350042"/><path d="M67.364,46.224H38.31c1.476,3.75,4.308,12.029,2.252,16.059-.265.5-.5.948-.727,1.367,4.583.878,7.74,2.7,7.74,4.817a.55.55,0,0,1-.02.11H19.8c0-.04-.01-.08-.01-.11,0-2.972,6.216-5.377,13.888-5.377,1.033,0,2.036.04,3,.12.345-.569.757-1.317,1.259-2.314,1.377-2.684-.914-10.174-2.822-14.672H0V0H67.364Z" transform="translate(59.594 0)" fill="#51427b"/><path d="M29.26,0,7.651,46.224H0L21.608,0Z" transform="translate(60.706 0)" fill="#c5c5e0"/><path d="M18.383,0,0,39.321V22.962L10.741,0Z" transform="translate(59.594 0)" fill="#c5c5e0"/></g><g transform="translate(137.874 156.943)"><path d="M284.765,111.478H0V5.74H30.672V0H51.484V5.74H198.175V.008H220.95V5.74h20.535V0h21.853V5.74h21.427V111.477ZM125.056,11.282v94.653H278.819V11.282Zm-119.11,0v94.653H120.263V11.282Z" transform="translate(0 0)" fill="none"/><g transform="translate(0 0)" clip-path="url(#e)"><path d="M284.765,111.478H0V5.74H30.672V0H51.484V5.74H198.175V.008H220.95V5.74h20.535V0h21.853V5.74h21.427V111.477ZM125.056,11.282v94.653H278.819V11.282Zm-119.11,0v94.653H120.263V11.282Z" transform="translate(0 0)" fill="url(#f)"/></g></g><g transform="translate(275.738 85.463)"><path d="M0,38.958H58.013V0H0Z" transform="translate(2.284 2.356)" fill="#998dc9"/><path d="M44.185,64.78H18.4a.408.408,0,0,0-.007-.044.31.31,0,0,1-.007-.057c0-.964.691-1.9,2-2.713a15.86,15.86,0,0,1,5.191-1.838c-.252-.468-.466-.88-.674-1.295-.83-1.651-.892-4.235-.184-7.68a48.692,48.692,0,0,1,2.277-7.483H0V0H62.582V43.671H29.96a49.5,49.5,0,0,0-2.455,7.574c-.678,2.987-.738,5.162-.171,6.289.418.831.813,1.566,1.174,2.185.938-.081,1.875-.122,2.784-.122,7.117,0,12.907,2.28,12.907,5.082a.292.292,0,0,1-.007.053.332.332,0,0,0-.006.047ZM4.569,4.713V38.959H58.013V4.713Z" transform="translate(0 0)" fill="#7f71a4"/><path d="M0,1.715H42.046V0H0Z" transform="translate(7.158 76.444)" fill="#1a1a1c"/><path d="M0,29.056H48.124V0H0Z" transform="translate(7.158 6.825)" fill="#c4bfe8"/><path d="M0,29.056H7.766V0H0Z" transform="translate(7.158 6.825)" fill="#6a707f"/><path d="M0,1.335H48.124V0H0Z" transform="translate(7.158 6.276)" fill="#6a707f"/></g><path d="M0,6.7H297.881V0H0Z" transform="translate(124.762 150.244)" fill="url(#g)"/><g transform="translate(206.068 1)"><path d="M0,45.681H9.307V0H0Z" transform="translate(380.504 187.759)"/><path d="M0,31.786H7.113V0H0Z" transform="translate(381.602 233.439)" fill="#414c6d"/><path d="M54.828,56.57h-18.3a30.2,30.2,0,0,1-10.942-2.021,28.3,28.3,0,0,1-8.935-5.51,25.63,25.63,0,0,1-6.024-8.173A23.68,23.68,0,0,1,8.418,30.859V30.2A5.552,5.552,0,0,0,4.173,25C1.415,24.251-.028,23.416,0,22.589c.036-1.05,2.408-2.08,6.86-2.978-1.361-2.78-2.325-4.9-2.329-6.832,0-2.015,1.069-3.732,3.481-5.569a33.411,33.411,0,0,1,13.907-5.9A78.719,78.719,0,0,1,37.689,0c3.066,0,6.057.092,8.949.182l.1,0c1.373.042,2.8.075,4.177.108A131.709,131.709,0,0,1,69.651,1.611c4.535.774,10.737,2.726,14.529,7.629a5.743,5.743,0,0,1,1.243,4.523c-.084.639-1.464,5.2-1.927,5.2h-.01a48.141,48.141,0,0,1,7.787,1.684c1.869.633,2.817,1.3,2.817,1.977,0,1.033-2.241,2.047-6.481,2.933a5.571,5.571,0,0,0-4.671,5.3,23.682,23.682,0,0,1-2.209,10.008A25.629,25.629,0,0,1,74.7,49.039a28.292,28.292,0,0,1-8.935,5.51A30.2,30.2,0,0,1,54.828,56.57ZM23.733,31.485c.042,3.622,2.485,7.023,6.879,9.577a33.227,33.227,0,0,0,16.433,3.963,33.227,33.227,0,0,0,16.433-3.963c4.394-2.554,6.837-5.955,6.879-9.577Z" transform="translate(336.119 138.777)" fill="#0089a9"/><path d="M76.289,13.046a2.417,2.417,0,0,0-2.552-2.253L42.851,1.448V0H34.009V1.27l-31.5,10.1A2.41,2.41,0,0,0,0,13.664v1.169H10.412v-2.7L34.956,5.774h1.619l.644,6.115H35.431A2.333,2.333,0,0,0,33,14.111v.721H44.424v-.721a2.334,2.334,0,0,0-2.43-2.222H40.126l.607-6.115H41.4L65.85,11.687l.052,2.7,10.41-.169Z" transform="translate(347.002 261.812)"/><path d="M38.04,45.295a43.321,43.321,0,0,1-10.825-1.3,22.011,22.011,0,0,1-9.375-4.723,6.382,6.382,0,0,1-2.053-3.1c0-.008-.008-.041-.018-.1-.438-2.447-2.157-10.686-5.9-14.025A32.191,32.191,0,0,0,.093,16.41c-.012-.07-.019-.14-.025-.2A10.541,10.541,0,0,1,2.664,7.8c2.565-2.876,7-4.98,13.173-6.253A81.4,81.4,0,0,1,30.9.116C33.534.08,36.207.059,38.505.041L40.149.027C41.572.014,43.043,0,44.506,0A104.287,104.287,0,0,1,56.022.524,44.268,44.268,0,0,1,67.054,3.078,18.581,18.581,0,0,1,73.365,6.91a11.413,11.413,0,0,1,2.788,4.154,9.284,9.284,0,0,1,.563,4.7,46.1,46.1,0,0,0-9.532,6.292c-1.449,1.294-1.883,3.666-2.386,6.413a25.124,25.124,0,0,1-2.615,8.364c-1.827,3.142-4.711,5.334-8.816,6.7A33.416,33.416,0,0,1,46,44.967c-2.718.261-5.49.312-7.6.326ZM16.963,28.284h0c.042,3.622,2.485,7.023,6.88,9.577a33.226,33.226,0,0,0,16.433,3.963,33.228,33.228,0,0,0,16.433-3.963c4.395-2.554,6.838-5.955,6.879-9.577Z" transform="translate(342.89 141.978)" fill="#00657d"/><path d="M20.228,10.915S19.649,0,16.821,0C10.9,0,.345,30.054.037,34.465c-.52,7.427,4.588,7.87,9.6,8.473,4.9.591,5.809-10.169,5.809-10.169Z" transform="translate(315.157 52.521)" fill="#00677f"/><path d="M.149,1.259,0,10.467l1.025.029L2.345,0Z" transform="translate(339.058 274.312)" fill="#1a1722"/><path d="M2.614.082s1.1,14.4,2.861,18.7S4.086,79.95,2.589,84.537a13.855,13.855,0,0,1-1.247,2.722c-1.634,2.795-2,3.365.185,3.372,2.814.009,5.28-.527,5.826-1.679.944-1.99,1.777-8.844,3.7-8.838,0,0,1.316-2.556.989-3.9-.5-2.025-1.871-.984-1.862-3.8s9.335-45.59,7.875-51.816-2.494-6.97-2.47-14.376S2.614.082,2.614.082" transform="translate(329.507 194.518)" fill="#fc7575"/><path d="M11.353,0C10.488,5.148,7.072,15.4,5.1,15.4c-2.667,0-2.823-.141-2.8-1.94C.661,16.249-1.189,17.679,1,17.685c2.814.009,7.2.195,7.75-.957.943-1.99,1.481-9.527,3.406-9.52l-.628,9.278,1.022.031s1.557-12.774,1.231-14.05A3.773,3.773,0,0,0,11.353,0" transform="translate(328.554 268.322)" fill="#332f44"/><path d="M40.232,0s-10.5,20.015-9.83,25.941,2.889,10.713.985,18.8-16.965,37.433-17.324,42.8c-.152,2.26.538,2.473.538,2.473-.031,3.9-1.248,8.072-2.057,8.877-1.041,1.033-2.211,6.171-3.2,6.167s-9.331.889-9.331.889c-.215-1.9,2.337-.375,3.833-4.321s2.4-9.866,4.3-17.859,9.709-44.463,9.737-52.856-.744-8.435.559-13.962S24.62,1.076,24.62,1.076Z" transform="translate(297.791 179.958)" fill="#fd5e5a"/><path d="M4.781,13.427C2.819,15.248-.165,14.875.007,16.4c0,0,10.8-.428,11.792-.425s1.847-6.067,2.887-7.1.372,7.111.372,7.111l1.065,0s.74-8.392,1.739-11.646C18.656,1.752,17.541.657,16.743,0c-3.263,6.188-3.8,14.906-11.963,13.427" transform="translate(295.649 269.975)" fill="#332f44"/><path d="M0,150.606s42.838,2.838,48.072-5.254c0,0,.112-20.529.942-36.025,1.163-21.688,7.517-69.961-2.208-92.058-1.6-3.628-7.248-13.515-7.248-13.515L23.389,0s-11.5,65.8-12.878,87.173S0,150.606,0,150.606" transform="translate(302.986 104.737)" fill="#743064"/><path d="M8.866.277S12.65-1.275,30.228,2.971l-.692,16.905S20.354,49.8,21.808,57.263c0,0-8.774,5.8-21.808-.621,0,0,3.269-21.921,2.084-27.154s-3.55-9.98-.194-15.411A132.231,132.231,0,0,0,8.866.277" transform="translate(323.112 52.244)" fill="#0089a9"/><path d="M2.185,42.127c.057-2.342.327-7.59.072-11.02-.394-5-4.692-10.673-.284-17.7C4.386,9.49,7.16,4.192,9.258.1l0-.014c.985-.185.06-.008.031.051L9.308.118C2.684,17.9-.631,14.653,2.094,25.537c1.006,4.033,1.833,5.132.091,16.59" transform="translate(322.696 52.414)" fill="#e0eee2"/><path d="M7.606,0c-2,1.393-3.3,3.409-7.606,4.63a74.691,74.691,0,0,0,8.161,5.611A57.55,57.55,0,0,0,9.365.391C9.27.429,7.705-.029,7.606,0" transform="translate(334.316 89.42)" fill="#fd5e5a"/><path d="M15.905,5.945A10.962,10.962,0,0,0,10.863.009c-4.348-.5-5.819,21.376-5.819,21.376L3.316,34.013c-.353.378-1.647.009-2.113.2A62.082,62.082,0,0,1,0,44.456c4.3,2.494,8.264,3.891,9.981,2.174,3.9-3.9,7.211-36.631,5.924-40.684" transform="translate(342.477 55.207)" fill="#0089a9"/><path d="M.23,9.559a24.28,24.28,0,0,1,2.63,2c.74.74,3.941,2.213,5.044,1.7s1.734-4.18,1.215-9.327S5.933.032,4.766.407A8.869,8.869,0,0,1,2.6.818S-.917,6.93.23,9.559" transform="translate(339.061 88.602)" fill="#00677f"/><path d="M11.945,3.926S9.908,1.261,9.057.409,7.094.187,5.8.928s-.667-.852-3.184,1A6.029,6.029,0,0,0,.429,9.036c.963,2.111,4.647,4.833,6.665,2.814s4.851-7.924,4.851-7.924" transform="translate(313.497 82.94)" fill="#00677f"/><path d="M21.674,9.041a78.325,78.325,0,0,0-9.266-.6c-.37,0-.581,0-.589,0a.228.228,0,0,1-.068.009.934.934,0,0,1-.2-.033l-.045-.011a1.389,1.389,0,0,0-.327-.044A1.022,1.022,0,0,0,11,8.388L10.85,8.3a5.208,5.208,0,0,0-1.976-.962,22.589,22.589,0,0,0-2.311.283,31.889,31.889,0,0,1-3.854.432,2.562,2.562,0,0,1-.652-.063c-.161-.046-.243-.118-.243-.214,0-.511,1.872-1.348,3.442-1.96A15.732,15.732,0,0,1,1.33,6.825c-.258,0-.413-.054-.46-.16a.341.341,0,0,1,.006-.3c.309-.658,2.492-1.263,4.086-1.7a5.6,5.6,0,0,0,1.7-.584.034.034,0,0,0-.011-.034.16.16,0,0,0-.111-.029A11.568,11.568,0,0,0,4.329,4.7l0,0-.569.205A13.035,13.035,0,0,1,.485,5.8a.61.61,0,0,1-.433-.119A.162.162,0,0,1,0,5.55c.01-.126.157-.29.449-.5l-.012,0H.4A.246.246,0,0,1,.2,4.974a.324.324,0,0,1-.069-.222c0-1.249,1.394-3.2,1.409-3.224C1.727,1.466,6,0,8.026,0a2.642,2.642,0,0,1,.545.048,25.078,25.078,0,0,1,2.474,1.729C13.558,3.619,17.763,6.7,21.675,9.04ZM5.174,2.018A5.834,5.834,0,0,0,2.5,3.034a3.238,3.238,0,0,0-.755.908,3.43,3.43,0,0,1-.448.6c.349-.188.75-.393,1.262-.647l.326-.159.01-.005C4.2,3.1,5.427,2.5,5.482,2.186a.109.109,0,0,0-.032-.1A.4.4,0,0,0,5.174,2.018Z" transform="translate(312.911 77.101)" fill="#fc7575"/><path d="M29.189.026c-.292,1.4-.244,5.582-.908,6.629,0,0-.72-.508-.956-.261h-.007c-2.361,1.257-5.7,4.724-12.2,6.108C8.721,13.842,0,14.534,0,10.192S4.365,3.479,7.134,3.479a94.084,94.084,0,0,1,9.859.717H17c5.516.693,11.61-4.609,12.185-4.17" transform="translate(317.596 81.947)" fill="#ff5353"/><path d="M7.547.027c-4.121-.092-4.192,18.9-7.547,34,.287-5.367,1.173-12.568,1.219-13.325C1.505,16.473,3.38-.768,7.547.027" transform="translate(345.793 55.189)" fill="#e0eee2"/><path d="M12.718,17.647l-3.529-1.26L1.467,14.6,0,0,12.061,9.67Z" transform="translate(344.45 38.997)" fill="#390047"/><path d="M15.853,0S12.715,15.581,7.3,18.521,1.329,21.172,0,20.341a4.6,4.6,0,0,0,2.81,3.813,4.606,4.606,0,0,0,.564.166c3.145.725-.93,2.259-2.707,2.345s4.548,4.806,8.167,5,13.4.75,15.909-11.845S15.853,0,15.853,0" transform="translate(320.813 22.737)" fill="#390047"/><path d="M5.4,5.191.608,18.485s-1.818,8.291.834,9.739,9.891-7.369,9.891-9.212S12.932,0,12.932,0Z" transform="translate(336.096 37.5)" fill="#fd5e5a"/><path d="M5.509,0A8.589,8.589,0,0,0,1.363,4.068C-.061,7.057.992,11.188.21,13.829s.4,16.67,7.383,15.507,9.326-10.881,9.961-13.026S17.417,5.859,14.3,3.05,5.509,0,5.509,0" transform="translate(333.683 15.328)" fill="#fc7575"/><path d="M0,2.656A6.252,6.252,0,0,1,1.9.431C3.123-.381,5.673.2,5.673.2S3.137.08,2.341.655A5.6,5.6,0,0,0,.985,2.232Z" transform="translate(338.458 25.899)" fill="#4f005e"/><path d="M4.116,1.759A4.683,4.683,0,0,0,2.437.114C1.455-.346,0,.737,0,.737S1.519.1,2.166.446a4.157,4.157,0,0,1,1.2,1.163Z" transform="translate(332.679 27.43)" fill="#4f005e"/><path d="M5.558.06C3.479.293,2.4.834,0,0A4.976,4.976,0,0,0,5.558.06" transform="translate(336.457 38.557)" fill="#fff"/><path d="M0,1.173C0,1.823.368,2.35.825,2.351s.831-.524.833-1.172S1.289,0,.833,0,0,.524,0,1.173" transform="translate(340.664 28.958)" fill="#4f005e"/><path d="M5.307,1.617C2.2-1.5,1.019.82,0,.994.831,1.036,1.767.129,2.681.356a13.439,13.439,0,0,1,2.626,1.26" transform="translate(339.143 28.906)" fill="#42004a"/><path d="M.008,1.029c.057.516.393.893.748.842s.6-.51.54-1.025S.905-.046.55,0s-.6.51-.541,1.025" transform="translate(334.155 30.133)" fill="#4f005e"/><path d="M4.3,1.877C2.374-1.461.887.658,0,.719.684.846,1.66.069,2.374.383A9.443,9.443,0,0,1,4.3,1.877" transform="translate(332.409 29.821)" fill="#42004a"/><path d="M0,1.608C0,2.5.952,3.225,2.134,3.229A1.932,1.932,0,0,0,4.276,1.622C4.279.729,3.324,0,2.142,0A1.931,1.931,0,0,0,0,1.608" transform="translate(342.17 31.304)" fill="#fd5e5a"/><path d="M.092,0A42.921,42.921,0,0,1,.362,5.329a3.167,3.167,0,0,0,1.905-.007,2.961,2.961,0,0,1-2.179.22A44.969,44.969,0,0,1,.092,0" transform="translate(336.542 30.403)" fill="#4f005e"/><path d="M5.329,0A8.589,8.589,0,0,0,1.183,4.068C-.241,7.057.783,11.392,0,14.033-.137,14.5,8.7,11.3,9.611.744A20.4,20.4,0,0,0,5.329,0" transform="translate(333.863 15.328)" fill="#fd5e5a"/><path d="M0,4.363C0,4.179,3.566-.586,8.671.06c6.1.773,11.705,7.145,12.069,13.648s.276,13.767,5.537,17.143,3.8,12.164.433,16.955-8.475,1.8-8.475,1.8,4.244-1.941,3.611-3.1c0,0-4.044,4.223-6.659,2.372a9.005,9.005,0,0,1-3.313-3.816s5.244.715,2.768-3.045c-1.724-2.62-2.369-4.739-4.121-8.825-1.675-3.908,2.177-11.906,1.7-18.608a2.68,2.68,0,0,1-1.592.108c-3.175-.59-1.108-2.424-3.046-6.649C3.39,3.715.335,4.475,0,4.363" transform="translate(337.538 12.184)" fill="#4f005e"/><path d="M7.542.008C2.287-.209-1.052,4.005.3,8.41a2.566,2.566,0,0,0,1.343,1.773l.313-1.056c-.286-.035-.641-.763-.745-1.031C-.308,4.262,2.539.181,7.542.008" transform="translate(331.148 15.51)" fill="#4f005e"/><path d="M13.626.282a9.683,9.683,0,0,0-6.718.778c-3.281,1.783-5.478,11.99-4.145,14S-2.6,16.6,1.161,17.719,16.886,1.63,13.626.282" transform="translate(329.647 12.963)" fill="#4f005e"/><path d="M3.738,0a23.2,23.2,0,0,0-3.5,7.2C-1.579,14.736,7.442,13.2,9.584,14a2.3,2.3,0,0,1,1.122,3.559,5.406,5.406,0,0,1-2.448,1.83,1.472,1.472,0,0,0-.183,2.395c1.383,1.294,3.929.044,3.933,2.437a4.765,4.765,0,0,1-2.542,4.195,4.892,4.892,0,0,0,3.081-4.18c.139-1.928-1.141-2.215-2.906-2.6-1.092-.247-1.329-.876-1.145-1.18.26-.626,1.82-.433,3.081-2.326a3.361,3.361,0,0,0-.3-4.321C8.284,10.651-1.99,15.774,1.622,4.838A30.6,30.6,0,0,1,3.738,0" transform="translate(352.051 29.2)" fill="#530068"/><path d="M.217,2.314S.942-.579,2.36.1s1.881,2.94.6,4.629S-.735,4.791.217,2.314" transform="translate(348.38 26.45)" fill="#fc7575"/><path d="M.021,1.777S.338-.033,1.04,0s.98,1.6.573,2.466-1.8.386-1.591-.689" transform="translate(349.028 27.603)" fill="#fd5e5a"/><path d="M.165,0,0,.8,2.107,27.21S12.693,43.132,16.45,46.89c3.716,3.715,9.163,0,9.163,0C18.59,36.561.165,0,.165,0" transform="translate(35.735 68.425)" fill="#fd5e5a"/><path d="M0,0,1.7,28.286,14.246,48.54s6.878-9.288,6.878-10.091c0-.708-12.758-31.159-17.023-34.4S0,0,0,0" transform="translate(35.899 68.425)" fill="#7d7da2"/><path d="M0,14.479,1.95,15.7S5.869,2.817,7.774,4.722a1.194,1.194,0,0,1,.127.16C7.675,3.2,6.246,1.74,5.592,0,3.826,3.249,0,14.479,0,14.479" transform="translate(27.705 246.316)"/><path d="M7.558,124.545c.541-1.772,4.9-8.586,10.547-17.192C29.942,89.341,47.5,63.258,47.5,59.3c0-5.945-13.556-24.562-20.112-32.028C23.106,22.4,9.328,4.8,9.328,4.8L.7,0S11.029,36.434,11.029,38.873s23.816,15.244,22.6,18.9S27.343,66.923,23.3,70.961c-2.549,2.55-7.666,17.27-11.822,28.514a6.273,6.273,0,0,1,.559.321c-.186-.108-.368-.225-.559-.321-2.43,6.573-4.532,11.959-5.6,13.027a9.707,9.707,0,0,1-2.744,2.022c-1.274.6-1.472,5.454-1.245,7.132C3.444,123.9,0,133.592,0,133.592l5.768,7.168c2.058-2.058.593-5.607.127-6.631-.85-1.863-.014-4.1,1.663-9.584" transform="translate(33.715 129.542)" fill="#fd5e5a"/><path d="M4.23,4.69,0,0C0,2.286,1.829,14.33,1.829,14.33h2.4s-1.422-11.061,0-9.64" transform="translate(58.804 265.673)"/><path d="M60.358,140.476c-2.9-.916-2.9-14.482-4.726-22.866-1.821-8.353-3.972-60.271-4.878-66.313C49.84,45.2,28.687,6.687,28.687,6.687L31.183,0C21.926,1.968,9.345,2.348,0,2.46,6.491,19.334,37.556,52.517,37.556,52.517s1.686,34.146,6.259,49.086c1.12,3.659,3.356,11.473,3.532,11.95,2.369,6.414,4.054,9.662,1.646,13.852-.988,1.719,2.182,8.614,2.182,8.614,1.175,2.475,1.854,6.834,3.455,8.435s8.638.864,8.638.864-.013-3.927-2.91-4.842" transform="translate(11.86 134.343)" fill="#fc7575"/><path d="M0,0C4.078.831,3.907,4.071,3.228,3.943c-.694-.129.516-.937-1-2.59A5.406,5.406,0,0,0,0,0" transform="translate(71.835 276.052)" fill="#9104b2"/><path d="M8.449,18.708C7.241,12.67,10.809,6.63,9.1,0,7.851.583,6.946.619,6.1,1.466,4.726,2.838,0,16.711,0,16.711l1.22.761S4.269,5.8,6.175,7.707,5.107,19.051,5.107,19.051l7.241,8.331c1.973-1.973.641-7.425-.681-9.03-1.839.737-2.731.644-3.217.356" transform="translate(27.705 244.084)" fill="#4f005e"/><path d="M13.636,13.16a3.356,3.356,0,0,1-4.577-1.14C6.078,7.846,6.58,2.516,2.047,0,1.06,1.716,0,2.252,0,3.925c0,2.286,1.83,14.33,1.83,14.33H3.255s-1.422-11.483,0-10.061,2.461,8.46,4.062,10.061,10.061,0,10.061,0-1.017-4.037-3.742-5.1" transform="translate(58.804 261.748)" fill="#4f005e"/><path d="M77.654,121.462c-1.5-6.239-41.948-50.736-41.948-50.736s-8.753-7.006-2.217-32.682c4.947-19.433,2.4-22.562-1.566-28.846-3.45-5.463-5.662-6.754-5.662-6.754S10.386-2.673,10.386,1.9s5.183,24.391,2.135,36.281C9.38,50.434-8.028,73.987,4.446,86.462c8.776,8.775,8.065,3.089,27.212,34.914a67.1,67.1,0,0,1,5.164,10.377Z" transform="translate(8.782 63.616)" fill="#4239a0"/><path d="M9.446,68.283C5.337,64.944,4.13,57.03,4.141,51.1a56.549,56.549,0,0,1,.505-6.9c3.859-22.113,7.649-25.551.775-37C4.14,4.965,1.882,1.425,0,0,2.282,1.393,4.654,4.559,6.169,6.729c8.3,12.169,3.578,18.583.1,37.71-.1,1.1-1.556,8.571-.276,15.648a16.565,16.565,0,0,0,3.454,8.2" transform="translate(35.042 66.06)" fill="#a6a6d8"/><path d="M23.218,0s6.284,13.461,7.7,25.56S24.612,80.91,16.894,83.72.825,83.04.037,80.835s11.2-27.342,15.527-34.076S17.39,9.086,17.39,6.656,23.218,0,23.218,0" transform="translate(0 61.769)" fill="#a6a6d8"/><path d="M5.828,0c4.772,9.41,8.95,20.981,8.71,31.532C14.1,44.609,8.14,78.654,0,83.485c6.2-4.561,10.761-33.616,11.72-41.249C13.461,29.362,14.018,21.306,5.828,0" transform="translate(17.39 61.769)" fill="#7d7da2"/><path d="M2.436,1.218A1.218,1.218,0,1,1,1.218,0,1.219,1.219,0,0,1,2.436,1.218" transform="translate(24.067 113.924)" fill="#7d7da2"/><path d="M2.436,1.218A1.218,1.218,0,1,1,1.218,0,1.218,1.218,0,0,1,2.436,1.218" transform="translate(22.004 121.724)" fill="#7d7da2"/><path d="M2.436,1.217A1.218,1.218,0,1,1,1.218,0,1.218,1.218,0,0,1,2.436,1.217" transform="translate(19.286 129.151)" fill="#7d7da2"/><path d="M45.449,30.822c-2.235-.682-3.17-4.795-3.333-5.937s.794-3.188,1.841-1.824,4.259,1.249,3.809.317S44.277,21.469,43.6,20.07s-1.817-4.729-4.371-5.508S10.734,6.81,10.267,3.194a8.477,8.477,0,0,1,.206-1.783A29.426,29.426,0,0,0,.369.033C.081,4.5,0,7.413,0,7.413c6.837,8.2,37.584,8.088,37.714,10.611s.766,10.125,1.357,11.348,5.45,7.18,5.747,6.426-1.155-3.037-1.155-3.037,3.056,3.268,3.876,2.873-3.274-3.882-3.274-3.882,3.545,2.026,4.238,1.691-.82-1.94-3.055-2.621" transform="translate(8.351 111.219)" fill="#fc7575"/><path d="M11.872,46.651c1.3-7.35,8.281-33.55,8.343-34.006C20.978,7.022,14.76.506,12.133,0,5.081,7.053.82,33.049,0,45.8c3.361-.177,8.608-.155,11.872.852" transform="translate(6.95 65.98)" fill="#b8b8e0"/><path d="M0,46.651c.606-4.209,1.553-8.357,2.484-12.5C7.456,12.324,8.577,13.315,7.765,9.582,6.655,5.076,2.633.747.26,0,2.77.529,7.079,4.63,8.47,9.4c.7,2.612.163,3.78-.5,6.439.148-.408-1.775,7.013-6.406,24.639C1.016,42.53.484,44.582,0,46.651" transform="translate(18.823 65.98)" fill="#e3e3f3"/><path d="M29.057,3.729S27.6,0,18.816,0,8.225,8.676,9.352,10.817s-.788,6.473-2.817,7.067S-.569,21.256,2.175,24,0,26.591,0,29.07s1.5,4.108,4.958,4.552,24.1-29.892,24.1-29.892" transform="translate(12.637 26.342)" fill="#31003d"/><path d="M9.25,8.187C7.017,16.2.923,13.472.083,20.356A12.4,12.4,0,0,0,1.689,27.97c2.395,4.1,7.134,2.334,7.134,2.334S5.363,28.326,6.036,27.49c0,0,3.04,3.733,5.5,2.58a7.377,7.377,0,0,0,3.278-2.6s-4.612-.021-2.063-2.675c1.775-1.849,4.57-3.7,6.528-6.685,1.46-2.23-.993-7.007-1.521-10.88A96.4,96.4,0,0,0,9.354,0c.031,2.732.641,5.513-.1,8.187" transform="translate(25.866 38.541)" fill="#31003d"/><path d="M14.4,6.569a12.6,12.6,0,0,0-3.86,6.375,23.244,23.244,0,0,0-.515,6.271,2.461,2.461,0,0,1-2.289,3.068,4.521,4.521,0,0,1-3.266-.793C2.787,20.261.3,18.157,0,15.842-.195,14.292,9.424,0,9.424,0Z" transform="translate(25.872 49.209)" fill="#fc7575"/><path d="M7.587,6.569,2.609,0S1.479,1.68,0,3.951c.869,2.623,2.246,5.3,4.459,6.8A13.5,13.5,0,0,1,7.587,6.569" transform="translate(32.687 49.209)" fill="#fd5e5a"/><path d="M12.322.04a7.492,7.492,0,0,1,3.116,3.992c.887,2.748-.5,6.2-.127,8.57S13.051,26.965,7.146,25.156.338,14.679.036,12.752,1.357,3.733,4.374,1.665,12.322.04,12.322.04" transform="translate(30.921 31.959)" fill="#fc7575"/><path d="M15.438,4.032A7.492,7.492,0,0,0,12.321.04S7.391-.4,4.373,1.665-.267,10.824.036,12.752c.231,1.473.812,6.88,3.708,10.157.3-3.358-2.09-8.337-1.1-13.122a6.627,6.627,0,0,0,2.222.276c2.729-.141-1.057-4.008,1.423-7.825C7.818,1.086,7.868.949,8.869.709c.327,3.084,3.315,8.462,6.4,11.552-.207-2.354,1.012-5.61.167-8.229" transform="translate(30.921 31.959)" fill="#fd5e5a"/><path d="M.73,0a38.969,38.969,0,0,0,.949,4.753A2.869,2.869,0,0,1,0,5.17a2.683,2.683,0,0,0,1.967-.291A40.532,40.532,0,0,0,.73,0" transform="translate(41.381 44.005)" fill="#4f005e"/><path d="M5.556.823A5.664,5.664,0,0,0,3.029,0C1.7-.047,0,1.616,0,1.616S1.9.317,2.793.384a5.085,5.085,0,0,1,1.8.577Z" transform="translate(33.719 40.981)" fill="#4f005e"/><path d="M0,1.216A4.7,4.7,0,0,1,2.015.029C3.118-.217,4.7,1.175,4.7,1.175s-1.713-1-2.446-.8a4.2,4.2,0,0,0-1.436.837Z" transform="translate(42.451 40.37)" fill="#4f005e"/><path d="M0,0C2.926.829,3.978.671,4.939.379,3.625,1.615,1.159,1.156,0,0" transform="translate(38.776 51.62)" fill="#fff"/><path d="M1.5.972a.808.808,0,0,1-.879.722A.808.808,0,0,1,.013.731.808.808,0,0,1,.893.009.808.808,0,0,1,1.5.972" transform="translate(37.086 42.842)" fill="#4f005e"/><path d="M0,1.5C2.788-1.366,3.886.73,4.813.877,4.059.923,3.2.111,2.372.326A12.243,12.243,0,0,0,0,1.5" transform="translate(35.188 42.728)" fill="#42004a"/><path d="M1.177.955c-.069.467-.385.8-.707.74S-.056,1.212.013.746.4-.051.72.006s.526.483.457.948" transform="translate(43.738 42.683)" fill="#4f005e"/><path d="M0,1.365C2.217-1.341,3.236.779,4.021.967,3.389.978,2.629.137,1.943.313A8.6,8.6,0,0,0,0,1.365" transform="translate(42.549 42.6)" fill="#42004a"/><path d="M3.847,1.792A1.756,1.756,0,0,1,1.7,2.928C.637,2.756-.115,1.968.014,1.17A1.754,1.754,0,0,1,2.166.034C3.225.205,3.977.993,3.847,1.792" transform="translate(34.916 46.502)" fill="#fd5e5a"/><path d="M22.4,5.673a9.412,9.412,0,0,1,4.6-2.076,10.011,10.011,0,0,1,1.123,0c.4.043.644.116.728.1a1,1,0,0,0-.122-.3,6.056,6.056,0,0,0-6-3.392c-.135,0-.269,0-.4.007a28.793,28.793,0,0,0-7.424.77A9.445,9.445,0,0,0,11.035,3C9.743,4.286,9.586,5.818,9.547,7.568c-.071,3.2.637,6.472-.177,9.621a11.7,11.7,0,0,1-5.341,7.385,7.647,7.647,0,0,0-3.934,6.19A14.867,14.867,0,0,0,1.639,39.2C4,43.725,8.757,41.726,8.757,41.726s-3.444-2.166-2.765-3.1c0,0,3.011,4.116,5.484,2.817a7.859,7.859,0,0,0,3.3-2.916s-4.614.014-2.042-2.951c1.793-2.066,4.6-4.14,6.588-7.47,1.093-1.835.09-4.948-.731-8.361-.063-.4-.231-1.092-.421-1.905a14.655,14.655,0,0,1-.185-5.7,2.334,2.334,0,0,0,1.364.277c1.569-.081,1.563-1.028,1.626-2.445a11.057,11.057,0,0,1,1.42-4.3" transform="translate(14.812 28.525)" fill="#4f005e"/><path d="M.719.052A8.442,8.442,0,0,1,6.436,1.5c2.63,1.918,2.9,9.544,1.519,11.126s4.941,3.654,1.532,3.934C4.653,16.954-2.255.841.719.052" transform="translate(40.975 30.02)" fill="#4f005e"/><path d="M10.408,0A20.25,20.25,0,0,1,12.6,6.629c.708,6.719-6.913,4.35-8.857,4.8a2.008,2.008,0,0,0-1.379,2.948c.548,1.184,1.409,1.43,1.906,1.863a1.284,1.284,0,0,1-.118,2.092c-1.345.96-3.4-.414-3.68,1.654A4.157,4.157,0,0,0,2.19,23.9,4.268,4.268,0,0,1,.006,19.933c.1-1.683,1.241-1.784,2.812-1.913.97-.087,1.249-.6,1.124-.889-.152-.571-1.524-.583-2.4-2.364a2.931,2.931,0,0,1,.759-3.7c2.949-2.384,11.24,3.227,9.376-6.642A26.762,26.762,0,0,0,10.408,0" transform="translate(16.894 42.08)" fill="#6a0084"/><path d="M0,0C4.584-.146,7.465,3.553,6.252,7.383A2.238,2.238,0,0,1,5.066,8.921L4.8,8c.25-.028.564-.66.657-.892C6.814,3.772,4.361.193,0,0" transform="translate(42.641 31.133)" fill="#6a0084"/><path d="M14.113,12.185S-1.3,32.815.088,34.2,7.117,37,11.633,31.211s4.516-13.714,6.8-17.493,5.118-2.637,6.436-3.953,1.536-6.916,1.536-8.452-5.377-1.951-7.327,0-4.965,10.873-4.965,10.873" transform="translate(53.521 82.162)" fill="#fd5e5a"/><path d="M10.563,0V18.123c0,.353-2.364.641-5.281.641S0,18.476,0,18.123V0Z" transform="translate(74.645 76.165)" fill="red"/><path d="M0,.7c0,.384,2.365.7,5.282.7s5.281-.312,5.281-.7S8.2,0,5.282,0,0,.313,0,.7" transform="translate(74.645 75.467)" fill="#720000"/><path d="M0,.642c0,.353,2.177.641,4.862.641S9.723,1,9.723.642,7.546,0,4.862,0,0,.288,0,.642" transform="translate(75.065 75.523)" fill="#5db9f4"/><path d="M0,0H2.049L1.025,14.654Z" transform="translate(81.739 78.392)" fill="#f99"/><path d="M25.59,38.935l2.864-2.007s-7.475-12.76-6.7-23.756c.406-5.8-8.762-14.358-11.2-13.035C10.4.077,2.412.32,1.7,19.275L0,41.482l8.638,7.941S14.08,39.737,21,43.993s9.048,4.13,9.048,4.13-4.461-7.145-4.461-9.189" transform="translate(134.119 9.942)" fill="#002b32"/><path d="M13.746,1.662S6.1-2.286,0,1.988L.576,6.708l6.3,13.914,6.02-1.4,2.916-14.68Z" transform="translate(140.052 45.677)" fill="#41001d"/><path d="M0,105.617s27.671-11.222,53.381-.335L41.569,0,18.947,5.294Z" transform="translate(119.37 86.93)" fill="#41001d"/><path d="M11.7,22.159C10.266,18.2,9.408,12.265,7.6,4.251,7.385,3.31,7.092,1.964,6.746.328,4.658-.709,1.973.947,0,2.049A39.91,39.91,0,0,1,1.879,8.01c.139,2.267-.527,2.476-.527,2.476.017,3.905,1.177,8.092,1.957,8.9,1,1.039,2.115,6.189,3.069,6.189s9,.922,9,.922c.214-1.905-2.256-.384-3.685-4.341" transform="translate(172.687 254.676)" fill="#fd5e5a"/><path d="M9.15,15.528C8.729,14.171,8.313,8.249,7.976.467,5.877.436,3.522-.311,1.3.15c.169,1.068.561,2.917.561,3.21,0,2.82-1.326,1.772-1.808,3.8-.321,1.348.94,3.912.94,3.912,1.858,0,2.641,6.87,3.545,8.867.524,1.156,2.9,1.7,5.618,1.7,2.113,0,1.757-.572.189-3.377A14.326,14.326,0,0,1,9.15,15.528" transform="translate(134 259.064)" fill="#fc7575"/><path d="M33.611,90.754C33.346,89.56,25.948,24.534,23.179.54L8.249,0,0,35.478,19.629,99.717c-.667,5.937-.409,10.725,1.4,18.838,1.495,6.7,7.623,29.082,11.291,39.316a108.111,108.111,0,0,1,10.16-4.06c-8.35-53.7-6.063-50.5-8.871-63.057" transform="translate(136.952 101.193)" fill="#730033"/><path d="M17.065,97.882l12.5-72.918L28.061,0H15.828S3.572,13.75.816,31.165,3.171,98.193,3.171,98.193a98.2,98.2,0,0,1-1.759,11.578c-1.282,5.586.984,40.614,2.447,49.853a85.881,85.881,0,0,1,11.1-.8c-.8-18.589-1.13-47.8.079-50.832.8-1.995,1.5-6.185,2.024-10.107" transform="translate(127.015 100.71)" fill="#904"/><path d="M20.228,3.611,0,3.156,2.511,0H20.228Z" transform="translate(140.331 100.71)" fill="#3a011a"/><path d="M42.183,5.346a16.067,16.067,0,0,1-1.692,2.183c-.681.754,2.323-3.8,2.454-4.584,1.187-7.1-2.049.608-3.153,2.7-.749,1.417-3.784,2.442-4.667,2.1,0,0-20.284,5.505-26.241,4.657-.535-.075-1.725-2.558-2.191-3.706A22.373,22.373,0,0,0,0,15.149a12.71,12.71,0,0,0,3.416,3.878c5.651,3.829,24-3.063,27.818-5.113s8.058-3.115,9.12-3.684S44.838,4.2,44.28,2.813c-.524-1.3-1.767,1.941-2.1,2.533" transform="translate(165.583 70.328)" fill="#fd5e5a"/><path d="M4.664.085S-.773,3.866.094,5.521s3.152,0,3.152,0S2.95,3.73,3.8,2.882,5.45-.494,4.664.085" transform="translate(197.106 74.939)" fill="#fd5e5a"/><path d="M18.869,31.93c.39-1,.953-2.194-.261-3.072-1.66-1.2-1.6-.332-1.6-2.994,0-2.486-.642-2.85-2.481-3.46-.065-.225-.131-.452-.2-.68C12.021,13.536,4.961,1.081,2.762.1S0,5.34,0,5.34,9.973,39.532,10.46,39.928c0,0,1.9,2.832,2.431,3.489l6.453-9.2-.428-2.242c-.016-.015-.032-.028-.047-.043" transform="translate(155.122 48.51)" fill="#570027"/><path d="M2.116,1.269,2.23,10.5l-.988.025L0,0Z" transform="translate(134.184 269.809)" fill="#1a1722"/><path d="M21.48,1.7S16.989-1.909,1.859,1.389C1.119,1.551,0,19.617,0,19.617S5.044,47.865,3.617,55.341c0,0,10.646,9.171,23.246,2.785,0,0-1.559-23.547-.4-28.787s3.459-9.987.236-15.44A62.957,62.957,0,0,1,21.48,1.7" transform="translate(135.821 47.175)" fill="#7f71a4"/><path d="M5.647.065a5.822,5.822,0,0,1-.822,1.1C4.312,1.7,0,3.18,0,3.18L2.572,1.623s3.075-2,3.075-1.559" transform="translate(158.115 103.866)" fill="#fd5e5a"/><path d="M2.479,0c.818,5.161,4,15.584,5.905,15.59,2.574.009,2.724-.132,2.71-1.935,1.569,2.805,3.35,4.243,1.236,4.243-2.716,0-6.953.172-7.478-.985-.9-2-1.4-9.55-3.257-9.55l.578,9.3-.987.027S-.274,3.886.046,2.608A4.1,4.1,0,0,1,2.479,0" transform="translate(133.25 263.669)" fill="#332f44"/><path d="M12.855,13.494c1.887,1.833,4.768,1.468,4.6,3,0,0-10.426-.465-11.379-.465S4.309,9.941,3.308,8.9s-.38,7.123-.38,7.123H1.9S1.212,7.617.259,4.351C-.5,1.751.579.658,1.352,0c3.129,6.212,3.617,14.948,11.5,13.494" transform="translate(172.687 265.163)" fill="#332f44"/><path d="M21.328,0s10,102.459-.57,132.262c-6.166,17.387-12.206,18.784-16.169,16.931A8.421,8.421,0,0,1,0,141.407C.107,130.075,1.032,93.49,8.291,68.034,17.1,37.154,12.8,33.314,12.8,28.208c0-8.845,1.322-21.68,3.326-26.72C16.4.79,21.328,0,21.328,0" transform="translate(118.724 47.664)" fill="#731b43"/><path d="M9.976,2.374c1.7-.031,3.969.5,7.134.855.294.033.122-.243.441-.207C14.29-.217,1.913-1.941,1.2,3.569-3.681,41.125,8.256,111.479,3.236,135.61,14.747,111.382,12.364,45.548,5.571,7.877c-.594-3.3,1.177-5.444,4.406-5.5" transform="translate(136.247 44.317)" fill="#ab909c"/><path d="M4.813,93.294C5.751,63.233,3.5,26.968,0,0,6.038,26.594,8.358,65.036,4.813,93.294" transform="translate(141.818 52.194)" fill="#ddd3d7"/><path d="M0,0C6.959,8.167,9.827,141.758,18.953,144.874c0,0-.506-39.027-.506-48.835S14.3,21.349,12.312,15.9,4.086,1.276,4.086,1.276Z" transform="translate(153.798 47.338)" fill="#731b43"/><path d="M1.062.489C.782.209-.073-.125,0,.047,3.993,8.886,5.883,89.256,15.278,130.479,14.007,113.35,9.075,9.139,1.062.489" transform="translate(152.736 46.85)" fill="#ab909c"/><path d="M0,1.307.582.874A10.4,10.4,0,0,0,4.021.382c1.017-.519,2.26-.5,1.8,0s-2.757,1.043-2.3,2.335S0,1.307,0,1.307" transform="translate(151.515 109.828)" fill="#fc7575"/><path d="M41.809,14.249a19.606,19.606,0,0,1-2.315.733c-.958.342,4.332-2.079,4.332-2.875s-4.43,1.641-5.717,2.21c-1.466.647-3.8-.482-4.412-1.2,0,0-18.253-6.355-23.1-9.922A4.666,4.666,0,0,1,9.174,0,22.386,22.386,0,0,0,.22,2.521c.033,1.985-.512,4.409,0,5.386,3.164,6.048,23.767,8.315,28.1,8.315s8.572,1.073,9.777,1.073,6.8-3.184,6.969-4.673c.157-1.4-2.683,1.261-3.254,1.627" transform="translate(118.399 97.588)" fill="#fc7575"/><path d="M14.26,31.919c3.164-3.708,4.262-13.565,4.262-20.49A55.785,55.785,0,0,0,17.48,0S10.455-.287,6.547,7.512c-4.1,8.188-9.662,16.6-4.4,42.935,2.775-1.548,6.987-1.72,10.1-2.01.716-6.626-.66-13.394,2.008-16.518" transform="translate(115.322 49.151)" fill="#ad004d"/><path d="M.282,2.817s-.633,2.1,0,2.785S.142,7.855.563,8.731s7.3-1.409,10.556-2.369,1.236-2.128.848-3.38.052-1.9-.695-2.712S.857.521.282,2.817" transform="translate(116.64 94.929)" fill="#ce6090"/><path d="M0,2.366C2.479,1.334,7.152-.339,9.78.061c.412.063.309.748-.1.658-.066,0-1.366-.434-4.857.307A41.138,41.138,0,0,0,0,2.366" transform="translate(117.765 98.415)" fill="#de94b5"/><path d="M9.275,1.807a26.342,26.342,0,0,1-.144,4.321A68.459,68.459,0,0,0,9.608,15.5s3.667,14.929,1.175,15.238C8.616,31.011.667,18.062.235,16c-.58-2.774.1-16,.1-16Z" transform="translate(142.148 32.512)" fill="#fc7575"/><path d="M8.965,6.2C5.656,9.3,2.51,7.776,0,3.881.057,1.919.129.114.132,0L9.109,1.873A26.36,26.36,0,0,1,8.965,6.2" transform="translate(142.314 32.447)" fill="#fd5e5a"/><path d="M10.875.186s4.19.828,4.688,4.557,1.2,6.835.5,11.184S12.87,26.076,8.78,27.008.4,20.9.4,17.067-1.1,6.814,1.7,2.879,10.875.186,10.875.186" transform="translate(139.504 10.67)" fill="#fc7575"/><path d="M0,0A16.265,16.265,0,0,0,5.471,1.022a6,6,0,0,1-.631.966,16.133,16.133,0,0,1-4.362-.8A7.761,7.761,0,0,1,0,0" transform="translate(145.647 30.913)" fill="#fff"/><path d="M0,0A16.171,16.171,0,0,0,4.362.8C2.8,2.733,1.148,2.265,0,0" transform="translate(146.126 32.1)" fill="#2e0028"/><path d="M10.275,5.879c.452,3.379,1.068,6.248.66,9.993a11.394,11.394,0,0,0-2.946-1.415C4.27,13.186,0,8,0,2.927c1.939-6,9.661-1.639,10.275,2.952" transform="translate(144.793 9.534)" fill="#fd5e5a"/><path d="M2.035,3.58A35.622,35.622,0,0,1,1.857,0c.255,1.519.315,2.626.4,3.728A3.166,3.166,0,0,1,0,3.9,3.7,3.7,0,0,0,2.035,3.58" transform="translate(148.384 24.827)" fill="#172866"/><path d="M4.684,1.6A2.318,2.318,0,0,0,3.142.045C1.774-.326.939,1.719,0,1.7.673,2.058,1.752.863,2.492.557A1.313,1.313,0,0,1,3.646.7a3.575,3.575,0,0,1,1.039.9" transform="translate(143.466 23.115)" fill="#172866"/><path d="M0,.781a.731.731,0,0,0,.665.783A.732.732,0,0,0,1.332.781.731.731,0,0,0,.665,0,.73.73,0,0,0,0,.781" transform="translate(145.673 23.317)" fill="#172866"/><path d="M0,1.512A2.314,2.314,0,0,1,1.609.031c1.383-.306,2.129,1.775,3.067,1.8C3.987,2.157,2.961.913,2.234.574A1.308,1.308,0,0,0,1.076.663,3.56,3.56,0,0,0,0,1.512" transform="translate(151.192 23.647)" fill="#172866"/><path d="M1.331.813a.727.727,0,0,1-.7.749A.732.732,0,0,1,0,.75.726.726,0,0,1,.7,0a.733.733,0,0,1,.631.812" transform="translate(152.363 23.848)" fill="#172866"/><path d="M5.458,1.5c.15-.1-1.045-1.347-2.477-1.487S0,1.5,0,1.5,2.111.189,3,.611,4.633,2.053,5.458,1.5" transform="translate(143.177 19.903)" fill="#172866"/><path d="M28.143.036C25.09.4,20.25-.377,18,4.8a40.843,40.843,0,0,0-4.059,18.67C13.938,38.468,0,45.107,0,45.107l6.11,3.063,3.647-3.063L7.27,50.614l10.017,1.039.425-7.185,2.071,8.169,6.015-.985s-3.179-24.546-3.382-33.815l.051.061s-.042-1.192-.044-2.728c0,0,0-.007,0-.01.024-.451.027-.913.01-1.38a29.265,29.265,0,0,1,.283-4.062A5.831,5.831,0,0,1,26.258,4.8c2.194-1.088,10.054,2.009,10.054,2.009C36.041,2.087,31.2-.327,28.143.036" transform="translate(118.534 7.662)" fill="#1b2b80"/><path d="M5.977.158c3.841.88,5,7.015,8.142,10.277s2.344,7.974.849,11.081-3.9,1.087-3.9,1.087,1.252.724,2.05-1.864-.6-4.609-4.838-6.058S0,4.067,0,4.067C-.1,2.275,2.137-.722,5.977.158" transform="translate(144.789 8.395)" fill="#2f499f"/><path d="M11.068,18.537c1.456.881,3.51-2.821,2.013-5.238C11.992,11.43,9.6,10.643,7.694,9.822,4.669,8.019,1.762,3.041,0,0,1.278,3.629,3.985,8.664,7.251,10.67l.785.352c.807.338,3.264,1.025,4.45,2.685a4.119,4.119,0,0,1-.135,4.285,1.112,1.112,0,0,1-1.284.545" transform="translate(144.792 12.461)" fill="#003135"/><path d="M3.558,3.828S2.489-.98.712.181.844,6.665,2.5,6.665,3.558,3.828,3.558,3.828" transform="translate(138.243 22.2)" fill="#fc7575"/><path d="M.958.1s2.624,4.37.823,3.888S-.73-.71.958.1" transform="translate(139.116 23.289)" fill="#fd5e5a"/><path d="M3.848,1.886c-.183.569-1.185.733-2.241.367S-.154,1.13.029.561,1.214-.171,2.269.195,4.03,1.318,3.848,1.886" transform="translate(142.854 25.628)" fill="#fd5e5a"/><path d="M3.349.75c.079.541-.6,1.1-1.527,1.245S.086,1.822.006,1.28.611.181,1.534.036,3.27.21,3.349.75" transform="translate(151.858 26.479)" fill="#fd5e5a"/><path d="M5.348,42.363a.481.481,0,0,1-.1-.009.521.521,0,0,1-.4-.609C8.954,19.516.141.937.053.753A.526.526,0,0,1,.28.056.5.5,0,0,1,.958.289c.091.188,9.055,19.064,4.886,41.651a.51.51,0,0,1-.5.423" transform="translate(284.952)" fill="#3c4875"/><path d="M.506,31.178a.5.5,0,0,1-.2-.044.505.505,0,0,1-.259-.666C5.961,17.1.092.843.031.681A.506.506,0,0,1,.981.331C1.042.5,7.051,17.141.969,30.877a.506.506,0,0,1-.463.3" transform="translate(372.241 37.612)" fill="#3c4875"/><path d="M.506,29.712A.505.505,0,0,1,0,29.207C0,2.1,22.754.023,22.985,0a.5.5,0,0,1,.543.465.506.506,0,0,1-.465.544c-.9.071-22.052,2.044-22.052,28.194a.5.5,0,0,1-.505.505" transform="translate(4.682 14.2)" fill="#3c4875"/></g></g></svg>