<svg xmlns="http://www.w3.org/2000/svg" xmlns:xlink="http://www.w3.org/1999/xlink" width="585.214" height="353.853" viewBox="0 0 585.214 353.853"><defs><clipPath id="a"><path d="M0,353.852H585.214V0H0Z" fill="none"/></clipPath><clipPath id="b"><path d="M9.308,0C3.616,2.916,0,7.257,0,12.105H0c0,5.179,4.119,9.776,10.489,12.681H42.4c6.37-2.9,10.488-7.5,10.488-12.681h0c0-4.849-3.614-9.19-9.307-12.105H9.308Z" fill="none"/></clipPath><linearGradient id="c" y1="0.5" x2="1" y2="0.5" gradientUnits="objectBoundingBox"><stop offset="0" stop-color="#f24949"/><stop offset="1" stop-color="#ffc16e"/></linearGradient><clipPath id="e"><path d="M9.39,0C3.647,2.916,0,7.257,0,12.106H0c0,5.179,4.155,9.778,10.583,12.681h32.2c6.428-2.9,10.583-7.5,10.583-12.681h0c0-4.849-3.647-9.19-9.39-12.106H9.39Z" fill="none"/></clipPath><linearGradient id="h" x1="0.495" y1="5.051" x2="0.5" y2="0.411" gradientUnits="objectBoundingBox"><stop offset="0" stop-color="#690252"/><stop offset="1" stop-color="#b8004b"/></linearGradient></defs><g transform="translate(0 -0.498)"><g transform="translate(0 0.498)"><path d="M471.2,14.5c0,8.009-105.48,14.5-235.6,14.5S0,22.512,0,14.5,105.481,0,235.6,0,471.2,6.494,471.2,14.5" transform="translate(25.092 316.41)" fill="#468bb7"/><path d="M0,353.852H585.214V0H0Z" fill="none"/><g clip-path="url(#a)"><path d="M0,128.26H4.358V0H0Z" transform="translate(410.131 202.602)" fill="#743064"/><path d="M0,12.593H9.143V0H0Z" transform="translate(266.775 241.95)" fill="#303030"/><path d="M0,61.182H7.96V0H0Z" transform="translate(267.189 245.384)" fill="#56585e"/><path d="M38.124,20.308,0,0V9.252L27.336,20.308v2.031H38.124Z" transform="translate(276.404 297.845)" fill="#0a2126"/><path d="M10.339,16.7H0V0H10.339Z" transform="translate(266.065 290.4)" fill="#0a2126"/><path d="M0,20.308,38.124,0V9.252L10.788,20.308v2.031H0Z" transform="translate(227.941 297.845)" fill="#0a2126"/><path d="M2.552,0V22.338H0v1.579H11.2V22.338H8.831L9.573,0Z" transform="translate(265.204 297.845)" fill="#0a2126"/><path d="M48.55,86.452H10.658L.248,22.059A19.029,19.029,0,0,1,19.045,0H40.165a19.03,19.03,0,0,1,18.8,22.059Z" transform="translate(239.364 124.673)" fill="#004555"/><path d="M15.551,0,0,6.163,9.55,45.924l4.179-.619L9.15,10.671l8.267-3.552Z" transform="translate(229.305 179.169)" fill="#1e0c00"/><path d="M3.06,0,16.372,9.227,14.159,47.982l-5.373-1,1.879-33.419L0,7.312Z" transform="translate(288.988 179.169)" fill="#1e0c00"/><path d="M70.9,7.021H0V0H63.877A7.024,7.024,0,0,1,70.9,7.021" transform="translate(238.455 224.474)" fill="#0089a9"/><path d="M30.247.2s-1.5,16.8,3.122,21.425,5.285,4.5,6.89,4.052a4.879,4.879,0,0,1-4.012,3.035,5.077,5.077,0,0,1-.624,0c-3.421-.211.268,2.578,2.051,3.2s-3.565,1.336-7.31.445C28.056,31.81,4.08,32.108.345,28.793-1.981,26.728,8.2,16.378,8.681,11.169,9.922-2.407,30.247.2,30.247.2" transform="translate(255.502 98.093)" fill="#3c1047"/><path d="M3.513,0A45.563,45.563,0,0,0,.3,10.134c-.975,5.415.5,15.021,3.212,19.043S6.495,34.7,8.943,34.7s12.238-4.3,13.112-14.259S4.222,0,4.222,0Z" transform="translate(330.479 96.836)" fill="#fd5e5a"/><path d="M36.081,11.8s-6.289-2.871-8.231-4.81S19.774,0,16.668,0-1.967,6.949.208,7.746,14.339,4.974,14.339,4.974.363,10.716,2.848,11.8,12.942,9.94,12.942,9.94,9.059,11.8,9.059,13.2s5.694-1.4,8.981-1.4,11.984,5.431,11.984,5.431Z" transform="translate(399.053 170.193)" fill="#fc7575"/><path d="M11.374,2.348A7.711,7.711,0,0,1,5.61,4.279,7.71,7.71,0,0,1,0,1.938,7.7,7.7,0,0,1,5.763.007a7.71,7.71,0,0,1,5.61,2.341" transform="translate(458.451 264.945)" fill="#af9be2"/><path d="M2.2,131.142A206.736,206.736,0,0,1,.028,97.763c.047-5.575.352-11.143.8-16.695.424-5.555,1.1-11.085,1.874-16.6A307.062,307.062,0,0,1,9.282,31.761q2.086-8.077,4.608-16.032C15.576,10.429,17.379,5.173,19.46,0l.656.268C18.117,5.424,16.378,10.7,14.765,16s-3.074,10.652-4.391,16.035A304.564,304.564,0,0,0,4.226,64.681c-.7,5.492-1.308,11-1.66,16.518-.37,5.52-.605,11.049-.582,16.577a204.588,204.588,0,0,0,2.563,33Z" transform="translate(494.007 186.747)" fill="#af9be2"/><path d="M6.55,0C3.4,1.9.887,5.921.188,10.841s.594,9.482,3.093,12.181c3.153-1.9,5.665-5.921,6.362-10.841S9.049,2.7,6.55,0" transform="translate(510.164 164.587)" fill="#af9be2"/><path d="M.07.018C-.316,2.865.9,6.362,3.562,9.2s6.07,4.279,8.939,4.079c.385-2.847-.838-6.344-3.494-9.176S2.938-.181.07.018" transform="translate(498.074 181.524)" fill="#af9be2"/><path d="M0,7.046C2.415,8.607,6.1,8.991,9.8,7.8s6.458-3.666,7.5-6.345C14.882-.11,11.2-.493,7.5.7S1.04,4.368,0,7.046" transform="translate(510.824 189.333)" fill="#af9be2"/><path d="M0,7.047C2.414,8.607,6.1,8.991,9.8,7.8s6.457-3.666,7.5-6.345C14.881-.109,11.194-.493,7.5.7S1.04,4.369,0,7.047" transform="translate(507.498 199.814)" fill="#af9be2"/><path d="M0,7.047C2.415,8.607,6.1,8.991,9.8,7.8s6.457-3.666,7.5-6.345C14.883-.109,11.2-.493,7.5.7S1.042,4.368,0,7.047" transform="translate(503.723 212.321)" fill="#af9be2"/><path d="M0,7.046C2.414,8.607,6.1,8.991,9.8,7.8s6.458-3.666,7.5-6.345C14.881-.11,11.195-.493,7.5.7S1.039,4.368,0,7.046" transform="translate(501.193 223.968)" fill="#af9be2"/><path d="M17.3,7.047c-2.413,1.561-6.1,1.944-9.8.748S1.041,4.13,0,1.451C2.415-.109,6.1-.493,9.8.7s6.458,3.666,7.5,6.345" transform="translate(484.949 221.61)" fill="#af9be2"/><path d="M.07.018C-.316,2.866.906,6.363,3.563,9.2s6.069,4.279,8.938,4.079c.385-2.847-.838-6.344-3.494-9.176S2.937-.181.07.018" transform="translate(494.686 192.606)" fill="#af9be2"/><path d="M.07.018C-.316,2.866.906,6.362,3.563,9.194s6.069,4.279,8.938,4.079c.385-2.847-.838-6.344-3.494-9.176S2.938-.182.07.018" transform="translate(490.804 205.195)" fill="#af9be2"/><path d="M72.805,0A116.059,116.059,0,0,0,59.043,9.117,154.67,154.67,0,0,0,46.455,19.8,155.972,155.972,0,0,0,24.917,44.827,154.26,154.26,0,0,0,9.134,73.885,160.6,160.6,0,0,0,0,105.719l2.339.391a158.453,158.453,0,0,1,8.525-31.536A152.55,152.55,0,0,1,26.035,45.587a161.016,161.016,0,0,1,9.827-13.14A162.457,162.457,0,0,1,47.037,20.409,153.857,153.857,0,0,1,59.4,9.579,115.788,115.788,0,0,1,72.96.291Z" transform="translate(494.574 215.919)" fill="#af9be2"/><path d="M19.031.387c-.258,3.669-2.7,7.734-6.767,10.593S3.542,14.765,0,13.768C.258,10.1,2.7,6.034,6.768,3.176S15.489-.609,19.031.387" transform="translate(566.182 203.093)" fill="#af9be2"/><path d="M5.466,0c2.716,2.481,4.387,6.92,4.1,11.881s-2.452,9.18-5.434,11.335C1.416,20.733-.253,16.3.031,11.334S2.484,2.155,5.466,0" transform="translate(552.36 200.37)" fill="#af9be2"/><path d="M2.64,0C5.918,1.67,8.711,5.5,9.758,10.361s.083,9.5-2.218,12.371C4.26,21.062,1.468,17.228.421,12.37S.339,2.87,2.64,0" transform="translate(539.02 208.481)" fill="#af9be2"/><path d="M2.64,0C5.919,1.67,8.711,5.5,9.759,10.361s.082,9.5-2.219,12.371c-3.279-1.67-6.072-5.5-7.119-10.362S.338,2.87,2.64,0" transform="translate(528.113 218.506)" fill="#af9be2"/><path d="M.935,0c3.6.775,7.277,3.768,9.534,8.2s2.511,9.163,1.022,12.527c-3.6-.776-7.279-3.769-9.535-8.2S-.555,3.363.935,0" transform="translate(517.265 228.81)" fill="#af9be2"/><path d="M.116.008C3.4-.132,7.256,1.626,10.2,4.945s4.237,7.354,3.708,10.6c-3.283.14-7.14-1.618-10.087-4.937S-.413,3.249.116.008" transform="translate(509.241 241.703)" fill="#af9be2"/><path d="M.116.008C3.4-.132,7.256,1.626,10.2,4.946s4.238,7.354,3.708,10.6c-3.282.139-7.139-1.618-10.087-4.938S-.413,3.25.116.008" transform="translate(502.826 249.814)" fill="#af9be2"/><path d="M.1.007c2.815-.12,6.12,1.387,8.647,4.232s3.631,6.3,3.179,9.083C9.11,13.44,5.8,11.934,3.278,9.089S-.354,2.785.1.007" transform="translate(499.179 261.779)" fill="#af9be2"/><path d="M0,.94A9.74,9.74,0,0,1,8.078.8,9.74,9.74,0,0,1,13.97,6.323a9.75,9.75,0,0,1-8.081.144A9.735,9.735,0,0,1,0,.94" transform="translate(495.723 273.32)" fill="#af9be2"/><path d="M0,2.182A7.8,7.8,0,0,1,6.1.009,7.8,7.8,0,0,1,11.986,2.7a7.8,7.8,0,0,1-6.1,2.173A7.805,7.805,0,0,1,0,2.182" transform="translate(494.287 282.361)" fill="#af9be2"/><path d="M21.994,9.323c-3.13,1.936-7.857,2.334-12.558.709S1.263,5.176,0,1.721C3.13-.214,7.859-.611,12.558,1.012s8.173,4.857,9.436,8.31" transform="translate(556.459 221.476)" fill="#af9be2"/><path d="M21.993,9.323c-3.128,1.936-7.857,2.333-12.558.708S1.264,5.175,0,1.722C3.13-.214,7.859-.612,12.558,1.013s8.171,4.856,9.435,8.31" transform="translate(546.533 229.639)" fill="#af9be2"/><path d="M21.993,9.323c-3.128,1.936-7.857,2.333-12.558.708S1.264,5.175,0,1.722C3.129-.215,7.859-.611,12.558,1.012s8.171,4.856,9.435,8.31" transform="translate(535.951 239.703)" fill="#af9be2"/><path d="M17.887,7.583c-2.545,1.575-6.39,1.9-10.214.576S1.027,4.21,0,1.4C2.545-.174,6.392-.5,10.214.824s6.647,3.95,7.673,6.759" transform="translate(528.114 248.139)" fill="#af9be2"/><path d="M14.449,6.223a9.719,9.719,0,0,1-8.292.586A9.7,9.7,0,0,1,0,1.228,9.717,9.717,0,0,1,8.291.642a9.712,9.712,0,0,1,6.158,5.58" transform="translate(522.609 255.894)" fill="#af9be2"/><path d="M14.45,6.223a9.721,9.721,0,0,1-8.293.586A9.706,9.706,0,0,1,0,1.228,9.719,9.719,0,0,1,8.292.642a9.71,9.71,0,0,1,6.158,5.58" transform="translate(517.265 264.116)" fill="#af9be2"/><path d="M14.183,4.089A9.5,9.5,0,0,1,6.64,5.726,9.5,9.5,0,0,1,0,1.793,9.509,9.509,0,0,1,7.543.157a9.5,9.5,0,0,1,6.639,3.933" transform="translate(511.675 273.691)" fill="#af9be2"/><path d="M10.453,7.344A8.287,8.287,0,0,1,3.8,5.873,8.275,8.275,0,0,1,0,.213,8.284,8.284,0,0,1,6.659,1.684a8.275,8.275,0,0,1,3.794,5.66" transform="translate(509.744 279.807)" fill="#af9be2"/><path d="M6.858,6.86a6.338,6.338,0,0,1-4.8-2.051A6.329,6.329,0,0,1,.017.016,6.337,6.337,0,0,1,4.811,2.067,6.327,6.327,0,0,1,6.858,6.86" transform="translate(507.035 285.886)" fill="#af9be2"/><path d="M4.215,4.216A3.661,3.661,0,0,1,1.169,3.077,3.655,3.655,0,0,1,.032.032,3.658,3.658,0,0,1,3.078,1.171,3.651,3.651,0,0,1,4.215,4.216" transform="translate(505.497 289.996)" fill="#af9be2"/><path d="M4.217,4.217a3.659,3.659,0,0,1-3.046-1.14A3.656,3.656,0,0,1,.032.031,3.662,3.662,0,0,1,3.079,1.171,3.658,3.658,0,0,1,4.217,4.217" transform="translate(504.148 292.763)" fill="#af9be2"/><path d="M.224,0A107.342,107.342,0,0,1,9.59,12.107a142.916,142.916,0,0,1,7.869,13.137,151.519,151.519,0,0,1,6.478,13.889A150.361,150.361,0,0,1,28.909,53.64,142.983,142.983,0,0,1,34.1,83.865a148.943,148.943,0,0,1-1.475,30.683l-2.171-.353a147.1,147.1,0,0,0,1.923-30.24A141.47,141.47,0,0,0,27.7,53.974,149.382,149.382,0,0,0,22.993,39.5a151.08,151.08,0,0,0-6.225-13.9,142.625,142.625,0,0,0-7.628-13.2A107.128,107.128,0,0,0,0,.21Z" transform="translate(459.661 206.644)" fill="#cfc3ee"/><path d="M.314,0C-.553,3.3.378,7.6,3.1,11.321s6.53,5.922,9.94,6.1c.868-3.3-.065-7.6-2.784-11.321S3.722.18.314,0" transform="translate(447.617 190.404)" fill="#cfc3ee"/><path d="M7.773,0C4.646,1.371,1.856,4.772.625,9.214S.041,18.007,2.018,20.788c3.125-1.37,5.918-4.772,7.147-9.214S9.75,2.781,7.773,0" transform="translate(465.142 195.832)" fill="#cfc3ee"/><path d="M11.679,0C8.3.49,4.7,3.025,2.335,6.98S-.572,15.3.592,18.506c3.378-.489,6.975-3.025,9.345-6.98S12.844,3.206,11.679,0" transform="translate(473.016 207.772)" fill="#cfc3ee"/><path d="M11.679,0C8.3.489,4.7,3.025,2.335,6.98S-.572,15.3.593,18.506c3.378-.489,6.974-3.026,9.344-6.98S12.843,3.206,11.679,0" transform="translate(479.604 219.827)" fill="#cfc3ee"/><path d="M15.492.06C12.1-.331,7.975,1.2,4.671,4.419s-4.939,7.3-4.635,10.7c3.392.39,7.517-1.142,10.82-4.359S15.8,3.457,15.492.06" transform="translate(483.744 232.558)" fill="#cfc3ee"/><path d="M16.752.6C13.91-.5,10-.105,6.419,1.932S.5,7.129,0,10.134c2.843,1.1,6.754.705,10.334-1.332s5.915-5.2,6.418-8.2" transform="translate(486.4 245.982)" fill="#cfc3ee"/><path d="M16.753.6C13.909-.5,10-.105,6.418,1.932S.5,7.13,0,10.134c2.843,1.1,6.754.705,10.334-1.332s5.915-5.2,6.419-8.2" transform="translate(489.615 255.018)" fill="#cfc3ee"/><path d="M14.359.515A10.7,10.7,0,0,0,5.5,1.656,10.683,10.683,0,0,0,0,8.687,10.7,10.7,0,0,0,8.857,7.545a10.686,10.686,0,0,0,5.5-7.03" transform="translate(491.656 266.703)" fill="#cfc3ee"/><path d="M13.876,2.542A9.036,9.036,0,0,0,6.823.01,9.037,9.037,0,0,0,0,3.108,9.034,9.034,0,0,0,7.054,5.641a9.036,9.036,0,0,0,6.822-3.1" transform="translate(491.54 276.692)" fill="#cfc3ee"/><path d="M10.682,4.085A7.239,7.239,0,0,0,5.974.359,7.247,7.247,0,0,0,0,.969,7.231,7.231,0,0,0,4.708,4.695a7.242,7.242,0,0,0,5.974-.61" transform="translate(492.927 284.61)" fill="#cfc3ee"/><path d="M0,4.489c2.171,2.632,6.206,4.39,10.819,4.364s8.626-1.831,10.767-4.488C19.415,1.731,15.381-.026,10.768,0S2.141,1.831,0,4.489" transform="translate(445.717 211.925)" fill="#cfc3ee"/><path d="M0,4.489c2.171,2.633,6.205,4.39,10.819,4.364s8.626-1.831,10.767-4.489C19.415,1.731,15.381-.026,10.767,0S2.141,1.831,0,4.489" transform="translate(452.001 222.052)" fill="#cfc3ee"/><path d="M0,4.489c2.171,2.633,6.207,4.39,10.819,4.364s8.626-1.831,10.767-4.488C19.415,1.732,15.381-.026,10.768,0S2.141,1.831,0,4.489" transform="translate(458.292 234.045)" fill="#cfc3ee"/><path d="M0,3.651C1.766,5.792,5.047,7.222,8.8,7.2s7.018-1.489,8.759-3.651C15.791,1.408,12.509-.022,8.757,0S1.741,1.489,0,3.651" transform="translate(466.786 244.322)" fill="#cfc3ee"/><path d="M0,3.067A9.011,9.011,0,0,0,7.109,6.052a9.009,9.009,0,0,0,7.074-3.067A9.01,9.01,0,0,0,7.074,0,9.011,9.011,0,0,0,0,3.067" transform="translate(472.733 253.187)" fill="#cfc3ee"/><path d="M0,3.068A9.009,9.009,0,0,0,7.108,6.052a9.009,9.009,0,0,0,7.074-3.066A9.011,9.011,0,0,0,7.074,0,9.014,9.014,0,0,0,0,3.068" transform="translate(474.973 262)" fill="#cfc3ee"/><path d="M0,1.633A8.814,8.814,0,0,0,6.137,5.316a8.814,8.814,0,0,0,7.005-1.476A8.813,8.813,0,0,0,7.007.156,8.82,8.82,0,0,0,0,1.633" transform="translate(477.897 271.717)" fill="#cfc3ee"/><path d="M0,4.194a7.691,7.691,0,0,0,6.287.691,7.679,7.679,0,0,0,5.022-3.841A7.685,7.685,0,0,0,5.023.352,7.686,7.686,0,0,0,0,4.194" transform="translate(480.072 279.073)" fill="#cfc3ee"/><path d="M0,4.332a5.883,5.883,0,0,0,4.824-.373,5.878,5.878,0,0,0,3.23-3.6A5.88,5.88,0,0,0,3.23.732,5.878,5.878,0,0,0,0,4.332" transform="translate(483.939 285.727)" fill="#cfc3ee"/><path d="M0,2.738a3.393,3.393,0,0,0,3.016-.094A3.389,3.389,0,0,0,4.924.309,3.4,3.4,0,0,0,1.908.4,3.4,3.4,0,0,0,0,2.738" transform="translate(487.175 289.854)" fill="#cfc3ee"/><path d="M0,2.739a3.4,3.4,0,0,0,3.016-.094A3.4,3.4,0,0,0,4.923.309,3.4,3.4,0,0,0,1.907.4,3.387,3.387,0,0,0,0,2.739" transform="translate(487.534 292.686)" fill="#cfc3ee"/><path d="M32.086,0a116.042,116.042,0,0,0-9.453,13.528A154.6,154.6,0,0,0,14.85,28.086,163.453,163.453,0,0,0,8.6,43.38,162.132,162.132,0,0,0,4.01,59.263,154.09,154.09,0,0,0,0,92.081a160.459,160.459,0,0,0,3.2,32.963l2.32-.494A158.44,158.44,0,0,1,1.865,92.089,152.535,152.535,0,0,1,5.327,59.56,160.91,160.91,0,0,1,9.641,43.732a162.126,162.126,0,0,1,5.973-15.3,153.8,153.8,0,0,1,7.521-14.609A115.7,115.7,0,0,1,32.336.214Z" transform="translate(500.946 195.42)" fill="#8475aa"/><path d="M13.274,0c1.108,3.507.329,8.184-2.4,12.336S4.147,19.055.486,19.428C-.622,15.921.157,11.244,2.89,7.092S9.612.373,13.274,0" transform="translate(531.777 177.308)" fill="#8475aa"/><path d="M1.821,0C5.259,1.312,8.443,4.828,10,9.547s1.091,9.438-.89,12.536C5.672,20.772,2.488,17.255.93,12.536S-.161,3.1,1.821,0" transform="translate(516.611 184.461)" fill="#8475aa"/><path d="M.465,0C4.128.35,8.133,2.893,10.893,7.027s3.567,8.808,2.482,12.321C9.711,19,5.705,16.456,2.946,12.321S-.62,3.514.465,0" transform="translate(505.909 197.935)" fill="#8475aa"/><path d="M.465,0C4.128.35,8.134,2.892,10.894,7.027s3.567,8.807,2.481,12.321C9.711,19,5.705,16.455,2.947,12.321S-.62,3.514.465,0" transform="translate(499.447 211.261)" fill="#8475aa"/><path d="M.008.133c3.632-.6,8.154.836,11.881,4.127s5.7,7.6,5.553,11.277c-3.632.6-8.155-.836-11.88-4.127S-.141,3.807.008.133" transform="translate(492.011 225.318)" fill="#8475aa"/><path d="M0,.841C3-.493,7.235-.272,11.2,1.734s6.642,5.286,7.342,8.5c-3,1.334-7.236,1.114-11.2-.893S.7,4.051,0,.841" transform="translate(488.535 239.853)" fill="#8475aa"/><path d="M0,.841C3-.493,7.236-.273,11.2,1.734s6.643,5.286,7.342,8.5c-3,1.334-7.236,1.113-11.2-.893S.7,4.051,0,.841" transform="translate(485.547 249.751)" fill="#8475aa"/><path d="M0,.721c2.574-1.144,6.2-.955,9.6.766s5.693,4.531,6.292,7.282c-2.574,1.144-6.2.954-9.6-.765S.6,3.472,0,.721" transform="translate(486.535 262.342)" fill="#8475aa"/><path d="M0,3.1A9.737,9.737,0,0,1,7.462,0a9.744,9.744,0,0,1,7.509,2.979,9.741,9.741,0,0,1-7.463,3.1A9.739,9.739,0,0,1,0,3.1" transform="translate(487.811 272.875)" fill="#8475aa"/><path d="M0,4.784A7.8,7.8,0,0,1,4.875.526,7.807,7.807,0,0,1,11.34.87,7.8,7.8,0,0,1,6.465,5.128,7.808,7.808,0,0,1,0,4.784" transform="translate(490.252 281.28)" fill="#8475aa"/><path d="M23.251,4.287C21.052,7.235,16.8,9.34,11.83,9.552S2.445,8.033,0,5.284C2.2,2.335,6.453.23,11.421.018s9.386,1.52,11.83,4.27" transform="translate(525.547 200.912)" fill="#8475aa"/><path d="M23.251,4.287C21.051,7.235,16.8,9.34,11.83,9.552S2.445,8.033,0,5.284C2.2,2.335,6.453.23,11.421.018s9.386,1.52,11.83,4.27" transform="translate(519.313 212.146)" fill="#8475aa"/><path d="M23.25,4.287c-2.2,2.948-6.451,5.052-11.42,5.265S2.444,8.033,0,5.284C2.2,2.334,6.452.23,11.42.018s9.386,1.52,11.83,4.27" transform="translate(513.167 225.39)" fill="#8475aa"/><path d="M18.91,3.487c-1.789,2.4-5.248,4.109-9.289,4.282S1.988,6.533,0,4.3C1.788,1.9,5.248.187,9.288.014S16.922,1.25,18.91,3.487" transform="translate(508.858 236.799)" fill="#8475aa"/><path d="M15.275,2.943a9.714,9.714,0,0,1-7.5,3.587A9.714,9.714,0,0,1,0,3.6,9.71,9.71,0,0,1,7.5.011a9.718,9.718,0,0,1,7.778,2.932" transform="translate(506.523 246.571)" fill="#8475aa"/><path d="M15.275,2.943a9.715,9.715,0,0,1-7.5,3.587A9.713,9.713,0,0,1,0,3.6,9.708,9.708,0,0,1,7.5.011a9.718,9.718,0,0,1,7.778,2.932" transform="translate(504.574 256.179)" fill="#8475aa"/><path d="M14.037,1.5A9.5,9.5,0,0,1,7.622,5.79,9.507,9.507,0,0,1,0,4.567,9.5,9.5,0,0,1,6.415.279,9.507,9.507,0,0,1,14.037,1.5" transform="translate(503.098 266.691)" fill="#8475aa"/><path d="M12.342,4.132A8.286,8.286,0,0,1,5.609,5.206,8.283,8.283,0,0,1,0,1.333,8.283,8.283,0,0,1,6.733.259a8.284,8.284,0,0,1,5.61,3.873" transform="translate(502.97 274.854)" fill="#8475aa"/><path d="M8.879,4.347A6.34,6.34,0,0,1,3.666,4.2,6.332,6.332,0,0,1,0,.49,6.343,6.343,0,0,1,5.214.64,6.336,6.336,0,0,1,8.879,4.347" transform="translate(502.626 282.156)" fill="#8475aa"/><path d="M5.428,2.766a3.655,3.655,0,0,1-3.252.057A3.653,3.653,0,0,1,0,.407,3.664,3.664,0,0,1,3.252.35,3.655,3.655,0,0,1,5.428,2.766" transform="translate(502.724 286.634)" fill="#8475aa"/><path d="M5.43,2.766a3.661,3.661,0,0,1-3.252.058A3.664,3.664,0,0,1,0,.408,3.658,3.658,0,0,1,3.253.351,3.653,3.653,0,0,1,5.43,2.766" transform="translate(502.486 289.702)" fill="#8475aa"/><path d="M16.511,22.257C11.315,14.649,5.839,7.216,0,.081L.095,0c5.989,7.022,11.618,14.347,16.98,21.865A263.789,263.789,0,0,1,32.007,45.211q1.64,2.933,3.19,5.925c-.4.225-.806.451-1.205.684q-1.489-3.03-3.08-6.009a263.358,263.358,0,0,0-14.4-23.554" transform="translate(465.397 261.74)" fill="#af9be2"/><path d="M.436,0A7.033,7.033,0,0,1,5.594,3.536a7.022,7.022,0,0,1,.7,6.211,7.033,7.033,0,0,1-5.16-3.536A7.023,7.023,0,0,1,.436,0" transform="translate(459.234 252.118)" fill="#af9be2"/><path d="M4.695,0A7.7,7.7,0,0,1,4.64,6.075,7.7,7.7,0,0,1,.594,10.607,7.7,7.7,0,0,1,.649,4.534,7.708,7.708,0,0,1,4.695,0" transform="translate(469.215 256.561)" fill="#af9be2"/><path d="M11.274,2.989A7.713,7.713,0,0,1,5.345,4.33,7.715,7.715,0,0,1,0,1.436,7.71,7.71,0,0,1,5.929.095a7.706,7.706,0,0,1,5.345,2.894" transform="translate(463.118 270.311)" fill="#af9be2"/><path d="M11.274,2.988A7.71,7.71,0,0,1,5.345,4.33,7.709,7.709,0,0,1,0,1.437,7.71,7.71,0,0,1,5.929.094a7.711,7.711,0,0,1,5.345,2.894" transform="translate(468.868 277.728)" fill="#af9be2"/><path d="M11.274,2.988A7.713,7.713,0,0,1,5.345,4.33,7.709,7.709,0,0,1,0,1.436,7.712,7.712,0,0,1,5.929.094a7.709,7.709,0,0,1,5.345,2.894" transform="translate(472.773 283.635)" fill="#af9be2"/><path d="M11.274,2.989A7.715,7.715,0,0,1,5.345,4.33,7.715,7.715,0,0,1,0,1.437,7.707,7.707,0,0,1,5.93.095a7.709,7.709,0,0,1,5.345,2.894" transform="translate(477.104 290.157)" fill="#af9be2"/><path d="M4.7,0A7.693,7.693,0,0,1,4.64,6.075,7.7,7.7,0,0,1,.594,10.607,7.694,7.694,0,0,1,.65,4.534,7.7,7.7,0,0,1,4.7,0" transform="translate(474.22 262.925)" fill="#af9be2"/><path d="M4.7,0a7.7,7.7,0,0,1-.055,6.074A7.7,7.7,0,0,1,.594,10.607,7.7,7.7,0,0,1,.65,4.534,7.7,7.7,0,0,1,4.7,0" transform="translate(479.004 269.474)" fill="#af9be2"/><path d="M4.7,0a7.694,7.694,0,0,1-.056,6.074A7.7,7.7,0,0,1,.594,10.607,7.7,7.7,0,0,1,.649,4.533,7.7,7.7,0,0,1,4.7,0" transform="translate(483.557 276.077)" fill="#af9be2"/><path d="M4.7,0a7.7,7.7,0,0,1-.056,6.074A7.7,7.7,0,0,1,.595,10.607,7.7,7.7,0,0,1,.65,4.533,7.7,7.7,0,0,1,4.7,0" transform="translate(487.968 282.546)" fill="#af9be2"/></g></g><g transform="translate(469.716 302.227)"><path d="M9.308,0C3.616,2.916,0,7.257,0,12.105H0c0,5.179,4.119,9.776,10.489,12.681H42.4c6.37-2.9,10.488-7.5,10.488-12.681h0c0-4.849-3.614-9.19-9.307-12.105H9.308Z" transform="translate(0 0)" fill="none"/><g transform="translate(0 0)" clip-path="url(#b)"><path d="M9.308,0C3.616,2.916,0,7.257,0,12.105H0c0,5.179,4.119,9.776,10.489,12.681H42.4c6.37-2.9,10.488-7.5,10.488-12.681h0c0-4.849-3.614-9.19-9.307-12.105H9.308Z" fill="url(#c)"/></g></g><g transform="translate(0 0.498)"><path d="M9.3.04C5.9-.355,1.346,2.2.169,7.355-1.435,17.52,8.752,20.5,14.311,17.924c-4.844-1.215-10.142-3.436-10.3-8.438a9.678,9.678,0,0,1,1.313-5.22A14.155,14.155,0,0,1,6.787,2.312,14.893,14.893,0,0,1,9.3.04" transform="translate(472.417 304.105)" fill="#f8f0a1"/><path d="M0,353.852H585.214V0H0Z" fill="none"/><g clip-path="url(#a)"><path d="M0,2.391H38.107V0H0Z" transform="translate(476.864 299.931)" fill="#6b9fc5"/><path d="M11.374,2.348A7.709,7.709,0,0,1,5.61,4.279,7.709,7.709,0,0,1,0,1.938,7.708,7.708,0,0,1,5.764.007a7.707,7.707,0,0,1,5.61,2.341" transform="translate(76.384 258.694)" fill="#af9be2"/><path d="M2.2,131.142A206.731,206.731,0,0,1,.028,97.763C.074,92.189.381,86.62.823,81.068c.425-5.554,1.1-11.085,1.876-16.6a306.079,306.079,0,0,1,6.584-32.71q2.084-8.078,4.606-16.032c1.687-5.3,3.49-10.557,5.57-15.73l.656.268C18.116,5.424,16.379,10.7,14.765,16s-3.074,10.652-4.391,16.036A304.531,304.531,0,0,0,4.225,64.682c-.7,5.491-1.307,11-1.659,16.518-.37,5.52-.605,11.049-.581,16.577a204.5,204.5,0,0,0,2.562,32.995Z" transform="translate(111.951 180.628)" fill="#af9be2"/><path d="M6.55,0C3.4,1.9.886,5.921.188,10.841s.595,9.481,3.094,12.181c3.152-1.9,5.664-5.921,6.362-10.84S9.049,2.7,6.55,0" transform="translate(128.109 158.469)" fill="#af9be2"/><path d="M.07.018C-.316,2.866.906,6.362,3.563,9.2s6.069,4.279,8.937,4.079c.386-2.847-.837-6.344-3.492-9.176S2.938-.182.07.018" transform="translate(116.019 175.406)" fill="#af9be2"/><path d="M0,7.046C2.414,8.607,6.1,8.991,9.8,7.8s6.459-3.666,7.5-6.344C14.881-.11,11.195-.493,7.5.7S1.04,4.368,0,7.046" transform="translate(128.768 182.574)" fill="#af9be2"/><path d="M0,7.047C2.414,8.607,6.1,8.991,9.8,7.8s6.458-3.666,7.5-6.345C14.882-.109,11.195-.493,7.5.7S1.04,4.368,0,7.047" transform="translate(125.443 193.696)" fill="#af9be2"/><path d="M0,7.046C2.414,8.607,6.1,8.991,9.8,7.8s6.459-3.666,7.5-6.345C14.881-.11,11.195-.493,7.5.7S1.04,4.368,0,7.046" transform="translate(121.668 206.203)" fill="#af9be2"/><path d="M0,7.047C2.414,8.608,6.1,8.991,9.8,7.8s6.458-3.666,7.5-6.345C14.881-.109,11.195-.493,7.5.7S1.04,4.369,0,7.047" transform="translate(119.137 217.85)" fill="#af9be2"/><path d="M17.3,7.047c-2.415,1.561-6.1,1.944-9.8.749S1.04,4.129,0,1.451C2.414-.109,6.1-.493,9.8.7s6.459,3.666,7.5,6.345" transform="translate(102.894 215.492)" fill="#af9be2"/><path d="M.07.018C-.316,2.865.906,6.362,3.562,9.2s6.07,4.279,8.938,4.079c.385-2.847-.837-6.344-3.493-9.176S2.938-.181.07.018" transform="translate(112.63 186.488)" fill="#af9be2"/><path d="M.07.018C-.316,2.865.906,6.362,3.563,9.2s6.069,4.278,8.937,4.079c.385-2.847-.837-6.344-3.492-9.177S2.938-.181.07.018" transform="translate(108.749 199.078)" fill="#af9be2"/><path d="M72.805,0A116.015,116.015,0,0,0,59.044,9.116,154.7,154.7,0,0,0,46.455,19.8,163.662,163.662,0,0,0,35.026,31.738,162.1,162.1,0,0,0,24.918,44.827,154.1,154.1,0,0,0,9.134,73.884,160.539,160.539,0,0,0,0,105.719l2.339.39a158.458,158.458,0,0,1,8.524-31.535A152.57,152.57,0,0,1,26.035,45.587a161.027,161.027,0,0,1,9.827-13.141A162.457,162.457,0,0,1,47.037,20.408,153.886,153.886,0,0,1,59.4,9.579,115.719,115.719,0,0,1,72.96.291Z" transform="translate(112.518 209.801)" fill="#af9be2"/><path d="M19.032.387c-.258,3.669-2.7,7.734-6.768,10.593S3.543,14.765,0,13.768C.258,10.1,2.7,6.035,6.768,3.175S15.489-.609,19.032.387" transform="translate(184.126 196.975)" fill="#af9be2"/><path d="M5.466,0c2.716,2.482,4.386,6.921,4.1,11.881s-2.451,9.18-5.434,11.335C1.416,20.734-.254,16.3.032,11.335S2.484,2.155,5.466,0" transform="translate(170.305 194.252)" fill="#af9be2"/><path d="M2.64,0C5.919,1.67,8.711,5.5,9.759,10.361s.081,9.5-2.219,12.37c-3.279-1.67-6.072-5.5-7.119-10.361S.339,2.871,2.64,0" transform="translate(156.964 202.362)" fill="#af9be2"/><path d="M2.64,0C5.919,1.67,8.711,5.5,9.759,10.361s.082,9.5-2.219,12.371c-3.279-1.67-6.071-5.5-7.119-10.361S.339,2.871,2.64,0" transform="translate(146.058 212.388)" fill="#af9be2"/><path d="M.934,0c3.6.775,7.278,3.769,9.534,8.2s2.512,9.163,1.023,12.526c-3.6-.775-7.278-3.769-9.534-8.2S-.555,3.363.934,0" transform="translate(135.209 222.692)" fill="#af9be2"/><path d="M.116.008C3.4-.131,7.256,1.626,10.2,4.945s4.237,7.354,3.708,10.6c-3.284.139-7.14-1.618-10.087-4.938S-.413,3.25.116.008" transform="translate(127.186 235.585)" fill="#af9be2"/><path d="M.116.008C3.4-.131,7.256,1.626,10.2,4.945s4.238,7.354,3.708,10.6c-3.285.139-7.14-1.619-10.088-4.938S-.413,3.249.116.008" transform="translate(120.771 243.696)" fill="#af9be2"/><path d="M.1.007c2.815-.12,6.12,1.388,8.647,4.233s3.631,6.3,3.178,9.082c-2.815.119-6.119-1.388-8.647-4.233S-.354,2.786.1.007" transform="translate(117.123 255.66)" fill="#af9be2"/><path d="M0,.94A9.745,9.745,0,0,1,8.078.8,9.734,9.734,0,0,1,13.97,6.323a9.748,9.748,0,0,1-8.078.143A9.732,9.732,0,0,1,0,.94" transform="translate(113.668 267.202)" fill="#af9be2"/><path d="M0,2.182A7.809,7.809,0,0,1,6.1.009,7.807,7.807,0,0,1,11.986,2.7a7.807,7.807,0,0,1-6.1,2.174A7.8,7.8,0,0,1,0,2.182" transform="translate(112.231 276.243)" fill="#af9be2"/><path d="M21.992,9.323c-3.129,1.936-7.858,2.334-12.558.708S1.263,5.176,0,1.722C3.129-.215,7.857-.611,12.557,1.013s8.173,4.855,9.436,8.31" transform="translate(174.405 215.358)" fill="#af9be2"/><path d="M21.992,9.323c-3.129,1.936-7.857,2.334-12.558.709S1.263,5.176,0,1.721C3.129-.214,7.858-.611,12.558,1.012s8.172,4.857,9.435,8.31" transform="translate(164.478 223.52)" fill="#af9be2"/><path d="M21.993,9.323c-3.13,1.937-7.858,2.334-12.558.709S1.263,5.176,0,1.721C3.13-.215,7.858-.612,12.558,1.013s8.173,4.856,9.436,8.31" transform="translate(153.896 233.585)" fill="#af9be2"/><path d="M17.888,7.583C15.343,9.158,11.5,9.48,7.675,8.16S1.028,4.21,0,1.4C2.546-.174,6.392-.5,10.215.824s6.646,3.95,7.673,6.759" transform="translate(146.058 242.021)" fill="#af9be2"/><path d="M14.45,6.222a9.719,9.719,0,0,1-8.292.586A9.711,9.711,0,0,1,0,1.228,9.722,9.722,0,0,1,8.292.642a9.71,9.71,0,0,1,6.158,5.58" transform="translate(140.552 249.776)" fill="#af9be2"/><path d="M14.449,6.222a9.717,9.717,0,0,1-8.291.586A9.709,9.709,0,0,1,0,1.228,9.72,9.72,0,0,1,8.291.642a9.71,9.71,0,0,1,6.158,5.58" transform="translate(135.209 257.998)" fill="#af9be2"/><path d="M14.182,4.09A9.509,9.509,0,0,1,6.639,5.726,9.5,9.5,0,0,1,0,1.794,9.5,9.5,0,0,1,7.543.157,9.5,9.5,0,0,1,14.182,4.09" transform="translate(129.62 267.573)" fill="#af9be2"/><path d="M10.453,7.344A8.288,8.288,0,0,1,3.795,5.873,8.278,8.278,0,0,1,0,.212,8.29,8.29,0,0,1,6.658,1.684a8.272,8.272,0,0,1,3.795,5.66" transform="translate(127.689 273.689)" fill="#af9be2"/><path d="M6.859,6.861A6.338,6.338,0,0,1,2.064,4.81,6.332,6.332,0,0,1,.016.016a6.34,6.34,0,0,1,4.8,2.051A6.33,6.33,0,0,1,6.859,6.861" transform="translate(124.979 279.768)" fill="#af9be2"/><path d="M4.216,4.217a3.66,3.66,0,0,1-3.047-1.14A3.655,3.655,0,0,1,.032.031,3.662,3.662,0,0,1,3.079,1.171,3.655,3.655,0,0,1,4.216,4.217" transform="translate(123.441 283.878)" fill="#af9be2"/><path d="M4.215,4.216A3.657,3.657,0,0,1,1.169,3.077,3.653,3.653,0,0,1,.032.032,3.659,3.659,0,0,1,3.078,1.171,3.653,3.653,0,0,1,4.215,4.216" transform="translate(122.094 286.645)" fill="#af9be2"/><path d="M.223,0A107.618,107.618,0,0,1,9.591,12.107a143.246,143.246,0,0,1,7.868,13.137,151.426,151.426,0,0,1,6.478,13.889A150.566,150.566,0,0,1,28.909,53.64,142.92,142.92,0,0,1,34.1,83.865a148.941,148.941,0,0,1-1.475,30.683l-2.171-.353a146.984,146.984,0,0,0,1.922-30.239A141.406,141.406,0,0,0,27.7,53.975,149.065,149.065,0,0,0,22.991,39.5a150.47,150.47,0,0,0-6.224-13.9,142.486,142.486,0,0,0-7.629-13.2A107.269,107.269,0,0,0,0,.21Z" transform="translate(77.606 200.526)" fill="#cfc3ee"/><path d="M.314,0C-.554,3.3.379,7.6,3.1,11.32s6.531,5.922,9.941,6.1c.868-3.3-.065-7.6-2.784-11.321S3.723.18.314,0" transform="translate(65.561 184.287)" fill="#cfc3ee"/><path d="M7.773,0C4.646,1.371,1.856,4.772.626,9.214S.04,18.007,2.018,20.788c3.126-1.37,5.917-4.771,7.147-9.214S9.749,2.781,7.773,0" transform="translate(83.087 189.714)" fill="#cfc3ee"/><path d="M11.679,0C8.3.489,4.7,3.025,2.335,6.98S-.572,15.3.592,18.506c3.378-.489,6.975-3.026,9.344-6.98S12.843,3.207,11.679,0" transform="translate(90.961 201.654)" fill="#cfc3ee"/><path d="M11.679,0C8.3.489,4.7,3.025,2.335,6.98S-.572,15.3.592,18.507c3.378-.49,6.974-3.026,9.344-6.981S12.843,3.207,11.679,0" transform="translate(97.549 213.708)" fill="#cfc3ee"/><path d="M15.492.06C12.1-.331,7.975,1.2,4.672,4.419s-4.941,7.3-4.636,10.7c3.391.39,7.517-1.142,10.82-4.36S15.8,3.458,15.492.06" transform="translate(101.688 226.439)" fill="#cfc3ee"/><path d="M16.752.6C13.909-.5,10-.1,6.418,1.932S.5,7.129,0,10.134c2.843,1.1,6.754.705,10.334-1.332s5.915-5.2,6.418-8.2" transform="translate(104.345 239.864)" fill="#cfc3ee"/><path d="M16.753.6C13.91-.5,10-.1,6.419,1.932S.5,7.129,0,10.134c2.844,1.1,6.754.705,10.334-1.332s5.916-5.2,6.419-8.2" transform="translate(107.559 248.9)" fill="#cfc3ee"/><path d="M14.359.514A10.7,10.7,0,0,0,5.5,1.657,10.683,10.683,0,0,0,0,8.686,10.7,10.7,0,0,0,8.858,7.545a10.684,10.684,0,0,0,5.5-7.03" transform="translate(109.601 260.585)" fill="#cfc3ee"/><path d="M13.877,2.542A9.038,9.038,0,0,0,6.824.01,9.034,9.034,0,0,0,0,3.109,9.039,9.039,0,0,0,7.054,5.641a9.036,9.036,0,0,0,6.823-3.1" transform="translate(109.484 270.574)" fill="#cfc3ee"/><path d="M10.683,4.084A7.236,7.236,0,0,0,5.975.359,7.247,7.247,0,0,0,0,.969,7.238,7.238,0,0,0,4.709,4.7a7.245,7.245,0,0,0,5.974-.611" transform="translate(110.871 278.492)" fill="#cfc3ee"/><path d="M0,4.489C2.171,7.122,6.205,8.879,10.818,8.853s8.627-1.831,10.768-4.489C19.414,1.732,15.38-.026,10.767,0S2.14,1.831,0,4.489" transform="translate(63.663 205.807)" fill="#cfc3ee"/><path d="M0,4.489C2.171,7.122,6.206,8.879,10.819,8.853s8.627-1.831,10.767-4.489C19.415,1.732,15.38-.026,10.768,0S2.141,1.831,0,4.489" transform="translate(69.946 215.934)" fill="#cfc3ee"/><path d="M0,4.489C2.171,7.121,6.206,8.879,10.819,8.852s8.626-1.831,10.767-4.488C19.414,1.731,15.38-.027,10.767,0S2.141,1.832,0,4.489" transform="translate(76.237 227.927)" fill="#cfc3ee"/><path d="M0,3.651C1.765,5.792,5.047,7.222,8.8,7.2s7.017-1.489,8.757-3.651C15.79,1.408,12.509-.021,8.757,0S1.741,1.489,0,3.651" transform="translate(84.73 238.204)" fill="#cfc3ee"/><path d="M0,3.067A9.011,9.011,0,0,0,7.108,6.052a9.01,9.01,0,0,0,7.073-3.067A9.008,9.008,0,0,0,7.073,0,9.009,9.009,0,0,0,0,3.067" transform="translate(90.678 247.069)" fill="#cfc3ee"/><path d="M0,3.067A9.012,9.012,0,0,0,7.109,6.052a9.011,9.011,0,0,0,7.073-3.067A9.011,9.011,0,0,0,7.074,0,9.011,9.011,0,0,0,0,3.067" transform="translate(92.918 255.883)" fill="#cfc3ee"/><path d="M0,1.632A8.811,8.811,0,0,0,6.137,5.317a8.82,8.82,0,0,0,7.005-1.476A8.808,8.808,0,0,0,7.006.156,8.819,8.819,0,0,0,0,1.632" transform="translate(95.842 265.599)" fill="#cfc3ee"/><path d="M0,4.194a7.688,7.688,0,0,0,6.287.69A7.683,7.683,0,0,0,11.31,1.044,7.688,7.688,0,0,0,5.023.352,7.681,7.681,0,0,0,0,4.194" transform="translate(98.017 272.955)" fill="#cfc3ee"/><path d="M0,4.332a5.884,5.884,0,0,0,4.824-.373A5.877,5.877,0,0,0,8.052.359,5.881,5.881,0,0,0,3.228.732,5.873,5.873,0,0,0,0,4.332" transform="translate(101.885 279.609)" fill="#cfc3ee"/><path d="M0,2.739a3.4,3.4,0,0,0,3.016-.094A3.389,3.389,0,0,0,4.923.31,3.391,3.391,0,0,0,1.908.4,3.39,3.39,0,0,0,0,2.739" transform="translate(105.12 283.736)" fill="#cfc3ee"/><path d="M0,2.738a3.393,3.393,0,0,0,3.016-.094A3.389,3.389,0,0,0,4.924.309,3.4,3.4,0,0,0,1.908.4,3.39,3.39,0,0,0,0,2.738" transform="translate(105.478 286.568)" fill="#cfc3ee"/><path d="M32.086,0a115.866,115.866,0,0,0-9.451,13.527,154.453,154.453,0,0,0-7.784,14.558A163.658,163.658,0,0,0,8.6,43.379,161.984,161.984,0,0,0,4.011,59.262,154.146,154.146,0,0,0,0,92.081a160.622,160.622,0,0,0,3.2,32.963l2.32-.495A158.44,158.44,0,0,1,1.866,92.088,152.493,152.493,0,0,1,5.329,59.559,161.02,161.02,0,0,1,9.642,43.731a162.518,162.518,0,0,1,5.972-15.3,153.832,153.832,0,0,1,7.524-14.61A115.585,115.585,0,0,1,32.337.214Z" transform="translate(118.889 189.302)" fill="#8475aa"/><path d="M13.274,0c1.107,3.507.329,8.184-2.4,12.336S4.148,19.055.486,19.428C-.621,15.921.158,11.244,2.89,7.092S9.613.373,13.274,0" transform="translate(149.722 171.19)" fill="#8475aa"/><path d="M1.822,0C5.26,1.312,8.444,4.828,10,9.547s1.091,9.439-.891,12.536C5.671,20.772,2.488,17.255.93,12.536S-.161,3.1,1.822,0" transform="translate(134.556 178.343)" fill="#8475aa"/><path d="M.465,0C4.129.35,8.134,2.892,10.893,7.027s3.567,8.807,2.482,12.321C9.71,19,5.7,16.455,2.946,12.321S-.62,3.514.465,0" transform="translate(123.853 191.817)" fill="#8475aa"/><path d="M.465,0c3.664.35,7.67,2.892,10.428,7.027s3.566,8.807,2.481,12.321C9.71,19,5.7,16.456,2.946,12.321S-.62,3.514.465,0" transform="translate(117.392 205.143)" fill="#8475aa"/><path d="M.008.133c3.632-.6,8.154.836,11.88,4.127s5.7,7.6,5.553,11.276c-3.632.6-8.154-.835-11.88-4.127S-.142,3.807.008.133" transform="translate(109.957 219.2)" fill="#8475aa"/><path d="M0,.841C3-.493,7.235-.273,11.2,1.734s6.643,5.286,7.342,8.5c-3,1.334-7.235,1.114-11.2-.893S.7,4.05,0,.841" transform="translate(106.48 233.734)" fill="#8475aa"/><path d="M0,.841C3-.493,7.236-.272,11.2,1.734s6.643,5.286,7.342,8.5c-3,1.333-7.235,1.113-11.2-.893S.7,4.051,0,.841" transform="translate(103.492 243.633)" fill="#8475aa"/><path d="M0,.721c2.575-1.144,6.2-.954,9.6.765s5.694,4.531,6.293,7.282c-2.574,1.144-6.2.954-9.6-.765S.6,3.472,0,.721" transform="translate(104.479 256.225)" fill="#8475aa"/><path d="M0,3.1A9.745,9.745,0,0,1,7.462,0a9.743,9.743,0,0,1,7.51,2.98,9.744,9.744,0,0,1-7.463,3.1A9.741,9.741,0,0,1,0,3.1" transform="translate(105.755 266.757)" fill="#8475aa"/><path d="M0,4.784A7.8,7.8,0,0,1,4.874.525a7.812,7.812,0,0,1,6.465.344A7.8,7.8,0,0,1,6.465,5.127,7.806,7.806,0,0,1,0,4.784" transform="translate(108.197 275.162)" fill="#8475aa"/><path d="M23.251,4.287C21.051,7.235,16.8,9.339,11.83,9.552S2.445,8.033,0,5.283C2.2,2.334,6.453.23,11.421.018s9.386,1.519,11.83,4.269" transform="translate(143.492 194.794)" fill="#8475aa"/><path d="M23.25,4.286C21.051,7.235,16.8,9.34,11.83,9.552S2.444,8.032,0,5.283C2.2,2.335,6.452.23,11.42.018s9.386,1.519,11.83,4.269" transform="translate(137.258 206.028)" fill="#8475aa"/><path d="M23.25,4.287C21.051,7.235,16.8,9.34,11.83,9.552S2.444,8.033,0,5.284C2.2,2.335,6.452.23,11.42.018s9.386,1.52,11.83,4.27" transform="translate(131.112 219.271)" fill="#8475aa"/><path d="M18.91,3.487C17.121,5.885,13.663,7.6,9.621,7.77S1.988,6.533,0,4.3C1.789,1.9,5.248.187,9.289.014s7.633,1.236,9.621,3.472" transform="translate(126.803 230.68)" fill="#8475aa"/><path d="M15.275,2.943a9.714,9.714,0,0,1-7.5,3.587A9.716,9.716,0,0,1,0,3.6,9.715,9.715,0,0,1,7.5.011a9.715,9.715,0,0,1,7.777,2.932" transform="translate(124.467 240.453)" fill="#8475aa"/><path d="M15.275,2.943a9.716,9.716,0,0,1-7.5,3.587A9.715,9.715,0,0,1,0,3.6,9.714,9.714,0,0,1,7.5.011a9.717,9.717,0,0,1,7.777,2.932" transform="translate(122.518 250.061)" fill="#8475aa"/><path d="M14.036,1.5A9.5,9.5,0,0,1,7.621,5.791,9.508,9.508,0,0,1,0,4.568,9.5,9.5,0,0,1,6.415.279,9.5,9.5,0,0,1,14.036,1.5" transform="translate(121.044 260.573)" fill="#8475aa"/><path d="M12.343,4.132A8.291,8.291,0,0,1,5.61,5.206,8.283,8.283,0,0,1,0,1.332,8.289,8.289,0,0,1,6.733.259a8.282,8.282,0,0,1,5.61,3.873" transform="translate(120.914 268.736)" fill="#8475aa"/><path d="M8.879,4.347A6.338,6.338,0,0,1,3.666,4.2,6.332,6.332,0,0,1,0,.49,6.341,6.341,0,0,1,5.213.639,6.332,6.332,0,0,1,8.879,4.347" transform="translate(120.57 276.037)" fill="#8475aa"/><path d="M5.429,2.766a3.662,3.662,0,0,1-3.252.057A3.656,3.656,0,0,1,0,.408,3.659,3.659,0,0,1,3.252.351,3.656,3.656,0,0,1,5.429,2.766" transform="translate(120.669 280.516)" fill="#8475aa"/><path d="M5.429,2.766a3.657,3.657,0,0,1-3.252.057A3.653,3.653,0,0,1,0,.407,3.662,3.662,0,0,1,3.252.35,3.658,3.658,0,0,1,5.429,2.766" transform="translate(120.432 283.584)" fill="#8475aa"/><path d="M16.511,22.257C11.315,14.648,5.841,7.216,0,.081L.095,0c5.99,7.022,11.619,14.347,16.981,21.865A263.848,263.848,0,0,1,32.007,45.212q1.642,2.933,3.19,5.924c-.4.225-.806.451-1.206.683q-1.486-3.03-3.079-6.008a262.74,262.74,0,0,0-14.4-23.554" transform="translate(83.341 255.622)" fill="#af9be2"/><path d="M.436,0A7.032,7.032,0,0,1,5.595,3.536a7.019,7.019,0,0,1,.7,6.211A7.028,7.028,0,0,1,1.139,6.211,7.019,7.019,0,0,1,.436,0" transform="translate(77.155 246)" fill="#af9be2"/><path d="M4.7,0a7.694,7.694,0,0,1-.056,6.074A7.7,7.7,0,0,1,.595,10.607,7.692,7.692,0,0,1,.65,4.533,7.7,7.7,0,0,1,4.7,0" transform="translate(87.159 250.444)" fill="#af9be2"/><path d="M11.274,2.988A7.712,7.712,0,0,1,5.345,4.33,7.711,7.711,0,0,1,0,1.436,7.711,7.711,0,0,1,5.93.095a7.707,7.707,0,0,1,5.345,2.893" transform="translate(81.062 264.193)" fill="#af9be2"/><path d="M11.274,2.988A7.713,7.713,0,0,1,5.345,4.33,7.711,7.711,0,0,1,0,1.436,7.715,7.715,0,0,1,5.93.094a7.709,7.709,0,0,1,5.345,2.894" transform="translate(86.812 271.61)" fill="#af9be2"/><path d="M11.274,2.988A7.713,7.713,0,0,1,5.345,4.33,7.71,7.71,0,0,1,0,1.437,7.708,7.708,0,0,1,5.93.095a7.707,7.707,0,0,1,5.345,2.893" transform="translate(90.718 277.518)" fill="#af9be2"/><path d="M11.274,2.988A7.712,7.712,0,0,1,5.345,4.33,7.71,7.71,0,0,1,0,1.437,7.707,7.707,0,0,1,5.93.095a7.707,7.707,0,0,1,5.345,2.893" transform="translate(95.048 284.039)" fill="#af9be2"/><path d="M4.7,0a7.7,7.7,0,0,1-.056,6.075A7.7,7.7,0,0,1,.594,10.607,7.694,7.694,0,0,1,.65,4.534,7.7,7.7,0,0,1,4.7,0" transform="translate(92.164 256.807)" fill="#af9be2"/><path d="M4.7,0a7.7,7.7,0,0,1-.055,6.075A7.7,7.7,0,0,1,.595,10.607,7.69,7.69,0,0,1,.65,4.534,7.7,7.7,0,0,1,4.7,0" transform="translate(96.948 263.356)" fill="#af9be2"/><path d="M4.7,0A7.692,7.692,0,0,1,4.64,6.075,7.7,7.7,0,0,1,.594,10.607,7.7,7.7,0,0,1,.65,4.534,7.7,7.7,0,0,1,4.7,0" transform="translate(101.501 269.959)" fill="#af9be2"/><path d="M4.7,0a7.7,7.7,0,0,1-.055,6.075A7.707,7.707,0,0,1,.595,10.607,7.69,7.69,0,0,1,.65,4.534,7.7,7.7,0,0,1,4.7,0" transform="translate(105.913 276.428)" fill="#af9be2"/></g></g><g transform="translate(87.254 296.057)"><path d="M9.39,0C3.647,2.916,0,7.257,0,12.106H0c0,5.179,4.155,9.778,10.583,12.681h32.2c6.428-2.9,10.583-7.5,10.583-12.681h0c0-4.849-3.647-9.19-9.39-12.106H9.39Z" transform="translate(0 0)" fill="none"/><g transform="translate(0 0)" clip-path="url(#e)"><path d="M9.39,0C3.647,2.916,0,7.257,0,12.106H0c0,5.179,4.155,9.778,10.583,12.681h32.2c6.428-2.9,10.583-7.5,10.583-12.681h0c0-4.849-3.647-9.19-9.39-12.106H9.39Z" fill="url(#c)"/></g></g><g transform="translate(0 0.498)"><path d="M9.3.04C5.9-.356,1.346,2.2.169,7.355-1.435,17.519,8.752,20.5,14.31,17.923c-4.845-1.214-10.142-3.434-10.3-8.438A9.687,9.687,0,0,1,5.327,4.265,14.24,14.24,0,0,1,6.787,2.31,14.739,14.739,0,0,1,9.3.04" transform="translate(90.361 297.988)" fill="#f8f0a1"/><path d="M0,353.852H585.214V0H0Z" fill="none"/><g clip-path="url(#a)"><path d="M0,2.392H38.106V0H0Z" transform="translate(94.81 293.812)" fill="#6b9fc5"/><path d="M0,150.033H147.363V0H0Z" transform="translate(357.124)" fill="#290096"/><path d="M0,144.375H141.7V0H0Z" transform="translate(359.954 2.829)" fill="#f1ecff"/><path d="M26.476,0H0L23.286,12.607A28.364,28.364,0,0,0,26.476,0" transform="translate(410.252 43.809)" fill="#d7ceee"/><path d="M0,0A28.5,28.5,0,0,0,14.48,24.31L27.663,0Z" transform="translate(379.661 43.809)" fill="#d7ceee"/><path d="M0,0V27.663A28.53,28.53,0,0,0,24.338,13.177Z" transform="translate(408.709 44.143)" fill="#d7ceee"/><path d="M0,12.63H26.531L3.2,0A28.352,28.352,0,0,0,0,12.63" transform="translate(379.661 30.15)" fill="#d7ceee"/><path d="M13.185,0,0,24.316H27.677A28.507,28.507,0,0,0,13.185,0" transform="translate(409.052 18.464)" fill="#ffe5a0"/><path d="M24.326,27.634V0A28.536,28.536,0,0,0,0,14.464Z" transform="translate(383.353 14.783)" fill="#d7ceee"/><path d="M0,0V26.471L12.623,3.19A28.407,28.407,0,0,0,0,0" transform="translate(409.052 13.961)" fill="#fffced"/><path d="M12.634,0,0,23.3a28.407,28.407,0,0,0,12.634,3.2Z" transform="translate(395.045 45.31)" fill="#d7ceee"/><path d="M0,23.629H6.251V0H0Z" transform="translate(383.424 112.962)" fill="#d7ceee"/><path d="M0,27.9H6.251V0H0Z" transform="translate(394.742 108.69)" fill="#d7ceee"/><path d="M0,32.172H6.252V0H0Z" transform="translate(406.059 104.419)" fill="#d7ceee"/><path d="M0,36.443H6.252V0H0Z" transform="translate(417.374 100.148)" fill="#d7ceee"/><path d="M0,40.714H6.251V0H0Z" transform="translate(428.692 95.877)" fill="#d7ceee"/><path d="M0,44.985H6.252V0H0Z" transform="translate(440.009 91.606)" fill="#d7ceee"/><path d="M0,49.257H6.252V0H0Z" transform="translate(451.325 87.334)" fill="#d7ceee"/><path d="M0,53.528H6.252V0H0Z" transform="translate(462.642 83.063)" fill="#d7ceee"/><path d="M0,57.8H6.252V0H0Z" transform="translate(473.96 78.791)" fill="#d7ceee"/><path d="M0,62.071H6.252V0H0Z" transform="translate(485.276 74.52)" fill="#d7ceee"/><path d="M116.622,0h0c-.556.1-15.521,2.763-16.065,2.763l5.114,1.388L90.339,9.963c-.8,3.5-1.368,5.978-1.819,7.944L77.607,16.89C76.12,18.225,64.661,28.525,63.179,29.858l-11.3-1.437L30.952,46.233c-2.956-1-7.18-2.423-9.758-3.292L0,57.633l1.057,1.521L21.486,44.992l9.868,3.33,21.1-17.963L63.786,31.8,78.242,18.807,89.962,19.9c.5-2.195,1.721-7.513,1.97-8.6l14.547-6.659-1.128,5Z" transform="translate(376.527 50.271)" fill="#ecb2cd"/><path d="M0,61.159H7.96V0H0Z" transform="translate(166.699 245.382)" fill="#56585e"/><path d="M10.339,16.69H0V0H10.339Z" transform="translate(165.575 290.382)" fill="#0a2126"/><path d="M0,20.3,38.124,0V9.247L10.788,20.3v2.03H0Z" transform="translate(127.451 297.826)" fill="#0a2126"/><path d="M38.124,20.3,0,0V9.247L27.336,20.3v2.03H38.124Z" transform="translate(175.914 297.826)" fill="#0a2126"/><path d="M2.552,0V22.329H0v1.579H11.2V22.329H8.83L9.573,0Z" transform="translate(164.713 297.825)" fill="#0a2126"/><path d="M0,12.588H10.275V0H0Z" transform="translate(165.719 241.95)" fill="#303030"/><path d="M12.64,0,0,6.977l10.211,46.28,4.969-.93L9.32,9.348,16.19,6.4Z" transform="translate(131.726 179.169)" fill="#1e0c00"/><path d="M3.06,0,16.373,10.447,14.159,54.325,8.787,53.2l1.878-37.838L0,8.279Z" transform="translate(188.498 179.169)" fill="#1e0c00"/><path d="M48.551,86.452H10.659L.248,22.059A19.03,19.03,0,0,1,19.044,0H40.165a19.03,19.03,0,0,1,18.8,22.059Z" transform="translate(138.874 124.673)" fill="#0089a9"/><path d="M70.9,7.021H0A7.024,7.024,0,0,1,7.027,0h56.85A7.024,7.024,0,0,1,70.9,7.021" transform="translate(136.359 229.983)" fill="#0089a9"/><path d="M31.8,46.569l3.559-2.4s-9.289-15.262-8.332-28.414C27.53,8.813,16.138-1.417,13.11.164,12.928.093,3,.383,2.114,23.055L0,49.616l10.732,9.5S17.5,47.527,26.1,52.62s5.367,2.911,5.367,2.911.333-6.517.333-8.962" transform="translate(158.904 85.64)" fill="#002b32"/><path d="M0,2.355s-.091,25.28,2.471,30.633S3.9,70.282,3.9,70.282l29.557.878s3.781-29.793,3.781-37.939S40.208,2.264,40.208,2.264,20.1-2.89,0,2.355" transform="translate(151.967 130.464)" fill="#746c87"/><path d="M12.508,2.225c.445.445-1.374,12.583.407,16.143,0,0-4.731,26.169-7.915,26.549C2.232,45.247.746,23.008.194,20.469-.548,17.058,1.077,0,1.077,0Z" transform="translate(168.284 112.585)" fill="#fc7575"/><path d="M11.658,7.543C7.43,11.365,3.207,9.561,0,4.769.074,2.354.406.139.412,0L11.843,2.225c.183.182-.013,2.456-.184,5.318" transform="translate(168.95 112.585)" fill="#fd5e5a"/><path d="M13.514.223s5.206.991,5.826,5.45,1.488,8.175.62,13.377S15.993,31.189,10.911,32.3.5,25,.5,20.413-1.362,8.15,2.109,3.443,13.514.223,13.514.223" transform="translate(165.595 86.51)" fill="#fc7575"/><path d="M0,0A20.918,20.918,0,0,0,6.8,1.222a7.2,7.2,0,0,1-.784,1.156A20.844,20.844,0,0,1,.593,1.42,9,9,0,0,1,0,0" transform="translate(173.23 110.723)" fill="#fff"/><path d="M0,0A20.812,20.812,0,0,0,5.422.958C3.483,3.269,1.427,2.71,0,0" transform="translate(173.823 112.143)" fill="#2e0a29"/><path d="M6.943.717s5.206.991,5.826,5.45c.561,4.042,1.327,7.473.82,11.954a14.343,14.343,0,0,0-3.66-1.691C5.331,14.915.645,7.917,0,2.637-.089-1.815,6.943.717,6.943.717" transform="translate(172.166 86.016)" fill="#fd5e5a"/><path d="M2.528,4.282A40.832,40.832,0,0,1,2.309,0a43.661,43.661,0,0,1,.5,4.459A4.077,4.077,0,0,1,0,4.659a4.742,4.742,0,0,0,2.528-.377" transform="translate(176.629 103.443)" fill="#172866"/><path d="M5.82,1.913A2.833,2.833,0,0,0,3.9.054c-1.7-.444-2.739,2-3.9,1.979.836.428,2.177-1,3.1-1.367A1.691,1.691,0,0,1,4.53.838,4.417,4.417,0,0,1,5.82,1.913" transform="translate(170.519 101.395)" fill="#172866"/><path d="M0,.936a.886.886,0,0,0,.828.936A.886.886,0,0,0,1.655.936.886.886,0,0,0,.828,0,.886.886,0,0,0,0,.936" transform="translate(173.26 101.637)" fill="#172866"/><path d="M0,1.808A2.834,2.834,0,0,1,2,.037C3.717-.33,4.643,2.161,5.809,2.19c-.855.39-2.129-1.1-3.033-1.5A1.687,1.687,0,0,0,1.337.791,4.434,4.434,0,0,0,0,1.808" transform="translate(180.12 102.033)" fill="#172866"/><path d="M1.654.972a.887.887,0,0,1-.869.9A.885.885,0,0,1,0,.9.886.886,0,0,1,.87,0a.887.887,0,0,1,.784.972" transform="translate(181.575 102.272)" fill="#172866"/><path d="M6.783,1.789C6.968,1.669,5.484.179,3.7.01S0,1.789,0,1.789,2.622.226,3.728.731,5.757,2.455,6.783,1.789" transform="translate(170.159 97.555)" fill="#172866"/><path d="M4.782,2.256c-.227.68-1.474.876-2.785.438S-.191,1.351.036.671,1.51-.2,2.821.233,5.009,1.576,4.782,2.256" transform="translate(169.758 104.402)" fill="#fd5e5a"/><path d="M4.163.9c.1.648-.751,1.315-1.9,1.489S.106,2.178.008,1.531.759.217,1.906.042,4.064.25,4.163.9" transform="translate(180.946 105.42)" fill="#fd5e5a"/><path d="M13.361,1.368,7.792,3.985S1.481,10.968.083,23.3,15.457,41.692,15.457,41.692l33.078-2.327S60.764,5.879,40.459,1.853c-19.493-3.865-27.1-.485-27.1-.485" transform="translate(146.203 197.638)" fill="#001542"/><path d="M14.827,0s.177,5.847.5,5.975C18.1,7.07,30.268,5.7,31.6,12.648,33.093,20.4,8.451,76.921,10.082,85.3s3.836,15.608,5.176,16.946,1.364,2.481.2,3.644-6.121-.18-7.518-1.578-3.071-12.2-5.575-14.7S-1.13,85.539,1.781,79.6,12.264,27.7,13.2,22.926s-.574-6.885-.574-6.885L1.083,8.728Z" transform="translate(163.372 217.452)" fill="#ff4747"/><path d="M47.221,1.293s-4.31-2.909-12.929,0-14.442,10.125-15.374,13.5-4.776,68.9-9.9,79.6-5.435,11.327-7.687,13.578-1.227,7.8,0,9.031,10.715-1.272,11.8-5S16.55,99.6,17.483,96.957s7.5-27.583,13.766-39.395,8.313-37.881,8.313-40.054,11-2.99,11-2.99S52.89,2.585,47.221,1.293" transform="translate(140.295 211.038)" fill="#fc7575"/><path d="M41.464,0s4.015,2.335,4.581,5.283C48.326,17.17,50.318,47.3,49.384,54.931c-1.164,9.522-4.892,9.522-4.892,9.522L0,59.12,1.864,47.249s30.283,1.862,33.311,1.862,3.247-22.975,3.247-22.975Z" transform="translate(150.711 132.728)" fill="#4d475b"/><path d="M14,0S3.429-.091,1.1,13.409.167,64.362,5.059,64.362,36.988,48.691,40.707,48.691a2.525,2.525,0,0,1-1.933-2.02L37.49,39.478s-21.017.233-24.744,3.957c0,0,3.961-14.664,3.961-20.017S20.524,0,14,0" transform="translate(137.965 132.819)" fill="#988eb6"/><path d="M12.272,2.588S.476-1.347.161.488c-.844,4.915,1.9,7.156,1.9,7.156s7.99,1.2,9.275-.08.933-4.976.933-4.976" transform="translate(175.69 174.03)" fill="#fc7575"/><path d="M.607,1.407,0,20.4s9.007,1.707,11.491.755c1.379-.528,1.64-9.99,1.2-20.93C7.979-.172,5.058-.189.607,1.407" transform="translate(287.759 176.027)" fill="#fd5e5a"/><path d="M14.094,48.676a253.4,253.4,0,0,0-2.188-25.343C9.576,7.971.26,0,.26,0L0,47.283l.205,3.16a32.9,32.9,0,0,1,13.888-1.767" transform="translate(286.361 127.574)" fill="#703c6a"/><path d="M10.059,5.38c0,6.207,1.067,37.18,2.931,47.076S0,79.563,0,87.917s10.871,20.457,10.871,20.457H47.209S58.391,88.045,54.354,78.5,44.725,76.1,47.52,62.442s3.066-32.367,1.514-45.4-8.609-17-20.722-17S10.059-.826,10.059,5.38" transform="translate(243.034 123.122)" fill="#47003f"/><path d="M32.5,1.65S15.378-3.587,7.187,4.6.043,27.874.043,27.874H36.383s11.8-16.6-3.882-26.224" transform="translate(253.861 203.621)" fill="#060032"/><path d="M50.037,7.4C47.479,1.19,44.687,0,42.345,0A15.015,15.015,0,0,0,28.523,9.673c-3.048,7.79-14.849,55.3-16.91,64.093A32.245,32.245,0,0,1,4.189,87.918c-6.452,9.718-4.588,15.964-.2,20.594,0,.59,4.7,1.789,9.939-12.762,1.171-3.251,1.709-5.247,3.106-12.3S52.594,13.608,50.037,7.4" transform="translate(228.775 208.796)" fill="#fd5e5a"/><path d="M13.332,3.387c-1.713,1.078-5.858,3.575-7.5,3.575C4.23,6.962,2.022,2.246,1.062,0-1.313,6.589.573,11.511,3.987,15.116c.639.754,4.348,1.182,9.345-11.729" transform="translate(228.775 302.751)" fill="#482044"/><path d="M50.036,8.892C50.173,2.1,45.986.673,42.668.077,38.5-.673,33.027,4.115,28.523,11.165s-14.848,55.3-16.91,64.094A32.238,32.238,0,0,1,4.189,89.41c-6.452,9.718-4.588,16.064-.2,20.7,0,.59,4.7,1.689,9.939-12.862,1.171-3.251,1.709-5.247,3.106-12.3S49.9,15.6,50.036,8.892" transform="translate(246.083 210.961)" fill="#ff7b7b"/><path d="M12.5,8.964a13.156,13.156,0,0,1-5.88.882C3.291,9.293,2.687,3.771,2.668,0-1.914,8.394-.011,14.423,3.987,18.644c.744.411,3.873,1.112,8.509-9.68" transform="translate(246.083 302.881)" fill="#4b2847"/><path d="M.986.275,9.212,15.464a.245.245,0,0,1-.428.239L.072.789A.525.525,0,0,1,.978.26L.986.275" transform="translate(274.813 178.154)" fill="#99cedc"/><path d="M48.32,9.109c-1.787-1.785-4.5.633-6.983,1.409s-25.779.62-29.04-.155c-1.207-.287-.647-4,.576-9.02A27.836,27.836,0,0,0,1.117.182c-1.275,12.224-1.689,23.052,0,24.167,3.727,2.462,34.734-7.625,37.866-7.625s1.579,1.452,6.238,1.452a16.248,16.248,0,0,0,5.767-.936,1.279,1.279,0,0,0,.738-1.664c-.687-1.777-2.113-5.176-3.4-6.468" transform="translate(231.668 174.27)" fill="#fc7575"/><path d="M11.763,3.179c.131-.588.275-1.2.43-1.836A27.848,27.848,0,0,0,.437.182C.277,1.714.13,3.225,0,4.7A82.057,82.057,0,0,1,11.763,3.179" transform="translate(232.349 174.27)" fill="#fd5e5a"/><path d="M13.741,50.94C17.606,42.482,23.9,28.365,24.39,22.7c.777-9-1.18-22.7-1.18-22.7S12.611,6.57,9.195,14.174C7.325,18.334,1.541,36.165,0,50.94c3.852-.441,9.953-1.251,13.741,0" transform="translate(230.801 124.673)" fill="#95508d"/><path d="M0,2.2H22.357S7.016-2.753,0,2.2" transform="translate(268.173 193.737)" fill="#cef2fa"/><path d="M21.44,1.728H0A85.677,85.677,0,0,1,13.835,0c5.574,0,7.605,1.728,7.605,1.728" transform="translate(290.531 194.212)" fill="#5db9f4"/><path d="M17.637,0S7.209-.3,0,6.905a29.238,29.238,0,0,1,9.016-3.89A39.077,39.077,0,0,1,18.424,1.64Z" transform="translate(290.531 189.035)" fill="#5db9f4"/><path d="M0,.675H23.82L1.288.149Z" transform="translate(266.711 195.265)" fill="#00485c"/><path d="M11.456,36.582c-1.664-10.828-.3-23.5-.3-23.5a7.866,7.866,0,0,1,6.773-1.489c3.879,1.033,5.937,1.675,5.557.57S18.07,9.3,18.07,9.3s4.856-.056,7.335,1.215,3.052-1.185-3.854-2.409S16.9,6.222,18.064,5.825s8.045,1.394,9.869.095c1.69-1.2-9.333-2.413-12.578-2.031C29.478-.117,25.067-1.853,11.7,2.732,7.863,4.047,4.418,9.774,4.336,9.911,3.989,10.366.209,27.853,0,41.195c3.644-1.637,8.09-2.5,11.456-4.613" transform="translate(297.749 134.493)" fill="#fd5e5a"/><path d="M8.261,0C7.225,1.035-4.731,45.7,2.093,47.492s15.135-6.738,15.135-6.738L18.858,3.891Z" transform="translate(291.574 149.086)" fill="#333a6a"/><path d="M4.064,9.39c1.4-3.171,7.267-4,9.149-4.6S16.828.428,18.083.027s.873,3.8-1.025,4.9.534,2.744,2.008,2.759,6.834-.389,8.063-3.163S30.638.092,30.948,1.062s-2.834,5.182-2.834,5.182S33.2,1.605,33.563,2.751s-4.269,4.476-4.269,4.476,3.126-1.438,4.032-.9-7.428,5.681-9.075,6.208-8.154.179-11.371-.151c-1.349-.139-2.025,6.488-4.323,15.147-1.177-2.11-6.9-3.942-8.556-5.678C2.756,15.937,3.51,10.643,4.064,9.39" transform="translate(390.496 137.523)" fill="#fc7575"/><path d="M10.524,0,0,44.2s9.874,1.439,14.018,0S23.335,13.445,23.335.643Z" transform="translate(380.118 153.266)" fill="#333a6a"/><path d="M35.875,15.724,13.937,19.965,0,14.431,13.937,0Z" transform="translate(436.298 219.082)" fill="#47405c"/><path d="M62.9,0S59.335,2.146,55.05,12.555s-4.269,31.96-8.462,33.934C42.918,48.216,13.546,51.8,6.28,52.668A3.414,3.414,0,0,0,3.79,54.245L0,60.294l19.722.645S42.134,72.1,47.865,68.294s22.362-35.322,24.52-44.632S62.9,0,62.9,0" transform="translate(419.759 136.531)" fill="#5f557b"/><path d="M12.424,2.172C11.492,2.172,2.174,0,2.174,0L0,9.621l9.627,4.034Z" transform="translate(427.058 177.806)" fill="#c3edf4"/><path d="M29.061,0S25.786,9.94,16.624,12.4c-3.45.928-19.208,8.7-16.258,8.7,1.121,0,33.779.111,33.779.111s2.439-4.3,1.507-8.18S39.215,0,39.215,0Z" transform="translate(391.786 309.698)" fill="#5f557b"/><path d="M0,0S2.747,16.422,11.368,27.479c6.444,8.265,19.922,17.476,19.922,17.476l-7.635,8.361L2.606,35.953Z" transform="translate(57.98 81.177)" fill="#363a68"/><path d="M16.882,0H0L.546,55.479,22.96,56.988Z" transform="translate(29.57 65.818)" fill="#260e0d"/><path d="M18.556,10.938c9.51,0,9.278,3.906,9.278,3.906H0S1.386,2.839,1.595,0H8.13c.723,3.472,3.122,10.938,10.426,10.938" transform="translate(46.817 320.693)" fill="#260e0d"/><path d="M9.279,12.37C17.937,12.37,19.706,1.883,19.955,0h6.253c0,.511,0,.835,0,.913,0,1.3,1.623,15.363,1.623,15.363H0S-.232,12.37,9.279,12.37" transform="translate(9.568 320.694)" fill="#260e0d"/><path d="M8.888,97.31,0,22.222,2.511,0H51.426l.348,19.582,5.135,76.3s-12.76,63.527-12.542,64.576H35.132c.017-.231,2.61-69.654,2.61-69.654L27.187,28.956,23.059,93.869s1.875,58.513,1.9,66.585H16.27c.025-.185-7.381-63.144-7.381-63.144" transform="translate(12.439 160.239)" fill="#2f1954"/><path d="M0,2.92.33,0H49.244l.045,2.559L39.023,6.048A43.021,43.021,0,0,1,13.27,6.7Z" transform="translate(14.621 160.239)" fill="#0e0e0e"/><path d="M3.06,13.55c5.318-5.971,17.628-15.5,31.2-13.2L48.435,6.642,52.6,37.218,56.337,95.46,5.78,96.04.972,39.346S-2.259,19.52,3.06,13.55" transform="translate(8.5 67.023)" fill="#f1a97e"/><path d="M13.8,5.929s.147,11.948,1.288,18.033a5.06,5.06,0,0,1-2.637,5.629,9.864,9.864,0,0,1-5.876.55C.215,28.93,0,21.788,0,21.788L2.146,0Z" transform="translate(30.679 47.723)" fill="#fc7575"/><path d="M.6,0,12.258,5.929s.054,4.41.353,9.237c-3.042.15-6.864-1.574-10.921-6.773Q.785,7.234,0,6.1Z" transform="translate(32.224 47.723)" fill="#fd5e5a"/><path d="M17.934.443a20.907,20.907,0,0,1,5.716,9.08c1.725,5.689,3.235,9.806,3.235,9.806l-1.834,1.211s1.46,7.943.324,10.653c-1.725,4.117-9,7.446-17.254-1.816S-.83,11.943.572,7.948,14.7-1.616,17.934.443" transform="translate(25.794 22.58)" fill="#fc7575"/><path d="M8.55,22.94A9.917,9.917,0,0,1,17.5,21c5.284,1.452,7.063-.787,6.039-1.937,0,0,4.637.12,6.363-4.117S31.2-2.12,23,.3,16.46,8.534,16.46,8.534,13.835,5.749,11.354,7.2,9.2,10.713,9.2,10.713,6.933,15.434,3.8,16.04,1,23.666,1,23.666-.832,25.119.462,30.2,9.378,43.176,9.378,45.6c0,0,1.869-3.166.359-8.13S8.227,29.6,9.844,29.6,8.55,22.94,8.55,22.94" transform="translate(22.776 8.942)" fill="#121841"/><path d="M3.726,4.177S3.2,0,2.027,0-.238.454.045,2.815s1.5,4.994,3.034,3.9a1.871,1.871,0,0,0,.647-2.542" transform="translate(29.932 37.647)" fill="#fc7575"/><path d="M1.119,1.979a1.526,1.526,0,0,1,.719-.894c1.1-.523,2.563.6,3.529,1.386l.163-.219A7.567,7.567,0,0,0,3.224.263,2.281,2.281,0,0,0,0,1.554Z" transform="translate(18.674 30.227)" fill="#121841"/><path d="M1.38,5.164a5.15,5.15,0,0,1,.038-1.942C2.118.08,5.527.354,5.692.261V.066C5.6.1.762-.948.071,4.124A5.894,5.894,0,0,0,.017,5.473Z" transform="translate(18.324 32.445)" fill="#121841"/><path d="M0,1.861C0,2.889.4,3.723.9,3.723s.9-.833.9-1.861S1.4,0,.9,0,0,.833,0,1.861" transform="translate(44.666 33.77)" fill="#2f499f"/><path d="M.128,2.413a3.669,3.669,0,0,1,4.186-.631L4.652.443A3.986,3.986,0,0,0,0,1.175Z" transform="translate(42.509 31.382)" fill="#2f499f"/><path d="M0,0,3.769,113.046H27.222L20.307,61.7,15.772,30.481S13.573,9.489,8.8,5.737A56.317,56.317,0,0,0,0,0" transform="translate(48.139 67.928)" fill="#555da2"/><path d="M1.767,1.234S1.084-.182.471.02s-.75,3.046.336,4.243,2-.765.96-3.029" transform="translate(31.116 38.905)" fill="#fd5e5a"/><path d="M22.8,0l2.469,113.663H.155s-.946-90.086,1.834-99.5S22.8,0,22.8,0" transform="translate(6.511 67.311)" fill="#555da2"/><path d="M10.8,6.313,0,0,3.489,56.2,9.414,24.321,7.323,22.884Z" transform="translate(46.453 65.818)" fill="#777eb5"/><path d="M10.546,55.666,9.626,0,0,4.373l5.244,18.47L3.913,23.882Z" transform="translate(19.944 65.817)" fill="#777eb5"/><path d="M29.941,30.022l34.816-26.6L27.884,0,0,30.022Z" transform="translate(44.711 107.989)" fill="#1e3340"/><path d="M23.618,0s-3.783.863-5.182,2.392c-1.785,1.951-6.021,5.121-7.8,5.121s-9.361.757-9.361.757L0,16.783s28.288-6.612,29.621-8.068-6.634,1.081-6.634.432,9.6-1.378,9.1-3.013-8.853,2.2-9.6,1.391,10.09-2.162,10.09-3.892S21.8,6.135,21.8,6.135s-.2-.879,2.721-2.284,5.746-2.537,5.1-3.243-8.106,3.772-9.09,2.7Z" transform="translate(31.64 126.717)" fill="#fc7575"/><path d="M15.421,2.519a37.071,37.071,0,0,1,3.291,18.73c-.821,11.056-2.221,28.009.081,33.538s19.164,0,19.164,0V67.868S13.507,78,6.425,74.687.017,42.808.017,28.8,10.9-7.529,15.421,2.519" transform="translate(0 76.752)" fill="#777eb5"/><path d="M0,0A39.162,39.162,0,0,1,2.937,17.87C2.177,28.162-.224,50.5,4.168,53.895c4.236,2.659,13.808.008,18.367-1.628-4.474,1.211-17.14,4.193-18.784-.2-1.4-3.515-1.176-12.011-1.045-15.788C3.215,19.95,5.178,14.19,1.8,4.227A26.089,26.089,0,0,0,0,0" transform="translate(15.421 79.271)" fill="#eef1f9"/><path d="M6.432,1.946,6.107,4A8.694,8.694,0,0,1,0,0C2.425,2.474,6.432,1.946,6.432,1.946" transform="translate(42.812 47.724)" fill="#2b3278"/><path d="M9.542.872a11.561,11.561,0,0,1,1.272,2.492c.756,1.82-1.348,3.69-1.761,4.084A19.943,19.943,0,0,1,5.978,9.728a7.234,7.234,0,0,1-2.292.96C2.441,10.966-.349,6.443.036,6.01c.257-.29.57-.517.86-.427.306.1,3.4,2.565,3.4,2.565S1.5,4.589,1.821,3.531s.918-.929,1.161-.66,3.794,3.61,3.794,3.61S4.382,2.229,4.588,1.538,5.762.363,6.86,2.076A20.36,20.36,0,0,0,9.093,4.6S7.746,1.392,8.057.357,9.542.872,9.542.872" transform="translate(75.361 125.503)" fill="#fc7575"/><path d="M14.259,0a11.139,11.139,0,0,0,.306,1.1c.656,2,2.492,6.128,6.689,7.15,5.594,1.361,10.016-.115,11.029.9s1.385,4.134,1.385,4.134L0,14.85,1.986,1.109Z" transform="translate(336.702 322.555)" fill="#403003"/><path d="M0,.607,12.924,87.732,30.2,84.981,27.394,0Z" transform="translate(323.588 239.221)" fill="#403003"/><path d="M24.293,5.452s-4.274,3.642-4.274,7.455L5.234,23.8H0S10.9,10.17,13.093,6.763A14.481,14.481,0,0,0,15.376,0Z" transform="translate(310.495 314.045)" fill="#4c3d65"/><path d="M60.23,9.3c-4.8-14.43-17.981-7.756-17.981-7.756-8.23,1.554-20.488,29.946-22.2,38.8C18.82,46.735,6.668,75.8,0,91.485c4.624-2.513,10.744-1.048,13.422,3.305C27.543,71.442,61.806,14.039,60.23,9.3" transform="translate(321.283 228.56)" fill="#554004"/><path d="M15.329.116s4.042,1.169,5.332,3.85-5.332,7.861-5.332,10.22,1.748,4.367,0,5.241S-.756,20.443.031,17.576s6.417-6.1,8.716-9.68S13.088-.837,15.329.116" transform="translate(309.755 321.647)" fill="#322844"/><path d="M49.15,1.311S70.814-4.935,63.785,9.836C62.424,12.695,0,16.988,0,11.762S3.96,1.311,3.96,1.311Z" transform="translate(316.333 233.494)" fill="#403003"/><path d="M8.07,3.816A62.451,62.451,0,0,1,24.331.07C29.217-.348,34.1,1.234,39.6,1.234c15.53,0,30.516,4.112,32.154,11.647C73.4,20.462,52.936,94.044,57.6,98.7s-41.14,7.586-46.886,1.845S-8.7,10.334,8.07,3.816" transform="translate(309.661 137.468)" fill="#000945"/><path d="M4.65,1.707,0,17.366s12.159,4.8,20.312,0L17.749,0Z" transform="translate(333.992 121.788)" fill="#f66d75"/><path d="M25.663,0S12.606,17.512,9.817,25.891-.611,48.49.039,52.194s5.193,7.354,12.793,5.529a8.889,8.889,0,0,0,7.053-9.166Z" transform="translate(292.068 141.284)" fill="#000945"/><path d="M12.718,0S29.1,45.142,25.857,48.384s-14.018,0-14.018,0L0,25.305Z" transform="translate(368.279 149.086)" fill="#000945"/><path d="M9.1.051S3,8.056,2.083,13.489C1.141,19.078,0,28.014,0,28.014H2.482S4.55,32.973,4.55,36.279s5.239,1.24,8.271,1.24S22.609,34.9,25.228,25.4,32.671-1.051,9.1.051" transform="translate(470.614 85.007)" fill="#fc7575"/><path d="M5.019,0l-3.7,2.753L0,7.8,5.293,5.374Z" transform="translate(481.847 130.27)" fill="#98b0bf"/><path d="M8.724,0l9.237,21.214S.247,27.068,1.143,26.172,0,9.642,0,9.642Z" transform="translate(484.359 110.266)" fill="#fc7575"/><path d="M1.635,2.848c-.281.474-5.069,10.2,3.186,13.916s10.306-1.634,12.512,1.671-1.913,8.656-.121,11.687l2.75.526s.559-1.629,1.663-1.629,1.414,8.346,3.188,8.346,5.221-7.106,6.876-10.412S36.788,12.49,30.446,9.6s-9.1-.689-9.1-3.444-2.757.138-2.757.138a4.845,4.845,0,0,1-.552-4.408C19.005-.459,11.285-1.285,9.493,3.4S4.668-2.249,1.635,2.848" transform="translate(469.806 76.425)" fill="#2d1175"/><path d="M0,58.892H7.96V0H0Z" transform="translate(498.276 268.903)" fill="#56585e"/><path d="M10.338,16.073H0V0H10.338Z" transform="translate(497.152 312.234)" fill="#0a2126"/><path d="M0,19.547,38.123,0V8.9L10.787,19.547V21.5H0Z" transform="translate(459.028 319.402)" fill="#0a2126"/><path d="M38.124,19.547,0,0V8.9L27.336,19.547V21.5H38.124Z" transform="translate(507.49 319.402)" fill="#0a2126"/><path d="M2.552,0V21.5H0v1.521H11.2V21.5H8.831L9.573,0Z" transform="translate(496.29 319.403)" fill="#0a2126"/><path d="M0,20.587H10.209V0H0Z" transform="translate(497.151 256.438)" fill="#303030"/><path d="M23.867,0s-7.434,7.449-9.919,9.931S-2.4,13.694.361,16.448s9.878,6.314,13.13,6.314,15.676-2.781,15.676-2.781S30.586,7.543,32.274,5.856Z" transform="translate(368.984 272.261)" fill="#47405c"/><path d="M47.531,0C36.971,0,0,60.528,0,60.528l3.706,3.414,9.932,7.379C15.324,69.634,54,21.782,54,21.782S69.009,27.9,80.5,27.9,105.756,4.168,105.756,4.168C104.419,2.832,58.091,0,47.531,0" transform="translate(389.145 208.319)" fill="#5f557b"/><path d="M42.864,81.025c.019-.219.041-.438.059-.646C43.7,71.379,46.147,0,33.549,0c0,0-14.514,2.613-23.762,14.353-1.56,1.979-1.835,3.76-2.525,6.46-4.6,18-7.648,51.375-7.223,64.033,14.2,5.624,30.108,5.259,42.824-3.82" transform="translate(470.325 126.754)" fill="#c3edf4"/><path d="M15.035,0C13.793,0,1.094,12.23,1.094,12.23L0,19.262,19.859,9.994Z" transform="translate(484.014 120.639)" fill="#caebff"/><path d="M6.35,0l-3.1,1.291L0,8,1.849,7.42l3.762-2.8Z" transform="translate(478.631 133.687)" fill="#c33ea4"/><path d="M14.131,0S6.615,38.1,4.86,71.617L0,75.957A121.922,121.922,0,0,0,.621,63.078c0-7.6,7.874-57.027,11.663-62.5Z" transform="translate(466.348 141.107)" fill="#743064"/><path d="M39.7,0A41.306,41.306,0,0,0,30.96,2.92c-1.387,5.616-9.168,18.6-12.634,32.444C15.735,45.713,9.694,59.2,8.7,67.81c-.858,7.4-2.257,13.756-2.743,18.1C4.782,96.4,0,114.224,0,114.224l45.191-6.172S48.3,89.379,49.074,80.379,52.3,0,39.7,0" transform="translate(464.173 126.754)" fill="#7f71a4"/><path d="M14.29,24.843l-8.8-1A6.188,6.188,0,0,1,.04,17L1.974,0l21.1,2.4-1.931,17a6.191,6.191,0,0,1-6.852,5.448" transform="translate(483.77 200.56)" fill="#988eb6"/><path d="M24.162,0,12.109,10.245,0,68.751S13.877,44.48,13.523,41.973a10.031,10.031,0,0,0-2.506-4.725S24.162,4.318,24.162,0" transform="translate(473.342 124.872)" fill="#b2aac8"/><path d="M5.592,0,1.514,2.856,0,8.849,9.606,5.225Z" transform="translate(495.99 122.016)" fill="#b2aac8"/><path d="M15.7,14.1H3.515A3.514,3.514,0,0,1,0,10.591V0H19.211V10.591A3.514,3.514,0,0,1,15.7,14.1" transform="translate(491.884 243.002)" fill="#303030"/><path d="M46.212.008S1.886-.3.483,2.795s.693,39.282.693,39.282l5.279-.949S4.271,10.434,7.543,7.165s39.134,1.687,39.6,1.221S46.212.008,46.212.008" transform="translate(471.384 198.902)" fill="#1e0c00"/><path d="M.931,2.258c-2.36,2.485.461,29.355.868,32.735.335-15.2-.132-27.923.622-31.268C4.874,2.217,23.369,1.588,38.369.421,33.279.1,4.444-.947.931,2.258" transform="translate(470.366 198.502)" fill="#b2aac8"/><path d="M78.89,8.483H0A8.486,8.486,0,0,1,8.489,0h70.4Z" transform="translate(459.204 234.805)" fill="#0a6980"/><path d="M18.636,0S0,8.935,0,38.607A132.263,132.263,0,0,0,10.872,90.828H26.089S6.522,49.014,15.529,31.18,39.755,3.414,18.636,0" transform="translate(512.005 143.978)" fill="#0a6980"/><path d="M68.329,30.676C76.928,13.648,91.191,3.825,74.083,0c12.657,4.277-.426,13.917-8.508,29.92C56.566,47.754,76.133,89.568,76.133,89.568v8.483H.034c-.023.249-.034.5-.034.756H78.889V90.324S59.322,48.51,68.329,30.676" transform="translate(459.205 144.481)" fill="#084f60"/><path d="M66.572.45C60.945,1.782,54.224,5.907,50.514,17.08S43.076,43.811,38.108,46.086.82,45.8.82,45.8L0,60.307s35.273,10.345,44.724,9.31S70.78,35.03,75.827,22.9C85.55-.471,72.482-.948,66.572.45" transform="translate(433.071 132.007)" fill="#988eb6"/><path d="M65.752,0C49.868,4.852,50.525,21.419,43.532,38.461c-1.115,2.6-3.253,7.112-5.93,8.126-.6-.008-3.989,3.038-37.6-1.239,11.26.25,34.293,1.047,37.281-.872C41.776,41.388,45.686,24.953,49.2,15.6A28.216,28.216,0,0,1,55.425,5.475,19.5,19.5,0,0,1,65.752,0" transform="translate(433.891 132.457)" fill="#d4c5f6"/><path d="M33.78,24.268C29.52,44.783,16.2,92.741,16.2,92.741L0,88.05S10.131,11.2,18.323,3.017s19.718.736,15.457,21.251" transform="translate(415.724 222.533)" fill="#7f71a4"/><path d="M6.523.094S11-.588,13.312,1.724a14.507,14.507,0,0,1,3.227,5L0,6.234S2.575-.078,6.523.094" transform="translate(419.759 190.591)" fill="#313b3d"/><path d="M.388,7.536S2.963,1.224,6.911,1.395c0,0,4.478-.681,6.789,1.63a13.437,13.437,0,0,1,1.093,1.238A16.434,16.434,0,0,0,13.312,2.14C11-.648,8.074.037,6.523.173,2.585.521,0,7.585,0,7.585Z" transform="translate(419.371 189.289)" fill="#c3edf4"/><path d="M4.73.93S2.483.716,1.667,1.512.335,2.889.076,3.141s-.039,3.492,3.7,4.306,3.066-.95,4.138-.5,2.288,1.144,2.826.62,1.252.756,2.028,0S11.406,2.031,10.18.837s-2.107-.76-3.1-.76A5.712,5.712,0,0,0,4.73.93" transform="translate(421.353 189.754)" fill="#fc7575"/><path d="M0,128.261H4.357V0H0Z" transform="translate(433.731 204.736)" fill="#743064"/><path d="M0,128.261H4.357V0H0Z" transform="translate(90.65 203.967)" fill="#743064"/><path d="M0,128.26H4.357V0H0Z" transform="translate(131.232 200.746)" fill="#743064"/></g></g><path d="M0,9.1H374.71V0H0Z" transform="translate(78.128 196.578)" fill="url(#h)"/><g transform="translate(0 0.498)"><path d="M63.08,98.856H13.848L.322,25.223C-2.107,12,9.506,0,24.743,0H52.185c15.237,0,16.391,17.765,15.62,32.016L65.746,61.149Z" transform="translate(297.174 149.087)" fill="#0089a9"/><path d="M5.424,31.534C2.994,18.306,14.609,6.31,29.845,6.31H57.287a13.872,13.872,0,0,1,7.849,2.154C62.845,3.42,58.871,0,52.185,0H24.744C9.507,0-2.107,12,.322,25.223L13.849,98.856h3.943Z" transform="translate(297.174 149.087)" fill="#339cb4"/><path d="M0,353.852H585.214V0H0Z" fill="none"/><g clip-path="url(#a)"><path d="M0,77.122H7.96V0H0Z" transform="translate(338.688 260.054)" fill="#666e9e"/><path d="M10.339,18.321H0V0H10.339Z" transform="translate(337.564 319.438)" fill="#371c45"/><path d="M0,22.283,38.124,0V10.151L10.788,22.283v2.228H0Z" transform="translate(299.44 327.608)" fill="#371c45"/><path d="M38.123,22.283,0,0V10.151L27.336,22.283v2.228H38.123Z" transform="translate(347.903 327.608)" fill="#371c45"/><path d="M2.553,0V24.511H0v1.734H11.2V24.511H8.831L9.575,0Z" transform="translate(336.702 327.608)" fill="#371c45"/><path d="M0,7.827H10.275V0H0Z" transform="translate(337.531 253.23)" fill="#303030"/><path d="M88.828,9.942H0A9.946,9.946,0,0,1,9.95,0H78.879a9.945,9.945,0,0,1,9.949,9.942" transform="translate(298.319 243.288)" fill="#004555"/><path d="M2.223,0S16.512,5.678,23.137.437l1.991,4.59S22.854,9,13.675,9.7A15.532,15.532,0,0,1,0,3.9Z" transform="translate(331.166 133.961)" fill="#333a6a"/><path d="M3.292,1.33S.014-1.16.014.675-.354,9,2.715,7.194s.577-5.865.577-5.865" transform="translate(332.02 110.401)" fill="#f66d75"/><path d="M8.291,4.618S2.1,2.588.385,8.889,3.212,21.667,3.212,24.806s1.69,6.746,4.65,9.7,9.871,6.042,9.871,6.042,7.694-4.748,10.316-9.989,1.049-8.735,2.1-16.6S25.815,3.481,23.522,3.481,13.367-5.062,8.291,4.618" transform="translate(330.78 88.984)" fill="#170053"/><path d="M26.632,7.858.479,0,0,6.792l17.605,3.942L13.316,34.395l5,.378Z" transform="translate(362.513 209.206)" fill="#1e0c00"/><path d="M17.368,4.024c0-1.912-1.5-2.511-3.368-2.929C7.633-.325-.563-.579.031,1.634.8,4.516,6.922,8.479,11.074,8.479a7.372,7.372,0,0,0,6.117-3.4Z" transform="translate(263.131 121.333)" fill="#4b2847"/><path d="M11.184,10.27l1.337,15.322A15.28,15.28,0,0,1,0,25.123L2.774,0Z" transform="translate(264.607 106.107)" fill="#fc7575"/><path d="M7.564,9.239l.575,6.59a4.375,4.375,0,0,1-1.925-.551C.88,12.406.094,4.5,0,0Z" transform="translate(268.226 107.139)" fill="#fd5e5a"/><path d="M17.2.533a9.112,9.112,0,0,1,3,5.389c.549,3.471-1.768,7.359-1.768,10.282S12.991,33.048,6.227,29.76.011,15.877.011,13.5,3.3,2.908,7.324.989,17.2.533,17.2.533" transform="translate(268.214 89.459)" fill="#fc7575"/><path d="M5.038,4.2A6.622,6.622,0,0,0,3.775,1.368C2.773.173,0,0,0,0S2.619.638,3.258,1.462a5.929,5.929,0,0,1,.9,2.013Z" transform="translate(277.131 99.47)" fill="#510b5e"/><path d="M0,1.181A4.968,4.968,0,0,1,2.205.014C3.344-.159,4.35,1.338,4.35,1.338S3.145.278,2.382.434a4.4,4.4,0,0,0-1.569.822Z" transform="translate(283.672 103.639)" fill="#510b5e"/><path d="M0,0C2.047.863,2.981,1.739,5.678,1.613A5.288,5.288,0,0,1,0,0" transform="translate(275.513 112.844)" fill="#fff"/><path d="M1.76,1.47c-.193.662-.728,1.087-1.2.951S-.123,1.637.07.976.8-.111,1.266.026s.688.783.494,1.445" transform="translate(277.686 103.144)" fill="#510b5e"/><path d="M0,.873c4.1-2.24,4.608.481,5.594.966C4.735,1.629,4.053.425,3.055.381A14.308,14.308,0,0,0,0,.873" transform="translate(275.473 102.999)" fill="#42004a"/><path d="M1.367,1.25c-.214.508-.669.79-1.017.632A.919.919,0,0,1,.11.676C.324.169.779-.115,1.126.044A.919.919,0,0,1,1.367,1.25" transform="translate(284.389 106.372)" fill="#510b5e"/><path d="M0,1.3c2.964-2.818,3.839-.213,4.726.117C3.99,1.335,3.23.251,2.408.356A10.051,10.051,0,0,0,0,1.3" transform="translate(283.006 106.104)" fill="#42004a"/><path d="M4.412,2.4A2.053,2.053,0,0,1,1.751,3.408a2.049,2.049,0,0,1-1.7-2.281A2.053,2.053,0,0,1,2.714.119,2.051,2.051,0,0,1,4.412,2.4" transform="translate(272.663 104.589)" fill="#fd5e5a"/><path d="M3.821,0A45.612,45.612,0,0,0,1.94,5.343,3.369,3.369,0,0,1,0,4.762a3.148,3.148,0,0,0,2.154.879A47.516,47.516,0,0,0,3.821,0" transform="translate(279.648 106.104)" fill="#510b5e"/><path d="M4.873.532a9.112,9.112,0,0,1,3,5.389C8.418,9.392,8.978,15.67,6.1,16.2,4.433,16.512-1.346,6.944.288,0A21.672,21.672,0,0,1,4.873.532" transform="translate(280.536 89.459)" fill="#fd5e5a"/><path d="M1.69,0,0,7.5c1.933,3.032,11.858,18.609,14.481,22.8,1.625,2.6,3.494-14.968,4.545-27.909C11.767,4.677,7.717,5.829,1.69,0" transform="translate(261.472 122.967)" fill="#95508d"/><path d="M0,3.135S-.131,8.572,1.18,8.572s4.186-3.079,3.7-6.354S.6-.666,0,3.135" transform="translate(489.064 99.292)" fill="#fc7575"/><path d="M.214,1.139S-.441,3.3.542,4.284,3.421,2.908,2.375,1.139.42-.107.214,1.139" transform="translate(489.768 100.698)" fill="#fd5e5a"/><path d="M.21,0,0,1.314s2.305-.275,3.57.987S5.009,3.708,5.009,3.708,4.337.735.21,0" transform="translate(475.473 100.327)" fill="#2d1175"/><path d="M2.029,1.2a1.122,1.122,0,0,1-1.015,1.2A1.12,1.12,0,0,1,0,1.2,1.12,1.12,0,0,1,1.014,0,1.122,1.122,0,0,1,2.029,1.2" transform="translate(476.137 103.176)" fill="#2d1175"/><path d="M.437,12.485A22.432,22.432,0,0,0,0,15.84c0,1.223,3.059,2.577,5.814,1.791s6.578-2.6,7.518-3.539S15.023.477,15.023.477L12.53,0S11.3,8.262,10.272,9.288s-9.834,3.2-9.834,3.2" transform="translate(474.487 106.547)" fill="#2d1175"/><path d="M0,2.674a4.325,4.325,0,0,0,2.211-.551,2.167,2.167,0,0,0,.73-.756A2.343,2.343,0,0,0,3.217.388L3.222.345a.4.4,0,0,1,.785.1A.517.517,0,0,1,4,.5a3.037,3.037,0,0,1-.57,1.2,2.685,2.685,0,0,1-1.036.769,4.5,4.5,0,0,1-2.39.2" transform="translate(476.213 113.839)" fill="#2d1175"/><path d="M2.08,0a3.1,3.1,0,0,0,.674,1.611C4.2,3.49,7.017,3.757,8.9,4a12.7,12.7,0,0,1-4.873-.1A5.335,5.335,0,0,1,0,.28Z" transform="translate(465.726 89.191)" fill="#2d1175"/><path d="M5.227,6.592C4.079,6.592,3.256,2.315,2.9,0A16.193,16.193,0,0,1,1.332,1.74c-2.252,2.249-1.227,7.8,0,9.031s10.715-1.273,11.8-5c.154-.532.335-1.164.533-1.866-2.449.923-7.279,2.684-8.44,2.684" transform="translate(140.295 317.273)" fill="#322554"/><path d="M3.443,0S0,5.71,0,8.392,1.721,26.2,1.721,26.2l2.3.083S2.333,15.937,3.795,15.558,7.606,29.315,7.606,29.315l11.889.805a8.531,8.531,0,0,0-3.439-6.727c-3.642-2.795-3.816-1.868-5.565-7.836S3.443,0,3.443,0" transform="translate(162.131 295.754)" fill="#322554"/><path d="M.028.793s-.278,4,.91,5.186,6.933.431,6.933-2.594S1.8-.978.028.793" transform="translate(162.985 227.591)" fill="#ff4747"/><path d="M1.75.391C-2.907,2.189,2.8,7.382,6.47,6.769S7.52-1.837,1.75.391" transform="translate(280.586 219.176)" fill="#ff4747"/><path d="M7.5,1.5S5.477-.463,1.28.1,4.269,7.794,7.583,7,7.5,1.5,7.5,1.5" transform="translate(261.385 216.058)" fill="#ff4747"/><path d="M2.494.08C4.2-.1,6.163-.06,6.163,1.044,6.163,3,0,4.466,0,2.882A2.858,2.858,0,0,1,2.494.08" transform="translate(234.079 192.194)" fill="#ff4747"/><path d="M11.989,14.511s-.624-5.881-1.346-6.67S3.6-.795,2.81.066,7.5,7.122,7.5,7.122,1.027,1.053.677,2.433,6.622,9.619,6.622,9.619,0,4.583,0,5.663c0,0,6.2,6.492,6.416,6.724a27.21,27.21,0,0,1,.781,3.5Z" transform="translate(145.106 159.359)" fill="#fc7575"/><path d="M.232,0S3.3,1.447,3.3,2.6s.921,6.573.921,6.573L1.6,8.048l.51-4.861S-.831,0,.232,0" transform="translate(151.967 160.202)" fill="#fc7575"/><path d="M34.97.043c-3.795.434-9.807-.494-12.608,5.7A47.389,47.389,0,0,0,17.32,28.071C17.32,46.01,0,53.951,0,53.951l7.591,3.664,4.533-3.664L9.033,60.538,21.48,61.78l.53-8.593,2.573,9.771L30.4,61.78s-2.293-29.357-2.545-40.444l.063.074s-.052-1.428-.054-3.265c0,0,0-.008,0-.011.03-.54.032-1.091.011-1.651a33.755,33.755,0,0,1,.352-4.859c.558-3.035,1.674-4.583,4.4-5.884s12.494,2.4,12.494,2.4C44.786,2.5,38.764-.391,34.97.043" transform="translate(139.538 82.913)" fill="#1b2b80"/><path d="M7.427.189C12.2,1.242,13.64,8.58,17.545,12.482s2.913,9.537,1.054,13.254-4.84,1.3-4.84,1.3,1.555.867,2.547-2.23-.744-5.512-6.012-7.246S0,4.864,0,4.864C-.127,2.721,2.655-.863,7.427.189" transform="translate(172.163 83.789)" fill="#2f499f"/><path d="M13.754,22.171c1.809,1.054,4.362-3.373,2.5-6.265-1.354-2.236-4.321-3.178-6.694-4.158C5.8,9.592,2.19,3.637,0,0,1.587,4.341,4.952,10.362,9.009,12.761l.977.423c1,.4,4.055,1.226,5.53,3.211,1.188,1.56.621,3.98-.168,5.125a1.4,1.4,0,0,1-1.595.651" transform="translate(172.167 88.654)" fill="#023135"/><path d="M4.421,4.579S3.094-1.173.885.216s.163,7.755,2.221,7.755S4.421,4.579,4.421,4.579" transform="translate(164.028 100.301)" fill="#fc7575"/><path d="M1.19.124S4.451,5.352,2.213,4.775-.907-.848,1.19.124" transform="translate(165.114 101.604)" fill="#fd5e5a"/><path d="M0,0C5.417,1.363,7.548,6.657,4.842,10.732a2.727,2.727,0,0,1-1.905,1.4V10.963c.3.05.884-.583,1.07-.824C6.712,6.694,5.044,1.684,0,0" transform="translate(285.864 90.337)" fill="#560d68"/><path d="M1.058,0A10.294,10.294,0,0,1,7.666,2.817c2.8,2.8,1.964,13.853,0,15.493s5,3.192.829,3.192S-2.669.39,1.058,0" transform="translate(280.824 86.642)" fill="#510b5e"/><path d="M41.186,7.137c.055-.188-2.139-6.111-7.532-6.991C27.2-.908,19.577,3.89,17.246,10.4S12.813,24.326,6.437,26.176-1.1,37.41.884,43.3s8.089,4.385,8.089,4.385-3.736-3.253-2.742-4.247c0,0,2.847,5.516,6.069,4.42a9.568,9.568,0,0,0,4.524-2.885s-5.555-.852-1.9-3.933c2.546-2.146,3.842-4.11,6.858-7.74,2.886-3.473,1.374-12.773,3.884-19.449a2.839,2.839,0,0,0,1.588.59c3.412.356,1.86-2.133,5.107-5.849,5.57-3.136,8.452-1.442,8.827-1.455" transform="translate(245.54 84.595)" fill="#510b5e"/><path d="M16.393,0a24.635,24.635,0,0,1,1.389,8.384c-.415,8.215-9.141,3.929-11.564,4.1A2.443,2.443,0,0,0,4,15.767c.435,1.527,1.426,1.985,1.941,2.6a1.561,1.561,0,0,1-.536,2.492c-1.8.9-4.016-1.138-4.741,1.3A5.056,5.056,0,0,0,1.991,27.19,5.189,5.189,0,0,1,.113,22.007c.44-2,1.829-1.91,3.745-1.768,1.185.078,1.617-.493,1.521-.857-.076-.714-1.724-.987-2.437-3.3A3.566,3.566,0,0,1,4.553,11.78c4-2.309,12.917,6,12.536-6.218A32.537,32.537,0,0,0,16.393,0" transform="translate(247.93 99.109)" fill="#560d68"/><path d="M3.778,2.911S3.912-.252,2.262.016s-2.8,2.426-2,4.531S4,5.717,3.778,2.911" transform="translate(268 97.922)" fill="#fc7575"/><path d="M1.848,2.13S2.072.192,1.347.015-.135,1.35.021,2.352A.928.928,0,0,0,1.848,2.13" transform="translate(269.284 99.193)" fill="#fd5e5a"/></g></g></g></svg>