<svg xmlns="http://www.w3.org/2000/svg" xmlns:xlink="http://www.w3.org/1999/xlink" width="926.739" height="402.538" viewBox="0 0 926.739 402.538"><defs><clipPath id="a"><path d="M0,0H402.981V273.463H0Z" fill="none"/></clipPath><clipPath id="b"><path d="M133.728,62.8H8.176a8.877,8.877,0,0,1-5.782-2.045A6.466,6.466,0,0,1,0,55.815V6.982A6.467,6.467,0,0,1,2.395,2.045,8.877,8.877,0,0,1,8.176,0a8.877,8.877,0,0,1,5.782,2.045,6.467,6.467,0,0,1,2.395,4.937V37.5c0,3.85,3.668,6.982,8.176,6.982H74.244c4.306,0,7.89-2.871,8.16-6.537.011-21.486.015-28.909.015-30.527V7.362c0-.079,0-.206,0-.38a6.467,6.467,0,0,1,2.395-4.937A8.877,8.877,0,0,1,90.6,0h43.132a8.877,8.877,0,0,1,5.782,2.045A6.467,6.467,0,0,1,141.9,6.982V55.815a6.466,6.466,0,0,1-2.395,4.936A8.877,8.877,0,0,1,133.728,62.8Z" transform="translate(0 0)" fill="none"/></clipPath><linearGradient id="c" x1="-0.021" y1="0.287" x2="1.045" y2="0.722" gradientUnits="objectBoundingBox"><stop offset="0" stop-color="#f47938"/><stop offset="1" stop-color="#fffb4d"/></linearGradient><clipPath id="d"><path d="M0,0H287.711V275.991H0Z" fill="none"/></clipPath></defs><g transform="translate(-126.702 -662.817)"><g transform="translate(228 -25)"><path d="M194.519,10.519c0,5.809-43.544,10.519-97.259,10.519S0,16.328,0,10.519,43.544,0,97.26,0s97.259,4.71,97.259,10.519" transform="translate(193.347 1067.615)" fill="#2846a6"/><g transform="translate(141.512 816.892)"><path d="M0,0H402.981V273.463H0Z" transform="translate(0 0)" fill="none"/><g transform="translate(0 0)" clip-path="url(#a)"><path d="M214.252,0S-34.067,4.436,3.961,118.725,318.277,282.633,356.015,272.077,488.979,15.085,214.252,0" transform="translate(0)" fill="#ffd6d6"/></g></g><g transform="translate(0 -109.915)"><path d="M482.756,334.373H7.385A7.382,7.382,0,0,1,0,326.993V7.378A7.382,7.382,0,0,1,7.385,0H482.756a7.383,7.383,0,0,1,7.385,7.378V326.993a7.384,7.384,0,0,1-7.385,7.381" transform="translate(335.3 799.937)" fill="#7796fe"/><path d="M0,189.177H121.426V0H0Z" transform="translate(380.405 862.006)" fill="#a2b7fd"/><path d="M0,10.636H258.13V0H0Z" transform="translate(535.825 862.006)" fill="#698bfd"/><path d="M0,12.3H258.13V0H0Z" transform="translate(535.825 884.507)" fill="#698bfd"/><g transform="translate(335.3 797.732)"><path d="M482.756,54.163H7.385C3.306,54.163,0,48.577,0,41.685V12.479C0,5.59,3.306,0,7.385,0H482.756c4.077,0,7.385,5.59,7.385,12.479V41.685c0,6.892-3.308,12.479-7.385,12.479" fill="#004d54"/><path d="M0,31.794H325.852V0H0Z" transform="translate(18.337 8.971)" fill="#fff"/><path d="M12.807,20.95h0a1.391,1.391,0,0,1-1.2-.714c-.035-.071-.072-.148-.1-.221l-2.653-7a6.055,6.055,0,0,1-2.469.528A6.591,6.591,0,0,1,0,6.772,6.59,6.59,0,0,1,6.376,0a6.59,6.59,0,0,1,6.376,6.772,6.875,6.875,0,0,1-2.51,5.374L14,18.68a1.543,1.543,0,0,1-.468,2.053A1.329,1.329,0,0,1,12.807,20.95ZM6.376,1.632a5,5,0,0,0-4.842,5.14,5,5,0,0,0,4.842,5.142,5,5,0,0,0,4.842-5.142A5,5,0,0,0,6.376,1.632Z" transform="translate(325.828 14.975)" fill="#121841"/><path d="M0,16.605H27.539V0H0Z" transform="translate(357.574 8.973)" fill="#f57408"/></g><g transform="translate(556.79 914.642)"><path d="M0,202.966H226.786V0H0Z" fill="#e4edff"/><path d="M0,85.8H89.813V0H0Z" transform="translate(23.581 32.292)" fill="#fff"/><path d="M0,71.3H89.813V0H0Z" transform="translate(133.132 131.664)" fill="#fff"/><path d="M0,9.227H109.757V0H0Z" transform="translate(60.945 10.148)" fill="#f57408"/><g transform="translate(129.161 32.292)"><path d="M0,4.613H93.783V0H0Z" fill="#698bfd"/><path d="M0,4.613H93.783V0H0Z" transform="translate(0 7.996)" fill="#698bfd"/><path d="M0,4.613H93.783V0H0Z" transform="translate(0 15.99)" fill="#698bfd"/><path d="M0,4.613H93.783V0H0Z" transform="translate(0 23.986)" fill="#698bfd"/><path d="M0,4.611H93.783V0H0Z" transform="translate(0 31.984)" fill="#698bfd"/><path d="M0,4.613H93.783V0H0Z" transform="translate(0 39.978)" fill="#698bfd"/><path d="M0,4.613H93.783V0H0Z" transform="translate(0 47.974)" fill="#698bfd"/><path d="M0,4.611H93.783V0H0Z" transform="translate(0 55.97)" fill="#698bfd"/><path d="M0,4.613H93.783V0H0Z" transform="translate(0 63.966)" fill="#698bfd"/><path d="M0,4.613H93.783V0H0Z" transform="translate(0 71.959)" fill="#698bfd"/><path d="M0,4.613H93.783V0H0Z" transform="translate(0 79.955)" fill="#698bfd"/></g></g></g><path d="M0,66.429H3.859L19.224.295,13.631,0Z" transform="translate(306.071 1012.51)" fill="#1f1a15"/><path d="M19.224,66.429H15.365L0,.294,5.594,0Z" transform="translate(349.459 1013.703)" fill="#1f1a15"/><path d="M0,66.43H3.859L19.224.294,13.63,0Z" transform="translate(214.152 1011.055)" fill="#1f1a15"/><path d="M0,6.956V55.6c0,3.841,3.664,6.955,8.185,6.955h125.69c4.52,0,8.185-3.114,8.185-6.955V6.956C142.061,3.115,138.4,0,133.875,0H8.185C3.664,0,0,3.115,0,6.956" transform="translate(217.012 954.632)" fill="#450000"/><g transform="translate(217.321 944.465)"><path d="M133.728,62.8H8.176a8.877,8.877,0,0,1-5.782-2.045A6.466,6.466,0,0,1,0,55.815V6.982A6.467,6.467,0,0,1,2.395,2.045,8.877,8.877,0,0,1,8.176,0a8.877,8.877,0,0,1,5.782,2.045,6.467,6.467,0,0,1,2.395,4.937V37.5c0,3.85,3.668,6.982,8.176,6.982H74.244c4.306,0,7.89-2.871,8.16-6.537.011-21.486.015-28.909.015-30.527V7.362c0-.079,0-.206,0-.38a6.467,6.467,0,0,1,2.395-4.937A8.877,8.877,0,0,1,90.6,0h43.132a8.877,8.877,0,0,1,5.782,2.045A6.467,6.467,0,0,1,141.9,6.982V55.815a6.466,6.466,0,0,1-2.395,4.936A8.877,8.877,0,0,1,133.728,62.8Z" transform="translate(0 0)" fill="none"/><g transform="translate(0 0)" clip-path="url(#b)"><path d="M133.728,62.8H8.176a8.877,8.877,0,0,1-5.782-2.045A6.466,6.466,0,0,1,0,55.815V6.982A6.467,6.467,0,0,1,2.395,2.045,8.877,8.877,0,0,1,8.176,0a8.877,8.877,0,0,1,5.782,2.045,6.467,6.467,0,0,1,2.395,4.937V37.5c0,3.85,3.668,6.982,8.176,6.982H74.244c4.306,0,7.89-2.871,8.16-6.537.011-21.486.015-28.909.015-30.527V7.362c0-.079,0-.206,0-.38a6.467,6.467,0,0,1,2.395-4.937A8.877,8.877,0,0,1,90.6,0h43.132a8.877,8.877,0,0,1,5.782,2.045A6.467,6.467,0,0,1,141.9,6.982V55.815a6.466,6.466,0,0,1-2.395,4.936A8.877,8.877,0,0,1,133.728,62.8Z" transform="translate(0 0)" fill="url(#c)"/></g></g><g transform="translate(97.882 734.121)"><path d="M.823.821v0Z" transform="translate(200.757 217.14)" fill="#fabf44"/><path d="M.823.822h0Z" transform="translate(200.757 217.273)" fill="#fabf44"/><path d="M8.166,37.826c.012-22.21.015-28.736.016-30.382h0V6.96C8.183,3.117,11.846,0,16.366,0H59.532c4.519,0,8.183,3.117,8.183,6.96V55.637c0,3.844-3.663,6.96-8.183,6.96H.432L0,44.343c4.344,0,7.9-2.88,8.166-6.516" transform="translate(193.397 210.65)" fill="#fabf44"/><path d="M8.183,62.6H32.87c4.519,0,8.183-3.116,8.183-6.96V6.96C41.052,3.117,37.389,0,32.87,0H8.183C3.664,0,0,3.117,0,6.96V55.637c0,3.844,3.664,6.96,8.183,6.96" transform="translate(220.059 210.65)" fill="#f15a24"/><path d="M20.959.247S7.727-2.011,3.1,7.131-1.091,36.948,5.207,42.3s5.251,19.067,10.768,23.116,19.579,5.879,19.579-3.655c0,0-6.853,1.161-8.588-4.775,0,0,9.834,4.611,14.64-2.426s-5.518-7.69-5.518-7.69,4.056,1.992-2,.947-2.1-2.555-2.1-7.673,3.741-1.5,2.672-10.9S25.469-.077,20.959.247" transform="translate(169.392 119.045)" fill="#0e1b29"/><path d="M3.673.8,2.389,9.758S0,16.529,0,17.524c0,.659,1.124,6,4.114,6.9,1.532.462,7.81-6.39,8.644-9.489C13.734,11.314,11.347,0,11.347,0Z" transform="translate(154.735 320.311)" fill="#fc7575"/><path d="M1.732,0S.029,13.144.029,15.135s-.271,4.852.851,5.974,11.2-2.19,11.2-5.775S9.894,0,9.894,0Z" transform="translate(177.289 319.514)" fill="#fc7575"/><path d="M41.269,42.01c0-8.974-.372-38.165-.372-38.165s-5.3-3.6-15.923-3.6c-3.415,0-6.554-.584-9.954.035A63.132,63.132,0,0,0,1.328,4.659S3.529,32.2.089,51a5.429,5.429,0,0,0,5.363,6.37H39A3.665,3.665,0,0,0,42.614,53.1,82.5,82.5,0,0,1,41.269,42.01" transform="translate(159.531 159.982)" fill="#ffda88"/><path d="M16.3,0C10.858,4.216,9.7,5.668,8.148,7.567-3.936,22.4-.457,42.552,5.036,41.795S21.88,39.072,30.667,40.9s28.563,1.283,30.394-5.86c1.219-4.757-5.282-21.316-8.8-34.46Z" transform="translate(146.712 216.771)" fill="#464a7f"/><path d="M23.88,0,19.769,6.457c-2.022,4.63-.843,15.717-.843,15.717L.859,21.257,0,4.228Z" transform="translate(157.549 235.328)" fill="#35385f"/><path d="M3.674.145s10.252-1.1,14.1,2.748-3.478,56.23-2.563,59.161,5.309,2.565,2.746,5.128-3.2,4.3-2.014,5.5,1.648,2.931.549,4.03-1.465,4.029-1.465,4.029H2.753s-.91-7.51-.91-8.792S.378,67,.378,67s4.57-2.384,2.375-4.58,0-5.494,0-10.257S-4.016,1.061,3.674.145" transform="translate(174.622 241.228)" fill="#6b6e98"/><path d="M.5,2.83c3.548-3.549,9.282-3.992,14.958,0s3.661,13.882,3.661,22.857-.587,31.138.347,33.884,3.865,5.5,2.766,8.427-1.649,2.319.243,4.212.856,3.3.856,5.311-.916,8.243-.916,8.243H10.7S10.149,74.591,7.221,70.2s-.733-13.92-.733-15.385-3.662-3.3-3.662-9.708S-1.426,4.758.5,2.83" transform="translate(146.725 238.397)" fill="#6b6e98"/><path d="M5.944,0A82,82,0,0,0,.93,11.888c-2.929,8.243,2,40.906,2,46.4s6.888,12.4,6.888,12.4l5.858-6.594L11.83,40.283Z" transform="translate(155.481 164.641)" fill="#fd5e5a"/><path d="M8.95,0s8.445,2.083,11.022,13.805S24.643,53,23.838,56.3,1.794,69.79,1.794,69.79L0,66.189s16.106-13.92,16.106-15.934S9.213,23.025,9.213,23.025Z" transform="translate(191.478 163.828)" fill="#fd5e5a"/><path d="M0,2.195l4.76,33.8,59.321-2.11L62.907,0Z" transform="translate(135.453 203.462)" fill="#241145"/><path d="M12.427,0C6.9,3.5,2.784,3.135,0,1.8c.073.928,1.219,5.949,4.11,6.821,1.4.423,6.77-5.271,8.317-8.619" transform="translate(154.739 336.117)" fill="#ed1e79"/><path d="M12.084,3.381A31.43,31.43,0,0,0,11.807,0C8.617,2.87,4.356,4.76.236.546.11,1.786.029,2.75.029,3.182c0,1.991-.271,4.852.852,5.974s11.2-2.19,11.2-5.775" transform="translate(177.289 331.467)" fill="#ed1e79"/><path d="M15.4,5.5s-.46,1.013-1.159,2.6c-2.421,5.5-.881,13.923-.759,15.389.245,2.943-1.328,8.965-1.328,8.965S.651,24.4,0,19.116L6.238,0Z" transform="translate(175.117 141.152)" fill="#fc7575"/><path d="M1.214,0l9.163,5.5S9.916,6.517,9.218,8.1C5.993,7.21,1.069,5.584,0,3.718Z" transform="translate(180.141 141.152)" fill="#fd5e5a"/><path d="M0,6.275l13.839,7.64A2.85,2.85,0,0,0,16.71,10.78c0-3.2-3.525-6.334-7.115-8.163A33.507,33.507,0,0,0,1.5,0Z" transform="translate(183.571 119.287)" fill="#0e1b29"/><path d="M9.345,0S14.7.914,16.133,3.461s1.828,8.619,3.264,10.056a6.55,6.55,0,0,0,2.688,1.752s.38.664-1.055,1.381-.349,1.5.543,1.5.143,1.7-.543,1.894a.99.99,0,0,1,.717,1.11c-.163.849-.586,1.013-.586,1.013a5.5,5.5,0,0,0,.412,2.154c.457,1.044-.651,4.146-7.658,2.776,0,0-10.413-2.449-11.033-5.387S-2.371,8.093,1.577,4.144,9.345,0,9.345,0" transform="translate(179.253 122.1)" fill="#fc7575"/><path d="M.581.709s1.3-1.7,7.833.163,8.415,9.248,8.415,9.248-4.2-2.844-6.848-2.844-8.624-1-9.6-1.974S.581.709.581.709" transform="translate(183.185 118.415)" fill="#1b3753"/><path d="M13.269,0c.913,0,6.186,6.574,4.621,11.472s-5.287,2.71-7.638,4.015.456,7.347.032,9.8S3.267,41.737,3.267,41.737-2.28,12.128,1.082,6.643,13.269,0,13.269,0" transform="translate(171.85 118.53)" fill="#1b3753"/><path d="M0,1.325c0,.731,1.227,1.324,2.74,1.324s2.74-.592,2.74-1.324S4.254,0,2.74,0,0,.593,0,1.325" transform="translate(191.56 137.64)" fill="#fd5e5a"/><path d="M4.564,0S3.663,1.808,0,1.724Z" transform="translate(193.582 133.201)" fill="#1b3753"/><path d="M4.444.813A5.946,5.946,0,0,0,2.029,0C.974,0,0,.428,0,.813A4.33,4.33,0,0,1,2.07.407c.913.143,1.34.845,1.706.845s.669-.438.669-.438" transform="translate(192.596 131.503)" fill="#1b3753"/><path d="M31.339,13.744s5.076,11.767-5.117,24.912S2.2,46.482.335,41.16s4.651-7.142,4.651-7.142-1.242,6.021,2.068,5.736,4.452-1.066,3.122-7.547,3.479-3.882,6.126-8.127,0-7.484,0-12.5S22.438,0,22.438,0Z" transform="translate(150.495 125.172)" fill="#1b3753"/><path d="M3.418,3.356S1.528-.758.647.124-.674,7.078,2.435,7.666s.983-4.31.983-4.31" transform="translate(179.399 131.249)" fill="#fc7575"/><path d="M1.708,1.795S.735-.448.206.081.247,4.141.957,4.141s.924-1.217.751-2.347" transform="translate(180.973 133.312)" fill="#fd5e5a"/><path d="M.949.762c0,.42-.194.76-.432.76S.084,1.182.084.762.277,0,.516,0,.949.341.949.762" transform="translate(196.23 134.3)" fill="#1b3753"/><path d="M3.525,0H46.376C48.322,0,49.9,2.343,49.9,5.231V17.4c0,2.889-1.578,5.231-3.525,5.231h-1.94L49.9,39.2l-17.1-16.567H3.525C1.578,22.632,0,20.29,0,17.4V5.231C0,2.343,1.578,0,3.525,0" transform="translate(98.363 162.43)" fill="#5ca9ff"/><path d="M5.819,5.889a1.634,1.634,0,0,1-.888-.262C3.584,4.759,2.192,3.893.8,3.051A1.642,1.642,0,0,1,2.489.236c1.426.858,2.848,1.743,4.221,2.629a1.643,1.643,0,0,1-.891,3.024" transform="translate(296.711 31.271)" fill="#99d7ff"/><g transform="translate(0 0)"><path d="M0,0H287.711V275.991H0Z" fill="none"/><g clip-path="url(#d)"><path d="M84.225,275.991a1.643,1.643,0,0,1-.779-.2c-3.543-1.914-6.421-3.5-8.554-4.7a1.642,1.642,0,1,1,1.617-2.859c2.169,1.226,5.028,2.8,8.5,4.671a1.643,1.643,0,0,1-.781,3.088Zm-20.2-12.465a1.632,1.632,0,0,1-.978-.324c-2.659-1.974-5.252-4-7.707-6.018a1.642,1.642,0,1,1,2.085-2.539c2.445,2.01,4.995,4,7.579,5.917a1.644,1.644,0,0,1-.979,2.964ZM45.916,248.254a1.637,1.637,0,0,1-1.138-.458c-2.35-2.258-4.658-4.607-6.862-6.984a1.642,1.642,0,1,1,2.408-2.233c2.171,2.34,4.436,4.644,6.73,6.848a1.647,1.647,0,0,1,.047,2.323A1.627,1.627,0,0,1,45.916,248.254Zm-15.852-17.6a1.625,1.625,0,0,1-1.3-.638c-2.006-2.595-3.937-5.27-5.739-7.952a1.642,1.642,0,0,1,2.726-1.833c1.762,2.622,3.649,5.238,5.61,7.777a1.642,1.642,0,0,1-.294,2.3A1.651,1.651,0,0,1,30.064,230.655Zm-12.9-19.863a1.64,1.64,0,0,1-1.448-.867c-1.548-2.891-3-5.858-4.317-8.82a1.642,1.642,0,1,1,3-1.337c1.291,2.9,2.709,5.8,4.212,8.6a1.643,1.643,0,0,1-1.446,2.419Zm-9.269-21.8a1.638,1.638,0,0,1-1.563-1.138c-1-3.1-1.893-6.283-2.661-9.462a1.642,1.642,0,0,1,1.211-1.981,1.663,1.663,0,0,1,.386-.046,1.637,1.637,0,0,1,1.6,1.257c.745,3.083,1.618,6.187,2.594,9.224a1.642,1.642,0,0,1-1.563,2.146ZM2.7,165.879a1.645,1.645,0,0,1-1.626-1.428c-.1-.784-.192-1.516-.274-2.238-.288-2.508-.51-5.044-.659-7.537a1.645,1.645,0,0,1,1.54-1.738l.09,0a1.649,1.649,0,0,1,1.648,1.543c.145,2.433.362,4.91.644,7.361.074.651.159,1.344.268,2.182a1.641,1.641,0,0,1-1.414,1.843A1.49,1.49,0,0,1,2.7,165.879Zm-1.061-23.67H1.579A1.643,1.643,0,0,1,0,140.5c.127-3.236.37-6.529.723-9.786a1.639,1.639,0,0,1,1.632-1.466,1.663,1.663,0,0,1,.177.009,1.645,1.645,0,0,1,1.456,1.81c-.344,3.179-.581,6.4-.706,9.56A1.639,1.639,0,0,1,1.644,142.209ZM4.538,118.7a1.646,1.646,0,0,1-1.61-1.976c.661-3.189,1.436-6.4,2.3-9.535a1.642,1.642,0,1,1,3.164.875c-.853,3.084-1.611,6.222-2.253,9.325A1.648,1.648,0,0,1,4.538,118.7Zm6.64-22.748a1.641,1.641,0,0,1-1.535-2.226c1.146-3.019,2.416-6.064,3.775-9.052a1.643,1.643,0,1,1,2.989,1.363c-1.323,2.908-2.566,5.887-3.694,8.856A1.652,1.652,0,0,1,11.178,95.949ZM21.292,74.521a1.643,1.643,0,0,1-1.425-2.458c1.6-2.814,3.328-5.626,5.123-8.36a1.643,1.643,0,1,1,2.746,1.805c-1.749,2.659-3.436,5.412-5.016,8.184A1.647,1.647,0,0,1,21.292,74.521ZM34.581,54.9a1.624,1.624,0,0,1-1.021-.357,1.647,1.647,0,0,1-.263-2.309c2.035-2.559,4.17-5.075,6.344-7.478a1.643,1.643,0,1,1,2.435,2.206c-2.132,2.356-4.221,4.818-6.21,7.317A1.633,1.633,0,0,1,34.581,54.9ZM50.732,37.562a1.642,1.642,0,0,1-1.1-2.859c2.418-2.195,4.959-4.313,7.554-6.3a1.642,1.642,0,1,1,1.995,2.61c-2.518,1.925-4.988,3.984-7.342,6.12A1.644,1.644,0,0,1,50.732,37.562Zm235.337-9.744a1.618,1.618,0,0,1-.73-.172c-2.823-1.4-5.756-2.77-8.716-4.058a1.643,1.643,0,0,1,.656-3.15,1.626,1.626,0,0,1,.653.136c3,1.3,5.979,2.691,8.869,4.13a1.642,1.642,0,0,1-.732,3.113ZM69.8,23.541a1.643,1.643,0,0,1-.834-3.058c2.787-1.641,5.7-3.2,8.662-4.64A1.643,1.643,0,1,1,79.063,18.8c-2.881,1.4-5.718,2.918-8.432,4.516A1.635,1.635,0,0,1,69.8,23.541ZM264.24,18.592a1.649,1.649,0,0,1-.549-.094c-2.983-1.059-6.059-2.073-9.143-3.015a1.643,1.643,0,1,1,.96-3.143c3.148.963,6.27,1.993,9.28,3.061a1.642,1.642,0,0,1-.548,3.191ZM91.258,13.547a1.644,1.644,0,0,1-.556-3.19c3-1.078,6.146-2.086,9.339-3a1.643,1.643,0,0,1,1.884,2.38,1.628,1.628,0,0,1-.985.779c-3.111.888-6.182,1.874-9.128,2.932A1.68,1.68,0,0,1,91.258,13.547Zm150.257-1.688a1.678,1.678,0,0,1-.388-.046c-3.055-.741-6.22-1.448-9.409-2.1a1.643,1.643,0,0,1,.324-3.252,1.65,1.65,0,0,1,.332.034c3.186.649,6.391,1.364,9.527,2.124a1.643,1.643,0,0,1-.386,3.24Zm-127.4-4.525a1.643,1.643,0,0,1-.311-3.255c3.124-.61,6.37-1.157,9.649-1.626A1.643,1.643,0,0,1,125,5.066a1.627,1.627,0,0,1-1.08.64c-3.237.462-6.428,1-9.485,1.6A1.707,1.707,0,0,1,114.115,7.334Zm104.14-.046A1.557,1.557,0,0,1,218,7.268c-3.179-.487-6.4-.928-9.562-1.313a1.642,1.642,0,0,1,.212-3.271,1.688,1.688,0,0,1,.185.01c3.3.4,6.553.85,9.662,1.329A1.641,1.641,0,0,1,219.875,5.9,1.652,1.652,0,0,1,218.255,7.288ZM194.7,4.563c-.039,0-.078,0-.115,0h-.018c-3.138-.253-6.382-.471-9.642-.648A1.642,1.642,0,0,1,185.05.626h.054c3.3.18,6.568.4,9.725.655a1.64,1.64,0,0,1,1.505,1.768A1.65,1.65,0,0,1,194.7,4.563Zm-57.087-.377a1.643,1.643,0,0,1-1.248-2.708,1.63,1.63,0,0,1,1.119-.572c3.153-.252,6.432-.454,9.744-.6l.087,0a1.643,1.643,0,0,1,.056,3.285c-3.243.141-6.481.34-9.624.592C137.706,4.184,137.658,4.186,137.613,4.186Zm33.4-.795h-.037c-3.161-.07-6.236-.105-9.141-.105h-.523a1.643,1.643,0,0,1,0-3.286h.523c2.923,0,6.023.035,9.214.1a1.643,1.643,0,0,1-.035,3.287Z" transform="translate(0 0)" fill="#99d7ff"/></g></g><path d="M60.232,29.322,11.847,0,0,12.089Z" transform="translate(290.001 22.091)" fill="#0a4cfe"/><path d="M0,22.69.691,0l47.7,15.9Z" transform="translate(301.84 35.516)" fill="#99d7ff"/><path d="M0,0,48.444,48.1.059,18.78Z" transform="translate(301.789 3.311)" fill="#99d7ff"/><path d="M0,0,12.531,1.337l-.1,3.295Z" transform="translate(290.001 34.18)" fill="#0033bf"/></g><text transform="translate(365 719)" font-size="18" font-family="SegoeUI-Italic, Segoe UI" font-style="italic"><tspan x="0" y="0">My leave&apos;s History</tspan></text></g><path d="M.029,9.576C.021,4.29,4.584,0,10.214,0H353.141c6.142,0,10.887,5.067,10.1,10.786L347.049,128.653,11.5,161.912c-6.009.6-11.245-3.823-11.254-9.5Z" transform="translate(126.672 765.541)" fill="#7796fe"/><text transform="translate(157 835)" fill="#fff" font-size="26" font-family="SegoeUI-Italic, Segoe UI" font-style="italic"><tspan x="0" y="0">&quot;Hm, I wanna see my</tspan><tspan x="0" y="35">leave&apos;s history&quot;</tspan></text></g></svg>