<svg xmlns="http://www.w3.org/2000/svg" width="715.714" height="810" viewBox="0 0 715.714 810"><g transform="translate(-799.526 -308)"><path d="M52.008,96.623,28.065,84.183C12.842,59.805,1.036,31.182,0,.252A251.771,251.771,0,0,1,48.113,2.743l16.122,19.23L65.522,6.255c12.516,3.21,24.709,8.019,34.372,15.188l1.746,31.42,9.977-19.673a44.287,44.287,0,0,1,4.8,8.62C136.341,89.459,151.071,151.1,151.071,151.1l-49.519,12.827A324.549,324.549,0,0,1,43.239,105.9Z" transform="translate(826.312 940.143)" fill="#ad2500"/><path d="M91.07,142.548c13.547,2.836,22.141.669,25.168-.372C95.661,126.1,75.758,104.13,59.5,83.91q-1.1.336-2.187.618c-13.509,3.483-25.548.52-34.665-3.756q-.775-1.273-1.538-2.557c9.384,4.861,22.491,8.662,37.3,4.338-4.745-5.939-9.335-11.919-13.848-18-11.707,1.463-24.658-2.5-33.953-6.371q-.5-1.111-.995-2.225c9,3.887,22.136,8.257,33.842,7.1C20.567,32.032,4.576,6.314,4.408,6.027L0,.467,5.056,3.815c.294.5,13.366,21.315,31.711,47.131C39.422,37.133,28.5,7.863,25.409,0,26,.042,26.6.085,27.2.133c3.618,9.241,14.578,39.094,10.811,52.562a608.6,608.6,0,0,0,41.073,51.732c2.545-7.345-14.837-46.143-7.379-65.142,4.551-11.594,2.564-23.208.232-30.671.628.214,1.255.433,1.878.657,2.246,7.729,3.884,19.162-.606,30.6-7.515,19.142,11.3,58.936,7.033,65.845q4.5,4.973,9.122,9.761c2.22-39.49,1.73-40.749-3.59-54.8-3.058-8.086-5.949-15.72-1.808-22.708,3.593-6.065,2.728-16.02,1.179-23.877q.939.471,1.86.963c1.436,7.893,2.026,17.53-1.647,23.731C78.765,49.909,92.058,63.3,92.108,80c.043,15.119-1.029,33.947-1.212,37.046,6.3,6.439,12.743,12.535,19.249,18.077,1.539-2.162,7.707-12.344.99-28.687-5.453-13.269,2.936-34.119,8.961-46.268.267.716.53,1.436.792,2.155-5.81,12.092-13.217,31.435-8.257,43.5,7.171,17.448.415,28.109-1.249,30.347A169.64,169.64,0,0,0,135,153.074l-2.2.568q-2.082-1.245-4.166-2.6c-5.622,3.49-15.357,4.918-26.558.387a23.058,23.058,0,0,0-17.944.312q-.66-.568-1.345-1.167a24.782,24.782,0,0,1,19.9-.638c12.738,5.155,21.54,1.634,24.427.11-3.133-2.082-6.261-4.33-9.374-6.714-7.565,3.184-18.736,2.517-27,.785a34.17,34.17,0,0,0-14.832.289q-.7-.643-1.406-1.3a36.068,36.068,0,0,1,16.574-.56" transform="translate(828.454 941.214)" fill="#a7cbd3"/><path d="M0,8.256,4.251,0A43.633,43.633,0,0,1,9.079,8.538C29.115,55.731,43.929,116.786,43.929,116.786S12.841,77.2,0,8.256" transform="translate(932.383 973.357)" fill="#195f6d"/><path d="M142.465.415C140.379.957,110.3-5.745,68.429,19.69S0,79.286,0,79.286s54.433-3.414,99.869-23.629S142.465.415,142.465.415" transform="translate(987.026 1009.786)" fill="#004a58"/><path d="M.078,71.018C24.495,42.695,64.461,9.355,102.857,0,100.663,24.973,94.1,44.446,75.2,60.284,43.293,71.051,11.435,74.947,0,76.071c0-1.563.018-3.252.078-5.054" transform="translate(991.312 1013)" fill="#003842"/><path d="M5.1,146.662l24.7,15.413-18.668-40.7A219.943,219.943,0,0,1,26.155,82.739C42.762,50.214,74.8,0,74.8,0A261.69,261.69,0,0,1,110.26,52.245L94.206,80.114l24.613-9.045c55.674,138.654-50.186,270.186-50.186,270.186l-26.947,6.959S-.526,234.544,0,196.206a288.586,288.586,0,0,1,5.1-49.545" transform="translate(934.526 741.929)" fill="#e0aa1a"/><path d="M.915,208.949c-.335-2.392-.6-4.665-.776-6.8,9.7,14.135,34.428,47.81,53.3,53.442q.231-2.562.5-5.133C36.119,248.655,12.592,211.792,0,189.674q.107-3.018.28-6.063c13.484,24.291,37.846,62.211,54.015,63.664a222.973,222.973,0,0,1,7.593-38.56c2.991-9.856,5.269-22.947,7-37.769-16.813-7.08-39.287-49.769-50.3-72.648q.786-1.968,1.6-3.9c10.182,21.368,33.131,65.37,49.069,73.2,1.189-10.895,2.1-22.634,2.782-34.655C55.51,118.174,41.812,81.411,35.887,63.569q1.069-1.908,2.164-3.831c5.073,15.572,18.4,52.887,34.227,68.963C75.442,68.516,74.3,3.46,74.27,2.461L74.885,0l.59,2.348c.038,1.121,3.745,82.921-1.394,148.1,25.208,1.723,46.44-21.151,57.331-35.766q.39,2.219.734,4.428a137.166,137.166,0,0,1-9.818,11.343c-11.15,11.492-22.761,18.857-34.232,21.818a44.719,44.719,0,0,1-14.275,1.383c-1.476,17.647-3.551,33.9-6.44,46.745,22.785,1.867,51.108-14.061,66.547-24.168q-.184,2.09-.4,4.165c-11.243,7.229-27.973,16.592-44.85,20.947a65.071,65.071,0,0,1-22.044,2.219q-.793,3.207-1.66,6.077C49.3,261.34,56.734,336.187,57.47,343.114l-3.157.814c-.219-1.97-4.588-42.45-1.151-85.068C34.971,253.918,12.5,225.274.915,208.949" transform="translate(934.526 744.071)" fill="#cfd5f1"/><path d="M25.767,140.262.638,146.786s-8-55.593,32.691-104.538l8.432,7.9L39.042,35.776q3.636-3.888,7.725-7.685L59.273,44.382,56.565,19.726A184.236,184.236,0,0,1,87.857,0C73.407,79.493,27.5,138.078,25.767,140.262" transform="translate(978.454 944.429)" fill="#6670a4"/><path d="M71.8,5.756l11.277,21.9L85.132,9.337a156.348,156.348,0,0,1,22.832,9.007l4.857,11.077,5.135-5.623C138.343,36.122,155.9,54.65,165,82.4l-16.107,8.14c-.523.135-20.238,3.186-26.56,2.606C112.873,92.272,25.327,86.554,0,.8A240.42,240.42,0,0,1,71.8,5.756" transform="translate(799.526 1011.929)" fill="#469aa8"/><path d="M146.786,85.356l-1.646,3.573C89.1,75.044,8.072,7.261,4.758,4.352L0,0,6.9,1.933c.837.735,84.294,73.525,139.884,83.423" transform="translate(801.669 1013)" fill="#a7cbd3"/><path d="M28.545,44.19l7.219,6.7-2.33-12.2q3.116-3.3,6.615-6.521L50.757,46,48.441,25.079C60.582,15.606,75.72,6.985,94.584,0c0,0,10.428,57.511-8.158,88.8s-58.78,37.08-58.78,37.08l-27.1,6.975s-6.841-47.135,28-88.667" transform="translate(985.954 955.143)" fill="#e0aa1a"/><path d="M4.122,126.436,0,127.5C49.45,70.679,71.031,3.361,71.248,2.678L73.929,0l-.356,3.4C73.359,4.08,52.3,69.8,4.122,126.436" transform="translate(1006.312 956.214)" fill="#f3dda3"/><path d="M0,116.369S22.336,53.438,52.742,26.4,144.643,0,144.643,0s-5.711,12.891-15.483,30.005l-22.852,3.252,16.046,8.211c-16.044,25.988-39.4,56.637-65.507,67.993C8.153,130.639,0,116.369,0,116.369" transform="translate(985.954 971.214)" fill="#ad2500"/><path d="M0,114.643c.007-.018.283-.812,1.2-3.262,7.815-9.344,33.263-39.205,57.654-63.125.734-7.175-4.643-15.551-9.181-21.215q1.006-1,2.024-1.939c4.28,5.308,9.356,13.051,9.931,20.456,1.139-1.1,9.431-8.541,12.45-10.9,1.007-7.328-4.442-14.313-9.4-19.024q1.266-.73,2.565-1.421C71.917,18.8,76.8,25.275,76.963,32.464c2.97-2.208,5.97-4.284,8.963-6.223,4.428-6.511,2.87-14.457.757-20.015q1.346-.423,2.694-.819c1.873,4.956,3.293,11.656,1.05,18.009,2.68-1.629,5.337-3.153,7.946-4.574,4.923-9.248,5.214-14.328,4.743-16.833q1.378-.283,2.737-.54c.528,2.821.215,7.565-3.293,15.154A283.323,283.323,0,0,1,136.71,1.641L142.5,0,136.95,4.879c-.386.107-35.988,10.6-65.4,35.387,12.767-1.763,27.962,6.788,36.738,11.727,1.46.82,3.027,1.7,4.262,2.336q-.792,1.148-1.595,2.294c-1.069-.557-2.381-1.291-4.026-2.218-9.754-5.488-27.8-15.639-40.159-9.92-1.5,1.387-8.819,8.544-10.567,10.3,12.6-1.271,34.105,9.114,44.982,14.922q-.877,1.1-1.766,2.188c-14.369-7.614-38.441-18.29-47.129-13.143C26.088,85.564,0,114.643,0,114.643" transform="translate(985.954 973.357)" fill="#de9c8c"/><path d="M0,158.583C168.93-22.746,337.858,310.741,506.786,129.41V72.78C337.858,234.662,168.93-118.273,0,43.607Z" transform="translate(860.597 490.143)" fill="#cedeff"/><path d="M0,8.8C50.714,30.668,101.429,64.861,152.143,83.571V76.424C101.429,57.164,50.714,22.422,0,0Z" transform="translate(1045.954 524.429)" fill="#9173f1"/><path d="M0,6.676c40.714,16.781,81.429,41.51,122.143,59.752V60.76C81.429,42.181,40.714,17.117,0,0Z" transform="translate(1045.954 541.571)" fill="#9173f1"/><path d="M0,89.192c16.429.543,32.857,3.623,49.286,8.308V13.3C32.857,6.955,16.429,2.206,0,0Z" transform="translate(979.526 498.714)" fill="#fff"/><path d="M0,6.8C17.5,13.474,35,21.576,52.5,30V23.638C35,15.069,17.5,6.819,0,0Z" transform="translate(1045.954 560.857)" fill="#9173f1"/><path d="M0,67.09a198.708,198.708,0,0,1,32.143,5.767V8.251A208.68,208.68,0,0,0,0,0Z" transform="translate(985.954 509.429)" fill="#a98fff"/><path d="M0,66.091c16.429,3.653,32.857,5.4,49.286,4.3V9.329C32.857,8.756,16.429,5.33,0,0Z" transform="translate(1212.026 601.571)" fill="#fff"/><path d="M0,48.879A175.364,175.364,0,0,0,32.143,52.5V6.091A181.391,181.391,0,0,1,0,0Z" transform="translate(1219.526 611.214)" fill="#a98fff"/><path d="M0,50.357C33.929,19.2,67.857,8.528,101.786,9.893V.185C67.857-1.552,33.929,8.745,0,39.534Z" transform="translate(865.954 503)" fill="#a98fff"/><path d="M0,49.286C33.929,18.9,67.857,8.468,101.786,9.669V.156C67.857-1.411,33.929,8.659,0,38.676Z" transform="translate(868.097 521.214)" fill="#a98fff"/><path d="M0,67.5q6.638-9,13.274-18.282-2.06.322-4.122.579c-4.1.519-7.417-1.9-7.417-5.129V38.3c0-3.237,3.321-5.945,7.417-6.324C32.915,29.748,56.676,20.95,80.438,2.748c4.1-3.124,7.419-3.756,7.419-1v5.44c0,2.741-3.321,7.938-7.419,11.2A157.808,157.808,0,0,1,46.46,39.354,222.8,222.8,0,0,1,0,67.5" transform="translate(1268.812 582.286)" fill="#cdbdff"/><path d="M11.786,5.429A12.283,12.283,0,0,0,5.893.382C2.4-.907,0,1.205,0,4.631c0,3.982,3.278,9.707,11.786,16.8,8.508-.9,11.786-4.018,11.786-7.893a9.9,9.9,0,0,0-5.895-8.6c-3.911-1.576-5.891.5-5.891.5" transform="translate(1037.383 576.929)" fill="#a98fff"/><path d="M1.648,26.112S9.676,23.267,17.123,30.7,62.376,97.172,62.376,97.172s54.45-45.625,57.809-48.979,2.627-14.432,3.357-16.618,7.445-7.29,9.2-7.29-3.357,7.29-3.357,7.29,6.131-1.458,8.175-7.29,1.021-20.845,3.212-20.845,2.043,7.434,2.043,7.434S141.935-1.419,144.854.136s2.19,11.614,2.19,11.614.876-8.309,2.775-8.309.875,10.2.875,10.2,1.606-5.978,3.212-5.978-2.19,23.615-5.4,28.863-21.6,17.347-21.6,17.347-52.844,70.408-61.6,70.408S11.282,76.472,3.984,58.4,1.648,26.112,1.648,26.112" transform="translate(1209.883 583.357)" fill="#fd5e5a"/><path d="M15.359,50.334,2.082,48.447a2.492,2.492,0,0,1-2.072-2.71L3.639,2.3A2.431,2.431,0,0,1,6.359.023L23.632,2.481a2.5,2.5,0,0,1,2.04,2.949L18.051,48.3a2.422,2.422,0,0,1-2.692,2.031" transform="translate(1337.383 567.286)" fill="#111f59"/><path d="M3.1,0,0,32.166l12.211,1.049,6-30.569Z" transform="translate(1341.669 572.643)" fill="#749cfe"/><path d="M386.786,20.357c0,11.242-86.584,20.357-193.394,20.357S0,31.6,0,20.357,86.586,0,193.392,0,386.786,9.115,386.786,20.357" transform="translate(940.954 1077.286)" fill="#235893"/><path d="M15.443,0s12.03,44.626,12.03,63.208,21.964,17.318,20.721,12.86a7.6,7.6,0,0,1,1.519,8.4c-2.071,5.113-7.6,5.667-7.6,5.667s2.486,3.732.139,7.186-8.148,9.261-17.538,5.252S0,70.655,0,70.655Z" transform="translate(1206.669 536.214)" fill="#0e1b29"/><path d="M51.62.071S71.145,2.807,74.31,22.019,69.352,78.172,58.167,86.885,43.2,122.758,33.648,129.134s-30.61,6-26.925-12.677c0,0,9.469,4.2,14.275-6.933,0,0-16.014,6.262-20.252-8.874S11.7,87.142,11.7,87.142s-9.081,8.063.082,7.719,15.78-7.19,17.76-17.215S15.4,71.126,20.578,53.007,45.219-1.832,51.62.071" transform="translate(1144.526 526.571)" fill="#0e1b29"/><path d="M13.044,0C11.893,1.1,0,33.5,0,33.5l21.868,1.855.016-13.091L25.714,2.945Z" transform="translate(1060.954 1050.5)" fill="#fc7575"/><path d="M0,11.254l10.994,21.96,14.72-14.9L11.18,0Z" transform="translate(1288.097 1053.714)" fill="#fc7575"/><path d="M147.857,16.5s-42.583,85.364-52.263,112.75S83.6,163.083,64.241,194.525,20.589,296.786,20.589,296.786H0S18.3,173.952,44.12,149.607,93.951,0,93.951,0l47.738,5.868Z" transform="translate(1064.169 767.643)" fill="#45156e"/><path d="M24.665,0S0,25.031,0,41.6,79.892,162.811,79.892,176.458s7.04,50.314,15.837,67.858,42.41,86.756,42.41,86.756l20.433-17.982s-39.1-98.987-39.1-119.457-12.995-53.556-23.747-75.975S55.4,21.442,55.4,21.442Z" transform="translate(1150.954 746.214)" fill="#9070a9"/><path d="M60.9.863S34.93-2.871,30.2,7.548c-5.373,11.829,5.069,30.441,7.478,50.783,4.529,38.261,2.8,64.779-7.478,73.78C15.152,145.285,0,174.458,0,174.458s53.371,13.45,85.078,8.882c0,0-3.714-26.48-1-49.415,3.567-30.156,16.634-62.659,16.634-74.012,0-19.987-4.84-22.939-22.729-56.951C75.322-2.1,60.9.863,60.9.863" transform="translate(1142.383 606.929)" fill="#fac338"/><path d="M7.4,180C-6.842,103.108,29,76.261,20.267,42.144,17.606,32.174,8.257,17.648,0,0,29.556,46.173,30.541,45.208,18.429,88.1,7.83,124.281,4.765,141.169,7.4,180" transform="translate(1219.526 610.143)" fill="#fff7cf"/><path d="M42.489,121.6c0-8.857,20.2-4.442,8.517-16.049s2.871-42.626,2.871-58.595S32.032,0,32.032,0L29.053,10.176c.087,11.421,7.168,26.469,9.108,42.607C42.749,90.96,41,117.42,30.588,126.4,15.349,139.547,0,168.656,0,168.656a411.543,411.543,0,0,0,45.378,8.13c6.393-19.95-2.89-46.867-2.89-55.181" transform="translate(1140.24 613.357)" fill="#a67076"/><path d="M24.737,7.277s-9.676,40.149-7.024,42.832c2.995,3.029,8,15.248,8,15.248S3.276,50.069,0,39.938L4.847,0Z" transform="translate(1202.383 566.214)" fill="#fc7575"/><path d="M.969,0,21.429,7.3s-.524,2.176-1.3,5.561C13.339,12.35,2.862,11.048,0,7.788Z" transform="translate(1206.669 566.214)" fill="#fd5e5a"/><path d="M0,12.858,29.734,22.5s5.594-.973,4.379-7.234-9.24-11.043-16.9-13.244A65.526,65.526,0,0,0,.532,0Z" transform="translate(1205.597 523.357)" fill="#0e1b29"/><path d="M3,6H3a3,3,0,1,1,1.154-.232A3,3,0,0,1,3,6ZM3,.569A2.43,2.43,0,0,0,3,5.43,2.43,2.43,0,1,0,3,.569Z" transform="translate(1182 763)"/><path d="M3.77,40.443C-.068,84.759,38.333,111.666,56.418,90c14.74-16.632,19.62-43.465,20.4-66.026.27-6.614.7-16.06-2.858-22.015L75.489,0c4.123,6.367,3.92,17.5,3.7,24.118-.642,23.161-5.483,50.519-20.648,67.887C38.675,116.011-3.516,87.688.235,40.052Z" transform="translate(1110.24 765.5)" fill="#853846"/><path d="M7.7,34.286,0,31.346,15,0Z" transform="translate(1168.097 768.714)"/><path d="M19.987,0C17.365,3.223,0,50.009,0,50.009s58.466,21.61,79.868,23.919l18.7-54.235Z" transform="translate(1085.597 748.357)" fill="#b14a5d"/><path d="M0,38.571S12.68,4.66,17.945,0L57.857,8.3,18.688,1.811S11.877,9.25,0,38.571" transform="translate(1090.954 756.929)" fill="#d38792"/><path d="M76.048,21.157c-.519-8.809-3.761-14.3-7.332-17.7A13.089,13.089,0,0,0,49.92,4.58C32.892,24.08,1.516,81.446.12,95.1c-1.691,16.521,15.063,77.633,11.681,84.851s-2.147,23.266.159,23.266,7.526,1.275,9.677,1.275,4.978,2.286,6.592.6c.3-.317-.068-2.679-.038-4.093,2.811,1.272,5.439,4.916,6.4,3.961,1.576-1.567-.558-2.855-2.793-6.725s-4.769-15.724-4.769-15.724c-.6-5.61-5.442-82.547-1.359-95.028,4.3-13.151,51.608-45.477,50.377-66.329" transform="translate(1119.883 613.357)" fill="#fc7575"/><path d="M15.132,0S25.864-.261,29.618,4.184,36.439,20.4,39.77,22.663a24.43,24.43,0,0,0,5.88,3.05s.991.512-1.523,2.475-1.391,3.348.338,3.006,2.208,3.009.953,3.657A3.156,3.156,0,0,1,46.6,37.39a2.158,2.158,0,0,1-1.273,2.168,8.3,8.3,0,0,0,1.2,4.394c1.283,1.875,1.883,7.472-12.234,7.477,0,0-21.133-.8-23.451-6.33S-4.523,20.392,1.636,11.123,15.132,0,15.132,0" transform="translate(1198.097 526.571)" fill="#fc7575"/><path d="M20.742.009c1.784-.35,15.73,9.533,14.544,19.729s-9.294,7.34-13.387,10.8,3.7,14.218,3.81,19.176-7.416,34.929-7.416,34.929S-3.878,28.768.6,16.731,20.742.009,20.742.009" transform="translate(1184.169 522.286)" fill="#1b3753"/><path d="M7.067,5.43S1.847-1.636.475.353.555,13.97,6.8,13.928s.271-8.5.271-8.5" transform="translate(1200.24 548)" fill="#fc7575"/><path d="M38.326,23.954S42.3,90.673,18.244,93.995-.737,71.182,3.833,66.675c0,0,1.471,8.131,6.416,6.505s3.7-.327.411-10.734,6.6-7.452,12.2-17.061-8.577-16.52-8.24-24.9S12.515,0,12.515,0Z" transform="translate(1171.312 548)" fill="#1b3753"/><path d="M2.143,2.143c0,1.185-.48,2.143-1.07,2.143S0,3.328,0,2.143.48,0,1.072,0s1.07.96,1.07,2.143" transform="translate(1233.454 545.857)" fill="#1b3753"/><path d="M61.071,2.914S35.2,26.154,29.841,27.884s-9,9.027-13.97,11.522S0,23.815,0,23.815L16.655,5.6s3.809,1.7,17.778-1.563,25.527-6.593,26.638-1.12" transform="translate(1296.669 1062.286)" fill="#e9bbbd"/><path d="M28.227,5.486s2.435,2.1,6.267,5.937c4.545,4.557,27,18.309,24.192,21.125S26.3,34.506,23.568,31.767s-10.457-6.1-16.232-6.1S0,20.5,0,14.711,8.272,0,8.272,0Z" transform="translate(1056.669 1071.928)" fill="#e9bbbd"/><path d="M5.342,0S5.912,4.255,0,8.571Z" transform="translate(1230.24 541.571)" fill="#1b3753"/><path d="M.024,4.422C.3,6.066,2.916,6.859,5.861,6.192s5.107-2.54,4.829-4.186S7.8-.431,4.853.236-.254,2.778.024,4.422" transform="translate(1221.669 553.357)" fill="#fd5e5a"/><path d="M8.571.658A13.071,13.071,0,0,0,3.612.08C1.578.432-.137,1.485.009,2.143A9.088,9.088,0,0,1,3.844.759c1.812-.064,2.9.993,3.6.87A1.892,1.892,0,0,0,8.571.658" transform="translate(1223.812 541.571)" fill="#1b3753"/><path d="M.052,1.993S3.263-.865,16.977.264,36.429,13.929,36.429,13.929s-9.472-3.92-14.732-2.913S4.144,12.348,1.834,10.831.052,1.993.052,1.993" transform="translate(1202.383 521.214)" fill="#1b3753"/><path d="M17.589,8.174C12.649,3.261,1.127,2.225,1.013,2.215A1.108,1.108,0,0,1,1.2.008c.506.042,12.446,1.112,17.961,6.6,5,4.975,28.23,6.193,30.365,4.287A1.112,1.112,0,0,1,51.1,12.463c-3,2.99-27.867,1.328-33.514-4.289" transform="translate(1057.74 1090.143)" fill="#b880a7"/><path d="M1.127,32.143a1.126,1.126,0,0,1-.6-.168,1.1,1.1,0,0,1-.36-1.526c.223-.352,5.584-8.693,14.343-11.371C22.786,16.547,39.2,3.066,40.765.533a1.138,1.138,0,0,1,1.55-.371,1.1,1.1,0,0,1,.379,1.523C40.741,4.842,23.656,18.6,15.184,21.194,7.24,23.623,2.135,31.541,2.084,31.623a1.13,1.13,0,0,1-.957.52" transform="translate(1309.526 1065.5)" fill="#b880a7"/><path d="M0,810H715.714V0H0Z" transform="translate(799.526 308)" fill="none"/><path d="M0,45H71.786V0H0Z" transform="translate(1348.097 489.071)" fill="#95b3ff"/><path d="M56.786,0H0L27.918,26.786Z" transform="translate(1356.669 492.286)" fill="#fff"/><path d="M32.116,30.02,0,0V34.286H64.286V.94Z" transform="translate(1352.383 494.429)" fill="#fff"/><path d="M30.865,7.276c61.688,20.134,88.362,55.9,52.9,145.086A257.488,257.488,0,0,1,71.11,179.757a.46.46,0,0,1-.806-.442C88.777,135.462,114.547,72.832,81.52,38.451,53.195,8.876-4.354,1.829,1.132,2.672a1.344,1.344,0,0,1,.4-2.656A205.281,205.281,0,0,1,30.865,7.276" transform="translate(1299.883 414.071)" fill="#95b3ff"/><path d="M95.417,93.449c2.814,12.711,2.448,21,.837,29.018a65.582,65.582,0,0,1-1.974,6.475C81.052,164.783,30.549,210.223.7,233.48a.425.425,0,0,1-.6-.078.445.445,0,0,1,.081-.613c25.105-19.816,50.405-44.287,63.987-60.36,14.1-16.118,21.649-29.659,20.847-28.317,11.03-18.768,18.339-38.021-3.819-83.071C65.332,29,42.488,1.758,42.844,2.191A1.347,1.347,0,0,1,43.021.308a1.322,1.322,0,0,1,1.87.176c19.585,23.86,43.568,62.378,50.527,92.965" transform="translate(1370.597 363.714)" fill="#95b3ff"/><path d="M0,32.143H51.429V0H0Z" transform="translate(1267.74 357.286)" fill="#95b3ff"/><path d="M40.714,0H0L20.017,19.286Z" transform="translate(1274.169 359.429)" fill="#fff"/><path d="M23.017,22.514,0,0V25.714H46.071V.7Z" transform="translate(1270.954 361.571)" fill="#fff"/><path d="M0,45H71.786V0H0Z" transform="translate(1205.597 402.286)" fill="#95b3ff"/><path d="M56.786,0H0L27.918,26.786Z" transform="translate(1213.097 405.5)" fill="#fff"/><path d="M32.116,30.02,0,0V34.286H64.286V.94Z" transform="translate(1209.883 408.714)" fill="#fff"/><path d="M0,45H71.786V0H0Z" transform="translate(1342.74 410.857)" fill="#95b3ff"/><path d="M56.786,0H0L27.918,26.786Z" transform="translate(1350.24 415.143)" fill="#fff"/><path d="M32.116,30.02,0,0V34.286H64.286V.94Z" transform="translate(1347.026 418.357)" fill="#fff"/><path d="M0,45H71.786V0H0Z" transform="translate(1109.169 448.357)" fill="#95b3ff"/><path d="M56.786,0H0L27.918,26.786Z" transform="translate(1117.74 452.643)" fill="#fff"/><path d="M32.116,30.02,0,0V34.286H64.286V.94Z" transform="translate(1112.383 455.857)" fill="#fff"/><path d="M0,45H71.786V0H0Z" transform="translate(1040.597 511.571)" fill="#95b3ff"/><path d="M56.786,0H0L27.918,26.786Z" transform="translate(1049.169 514.786)" fill="#fff"/><path d="M32.116,30.02,0,0V34.286H64.286V.94Z" transform="translate(1044.883 518)" fill="#fff"/><path d="M0,31.071H50.357V0H0Z" transform="translate(1043.812 406.571)" fill="#95b3ff"/><path d="M39.643,0H0L19.49,18.214Z" transform="translate(1050.24 408.714)" fill="#fff"/><path d="M22.481,21.576,0,0V24.643H45V.676Z" transform="translate(1047.026 410.857)" fill="#fff"/><path d="M0,31.071H50.357V0H0Z" transform="translate(963.454 578)" fill="#95b3ff"/><path d="M39.643,0H0L19.49,18.214Z" transform="translate(968.812 580.143)" fill="#fff"/><path d="M22.482,21.576,0,0V24.643H45V.675Z" transform="translate(965.597 581.214)" fill="#fff"/><path d="M0,31.071H50.357V0H0Z" transform="translate(847.74 659.429)" fill="#95b3ff"/><path d="M39.643,0H0L19.49,18.214Z" transform="translate(854.169 662.643)" fill="#fff"/><path d="M22.482,21.576,0,0V24.643H45V.675Z" transform="translate(850.954 664.786)" fill="#fff"/><path d="M0,51.429H81.429V0H0Z" transform="translate(1394.169 370.143)" fill="#95b3ff"/><path d="M63.214,0H0L31.077,28.929Z" transform="translate(1404.883 375.5)" fill="#fff"/><path d="M36.4,34.71,0,0V39.643H72.857V1.088Z" transform="translate(1399.526 377.643)" fill="#fff"/><path d="M0,51.429H81.429V0H0Z" transform="translate(1373.812 308)" fill="#95b3ff"/><path d="M63.214,0H0L31.079,28.929Z" transform="translate(1384.526 313.357)" fill="#fff"/><path d="M36.4,34.71,0,0V39.643H72.857V1.088Z" transform="translate(1379.169 314.429)" fill="#fff"/><path d="M0,43.929H69.643V0H0Z" transform="translate(1363.097 545.857)" fill="#95b3ff"/><path d="M53.571,0H0L26.337,25.714Z" transform="translate(1370.597 550.143)" fill="#fff"/><path d="M30.51,29.082,0,0V33.214H61.071V.911Z" transform="translate(1367.383 552.286)" fill="#fff"/><path d="M0,43.929H69.643V0H0Z" transform="translate(1445.597 400.143)" fill="#95b3ff"/><path d="M53.571,0H0L26.337,25.714Z" transform="translate(1453.097 403.357)" fill="#fff"/><path d="M30.51,29.081,0,0V33.214H61.071V.911Z" transform="translate(1449.883 405.5)" fill="#fff"/><path d="M0,43.929H69.643V0H0Z" transform="translate(1424.169 470.857)" fill="#95b3ff"/><path d="M53.571,0H0L26.338,25.714Z" transform="translate(1432.74 475.143)" fill="#fff"/><path d="M30.51,29.081,0,0V33.214H61.071V.911Z" transform="translate(1428.454 477.286)" fill="#fff"/><path d="M0,47.143H75V0H0Z" transform="translate(1282.74 454.786)" fill="#95b3ff"/><path d="M58.929,0H0L28.97,26.786Z" transform="translate(1292.383 460.143)" fill="#fff"/><path d="M33.188,31.9,0,0V36.429H66.429V1Z" transform="translate(1287.026 461.214)" fill="#fff"/><path d="M3.75,3.269S.994-1.083.166.256s1.63,8.6,3.016,8.307S4.518,5.6,3.75,3.269" transform="translate(1203.454 551.214)" fill="#fd5e5a"/><path d="M0,810H715.714V0H0Z" transform="translate(799.526 308)" fill="none"/></g></svg>